<mxfile host="app.diagrams.net" modified="2022-10-13T17:07:23.225Z" agent="5.0 (Windows NT 10.0; Win64; x64) AppleWebKit/537.36 (KHTML, like Gecko) Chrome/106.0.0.0 Safari/537.36" etag="a2qTzzgQGjmnNBXafiNB" version="20.4.0" type="github">
  <diagram id="8WHZSStpC6d_jdVqhrs2" name="Seite-1">
    <mxGraphModel dx="1300" dy="1240" grid="1" gridSize="10" guides="1" tooltips="1" connect="1" arrows="1" fold="1" page="1" pageScale="1" pageWidth="827" pageHeight="1169" math="0" shadow="0">
      <root>
        <mxCell id="0" />
        <mxCell id="1" parent="0" />
        <mxCell id="t94pPOiG23g_uNMkArds-3" value="Jedes Produkt hat nur ein Produkt-ID" style="text;whiteSpace=wrap;html=1;" vertex="1" parent="1">
          <mxGeometry x="20" y="50" width="220" height="20" as="geometry" />
        </mxCell>
        <mxCell id="t94pPOiG23g_uNMkArds-4" value="Produkt" style="rounded=0;whiteSpace=wrap;html=1;" vertex="1" parent="1">
          <mxGeometry y="90" width="60" height="30" as="geometry" />
        </mxCell>
        <mxCell id="t94pPOiG23g_uNMkArds-5" value="Produkt-ID" style="rounded=0;whiteSpace=wrap;html=1;" vertex="1" parent="1">
          <mxGeometry x="260" y="90" width="60" height="30" as="geometry" />
        </mxCell>
        <mxCell id="t94pPOiG23g_uNMkArds-11" style="edgeStyle=orthogonalEdgeStyle;orthogonalLoop=1;jettySize=auto;html=1;entryX=0;entryY=0.5;entryDx=0;entryDy=0;rounded=0;endArrow=none;endFill=0;" edge="1" parent="1" source="t94pPOiG23g_uNMkArds-9" target="t94pPOiG23g_uNMkArds-5">
          <mxGeometry relative="1" as="geometry" />
        </mxCell>
        <mxCell id="t94pPOiG23g_uNMkArds-9" value="Produkt-ID" style="rhombus;whiteSpace=wrap;html=1;" vertex="1" parent="1">
          <mxGeometry x="120" y="90" width="80" height="30" as="geometry" />
        </mxCell>
        <object label="" id="t94pPOiG23g_uNMkArds-12">
          <mxCell style="edgeStyle=orthogonalEdgeStyle;orthogonalLoop=1;jettySize=auto;html=1;entryX=0;entryY=0.5;entryDx=0;entryDy=0;rounded=0;endArrow=none;endFill=0;exitX=1;exitY=0.5;exitDx=0;exitDy=0;" edge="1" parent="1" source="t94pPOiG23g_uNMkArds-4">
            <mxGeometry relative="1" as="geometry">
              <mxPoint x="80" y="104.83" as="sourcePoint" />
              <mxPoint x="120" y="104.83" as="targetPoint" />
            </mxGeometry>
          </mxCell>
        </object>
        <mxCell id="t94pPOiG23g_uNMkArds-17" value="&lt;font style=&quot;font-size: 10px;&quot;&gt;1:1&lt;/font&gt;" style="text;whiteSpace=wrap;html=1;" vertex="1" parent="1">
          <mxGeometry x="80" y="80" width="20" height="20" as="geometry" />
        </mxCell>
        <mxCell id="t94pPOiG23g_uNMkArds-20" value="&lt;font style=&quot;font-size: 10px;&quot;&gt;1:1&lt;/font&gt;" style="text;whiteSpace=wrap;html=1;" vertex="1" parent="1">
          <mxGeometry x="220" y="80" width="20" height="20" as="geometry" />
        </mxCell>
        <mxCell id="t94pPOiG23g_uNMkArds-21" value="&lt;font style=&quot;font-size: 10px;&quot;&gt;produkt&lt;/font&gt;" style="text;whiteSpace=wrap;html=1;" vertex="1" parent="1">
          <mxGeometry x="75" y="100" width="50" height="20" as="geometry" />
        </mxCell>
        <mxCell id="t94pPOiG23g_uNMkArds-22" value="&lt;font style=&quot;font-size: 10px;&quot;&gt;produkt-id&lt;/font&gt;" style="text;whiteSpace=wrap;html=1;" vertex="1" parent="1">
          <mxGeometry x="205" y="100" width="50" height="20" as="geometry" />
        </mxCell>
        <mxCell id="t94pPOiG23g_uNMkArds-25" value="Jedes Produkt hat einen Namen" style="text;whiteSpace=wrap;html=1;" vertex="1" parent="1">
          <mxGeometry x="20" y="130" width="220" height="20" as="geometry" />
        </mxCell>
        <mxCell id="t94pPOiG23g_uNMkArds-26" value="Produkt" style="rounded=0;whiteSpace=wrap;html=1;" vertex="1" parent="1">
          <mxGeometry y="170" width="60" height="30" as="geometry" />
        </mxCell>
        <mxCell id="t94pPOiG23g_uNMkArds-27" value="Name" style="rounded=0;whiteSpace=wrap;html=1;" vertex="1" parent="1">
          <mxGeometry x="260" y="170" width="60" height="30" as="geometry" />
        </mxCell>
        <mxCell id="t94pPOiG23g_uNMkArds-28" style="edgeStyle=orthogonalEdgeStyle;orthogonalLoop=1;jettySize=auto;html=1;entryX=0;entryY=0.5;entryDx=0;entryDy=0;rounded=0;endArrow=none;endFill=0;" edge="1" parent="1" source="t94pPOiG23g_uNMkArds-29" target="t94pPOiG23g_uNMkArds-27">
          <mxGeometry relative="1" as="geometry" />
        </mxCell>
        <mxCell id="t94pPOiG23g_uNMkArds-29" value="PName" style="rhombus;whiteSpace=wrap;html=1;" vertex="1" parent="1">
          <mxGeometry x="120" y="170" width="80" height="30" as="geometry" />
        </mxCell>
        <object label="" id="t94pPOiG23g_uNMkArds-30">
          <mxCell style="edgeStyle=orthogonalEdgeStyle;orthogonalLoop=1;jettySize=auto;html=1;entryX=0;entryY=0.5;entryDx=0;entryDy=0;rounded=0;endArrow=none;endFill=0;exitX=1;exitY=0.5;exitDx=0;exitDy=0;" edge="1" parent="1" source="t94pPOiG23g_uNMkArds-26">
            <mxGeometry relative="1" as="geometry">
              <mxPoint x="80" y="184.82999999999998" as="sourcePoint" />
              <mxPoint x="120" y="184.82999999999998" as="targetPoint" />
            </mxGeometry>
          </mxCell>
        </object>
        <mxCell id="t94pPOiG23g_uNMkArds-31" value="&lt;font style=&quot;font-size: 10px;&quot;&gt;1:1&lt;/font&gt;" style="text;whiteSpace=wrap;html=1;" vertex="1" parent="1">
          <mxGeometry x="80" y="160" width="20" height="20" as="geometry" />
        </mxCell>
        <mxCell id="t94pPOiG23g_uNMkArds-32" value="&lt;font style=&quot;font-size: 10px;&quot;&gt;1:1&lt;/font&gt;" style="text;whiteSpace=wrap;html=1;" vertex="1" parent="1">
          <mxGeometry x="220" y="160" width="20" height="20" as="geometry" />
        </mxCell>
        <mxCell id="t94pPOiG23g_uNMkArds-33" value="&lt;font style=&quot;font-size: 10px;&quot;&gt;produkt&lt;/font&gt;" style="text;whiteSpace=wrap;html=1;" vertex="1" parent="1">
          <mxGeometry x="75" y="180" width="50" height="20" as="geometry" />
        </mxCell>
        <mxCell id="t94pPOiG23g_uNMkArds-34" value="&lt;font style=&quot;font-size: 10px;&quot;&gt;name&lt;/font&gt;" style="text;whiteSpace=wrap;html=1;align=center;" vertex="1" parent="1">
          <mxGeometry x="205" y="180" width="50" height="20" as="geometry" />
        </mxCell>
        <mxCell id="t94pPOiG23g_uNMkArds-44" value="Produkt" style="rounded=0;whiteSpace=wrap;html=1;" vertex="1" parent="1">
          <mxGeometry y="250" width="60" height="30" as="geometry" />
        </mxCell>
        <mxCell id="t94pPOiG23g_uNMkArds-45" value="Kategorie" style="rounded=0;whiteSpace=wrap;html=1;" vertex="1" parent="1">
          <mxGeometry x="260" y="250" width="60" height="30" as="geometry" />
        </mxCell>
        <mxCell id="t94pPOiG23g_uNMkArds-46" style="edgeStyle=orthogonalEdgeStyle;orthogonalLoop=1;jettySize=auto;html=1;entryX=0;entryY=0.5;entryDx=0;entryDy=0;rounded=0;endArrow=none;endFill=0;" edge="1" parent="1" source="t94pPOiG23g_uNMkArds-47" target="t94pPOiG23g_uNMkArds-45">
          <mxGeometry relative="1" as="geometry" />
        </mxCell>
        <mxCell id="t94pPOiG23g_uNMkArds-47" value="PKat" style="rhombus;whiteSpace=wrap;html=1;" vertex="1" parent="1">
          <mxGeometry x="120" y="250" width="80" height="30" as="geometry" />
        </mxCell>
        <object label="" id="t94pPOiG23g_uNMkArds-48">
          <mxCell style="edgeStyle=orthogonalEdgeStyle;orthogonalLoop=1;jettySize=auto;html=1;entryX=0;entryY=0.5;entryDx=0;entryDy=0;rounded=0;endArrow=none;endFill=0;exitX=1;exitY=0.5;exitDx=0;exitDy=0;" edge="1" parent="1" source="t94pPOiG23g_uNMkArds-44">
            <mxGeometry relative="1" as="geometry">
              <mxPoint x="80" y="264.83" as="sourcePoint" />
              <mxPoint x="120" y="264.8299999999999" as="targetPoint" />
            </mxGeometry>
          </mxCell>
        </object>
        <mxCell id="t94pPOiG23g_uNMkArds-49" value="&lt;font style=&quot;font-size: 10px;&quot;&gt;1:*&lt;/font&gt;" style="text;whiteSpace=wrap;html=1;" vertex="1" parent="1">
          <mxGeometry x="80" y="240" width="20" height="20" as="geometry" />
        </mxCell>
        <mxCell id="t94pPOiG23g_uNMkArds-50" value="&lt;font style=&quot;font-size: 10px;&quot;&gt;1:*&lt;/font&gt;" style="text;whiteSpace=wrap;html=1;" vertex="1" parent="1">
          <mxGeometry x="220" y="240" width="20" height="20" as="geometry" />
        </mxCell>
        <mxCell id="t94pPOiG23g_uNMkArds-51" value="&lt;font style=&quot;font-size: 10px;&quot;&gt;produkt&lt;/font&gt;" style="text;whiteSpace=wrap;html=1;" vertex="1" parent="1">
          <mxGeometry x="75" y="260" width="50" height="20" as="geometry" />
        </mxCell>
        <mxCell id="t94pPOiG23g_uNMkArds-52" value="&lt;font style=&quot;font-size: 10px;&quot;&gt;kategorie&lt;/font&gt;" style="text;whiteSpace=wrap;html=1;align=center;" vertex="1" parent="1">
          <mxGeometry x="205" y="260" width="50" height="20" as="geometry" />
        </mxCell>
        <mxCell id="t94pPOiG23g_uNMkArds-53" value="Jedes Produkt hat eine Kategorie" style="text;whiteSpace=wrap;html=1;" vertex="1" parent="1">
          <mxGeometry x="20" y="210" width="220" height="20" as="geometry" />
        </mxCell>
        <mxCell id="t94pPOiG23g_uNMkArds-54" value="Produkt" style="rounded=0;whiteSpace=wrap;html=1;" vertex="1" parent="1">
          <mxGeometry y="330" width="60" height="30" as="geometry" />
        </mxCell>
        <mxCell id="t94pPOiG23g_uNMkArds-55" value="Preis" style="rounded=0;whiteSpace=wrap;html=1;" vertex="1" parent="1">
          <mxGeometry x="260" y="330" width="60" height="30" as="geometry" />
        </mxCell>
        <mxCell id="t94pPOiG23g_uNMkArds-56" style="edgeStyle=orthogonalEdgeStyle;orthogonalLoop=1;jettySize=auto;html=1;entryX=0;entryY=0.5;entryDx=0;entryDy=0;rounded=0;endArrow=none;endFill=0;" edge="1" parent="1" source="t94pPOiG23g_uNMkArds-57" target="t94pPOiG23g_uNMkArds-55">
          <mxGeometry relative="1" as="geometry" />
        </mxCell>
        <mxCell id="t94pPOiG23g_uNMkArds-57" value="PPreis" style="rhombus;whiteSpace=wrap;html=1;" vertex="1" parent="1">
          <mxGeometry x="120" y="330" width="80" height="30" as="geometry" />
        </mxCell>
        <object label="" id="t94pPOiG23g_uNMkArds-58">
          <mxCell style="edgeStyle=orthogonalEdgeStyle;orthogonalLoop=1;jettySize=auto;html=1;entryX=0;entryY=0.5;entryDx=0;entryDy=0;rounded=0;endArrow=none;endFill=0;exitX=1;exitY=0.5;exitDx=0;exitDy=0;" edge="1" parent="1" source="t94pPOiG23g_uNMkArds-54">
            <mxGeometry relative="1" as="geometry">
              <mxPoint x="80" y="344.83" as="sourcePoint" />
              <mxPoint x="120" y="344.8299999999999" as="targetPoint" />
            </mxGeometry>
          </mxCell>
        </object>
        <mxCell id="t94pPOiG23g_uNMkArds-59" value="&lt;font style=&quot;font-size: 10px;&quot;&gt;1:1&lt;/font&gt;" style="text;whiteSpace=wrap;html=1;" vertex="1" parent="1">
          <mxGeometry x="80" y="320" width="20" height="20" as="geometry" />
        </mxCell>
        <mxCell id="t94pPOiG23g_uNMkArds-60" value="&lt;font style=&quot;font-size: 10px;&quot;&gt;1:*&lt;/font&gt;" style="text;whiteSpace=wrap;html=1;" vertex="1" parent="1">
          <mxGeometry x="220" y="320" width="20" height="20" as="geometry" />
        </mxCell>
        <mxCell id="t94pPOiG23g_uNMkArds-61" value="&lt;font style=&quot;font-size: 10px;&quot;&gt;produkt&lt;/font&gt;" style="text;whiteSpace=wrap;html=1;" vertex="1" parent="1">
          <mxGeometry x="75" y="340" width="50" height="20" as="geometry" />
        </mxCell>
        <mxCell id="t94pPOiG23g_uNMkArds-62" value="&lt;font style=&quot;font-size: 10px;&quot;&gt;preis&lt;/font&gt;" style="text;whiteSpace=wrap;html=1;align=center;" vertex="1" parent="1">
          <mxGeometry x="205" y="340" width="50" height="20" as="geometry" />
        </mxCell>
        <mxCell id="t94pPOiG23g_uNMkArds-63" value="Jedes Produkt hat einen Preis" style="text;whiteSpace=wrap;html=1;" vertex="1" parent="1">
          <mxGeometry x="20" y="290" width="220" height="20" as="geometry" />
        </mxCell>
        <mxCell id="t94pPOiG23g_uNMkArds-64" value="Produkt" style="rounded=0;whiteSpace=wrap;html=1;" vertex="1" parent="1">
          <mxGeometry y="410" width="60" height="30" as="geometry" />
        </mxCell>
        <mxCell id="t94pPOiG23g_uNMkArds-65" value="&lt;span style=&quot;text-align: left;&quot;&gt;Produktbeschreibung&lt;/span&gt;" style="rounded=0;whiteSpace=wrap;html=1;" vertex="1" parent="1">
          <mxGeometry x="320" y="410" width="120" height="30" as="geometry" />
        </mxCell>
        <mxCell id="t94pPOiG23g_uNMkArds-66" style="edgeStyle=orthogonalEdgeStyle;orthogonalLoop=1;jettySize=auto;html=1;entryX=0;entryY=0.5;entryDx=0;entryDy=0;rounded=0;endArrow=none;endFill=0;" edge="1" parent="1" source="t94pPOiG23g_uNMkArds-67" target="t94pPOiG23g_uNMkArds-65">
          <mxGeometry relative="1" as="geometry" />
        </mxCell>
        <mxCell id="t94pPOiG23g_uNMkArds-67" value="PPB" style="rhombus;whiteSpace=wrap;html=1;" vertex="1" parent="1">
          <mxGeometry x="120" y="410" width="80" height="30" as="geometry" />
        </mxCell>
        <object label="" id="t94pPOiG23g_uNMkArds-68">
          <mxCell style="edgeStyle=orthogonalEdgeStyle;orthogonalLoop=1;jettySize=auto;html=1;entryX=0;entryY=0.5;entryDx=0;entryDy=0;rounded=0;endArrow=none;endFill=0;exitX=1;exitY=0.5;exitDx=0;exitDy=0;" edge="1" parent="1" source="t94pPOiG23g_uNMkArds-64">
            <mxGeometry relative="1" as="geometry">
              <mxPoint x="80" y="424.83" as="sourcePoint" />
              <mxPoint x="120" y="424.83000000000004" as="targetPoint" />
            </mxGeometry>
          </mxCell>
        </object>
        <mxCell id="t94pPOiG23g_uNMkArds-69" value="&lt;font style=&quot;font-size: 10px;&quot;&gt;1:1&lt;/font&gt;" style="text;whiteSpace=wrap;html=1;" vertex="1" parent="1">
          <mxGeometry x="80" y="400" width="20" height="20" as="geometry" />
        </mxCell>
        <mxCell id="t94pPOiG23g_uNMkArds-70" value="&lt;font style=&quot;font-size: 10px;&quot;&gt;1:1&lt;/font&gt;" style="text;whiteSpace=wrap;html=1;" vertex="1" parent="1">
          <mxGeometry x="245" y="400" width="20" height="20" as="geometry" />
        </mxCell>
        <mxCell id="t94pPOiG23g_uNMkArds-71" value="&lt;font style=&quot;font-size: 10px;&quot;&gt;produkt&lt;/font&gt;" style="text;whiteSpace=wrap;html=1;" vertex="1" parent="1">
          <mxGeometry x="75" y="420" width="50" height="20" as="geometry" />
        </mxCell>
        <mxCell id="t94pPOiG23g_uNMkArds-72" value="&lt;span style=&quot;text-align: left;&quot;&gt;produktbeschreibung&lt;/span&gt;" style="text;whiteSpace=wrap;html=1;align=center;" vertex="1" parent="1">
          <mxGeometry x="230" y="420" width="50" height="20" as="geometry" />
        </mxCell>
        <mxCell id="t94pPOiG23g_uNMkArds-73" value="Jedes Produkt hat eine Produktbeschreibung" style="text;whiteSpace=wrap;html=1;" vertex="1" parent="1">
          <mxGeometry x="20" y="370" width="250" height="20" as="geometry" />
        </mxCell>
        <mxCell id="t94pPOiG23g_uNMkArds-78" value="Jedes Bestellung hat eine Lieferadresse" style="text;whiteSpace=wrap;html=1;" vertex="1" parent="1">
          <mxGeometry x="500" y="50" width="220" height="20" as="geometry" />
        </mxCell>
        <mxCell id="t94pPOiG23g_uNMkArds-79" value="Bestellung" style="rounded=0;whiteSpace=wrap;html=1;" vertex="1" parent="1">
          <mxGeometry x="480" y="90" width="60" height="30" as="geometry" />
        </mxCell>
        <mxCell id="t94pPOiG23g_uNMkArds-80" value="Lieferadresse" style="rounded=0;whiteSpace=wrap;html=1;" vertex="1" parent="1">
          <mxGeometry x="747" y="90" width="80" height="30" as="geometry" />
        </mxCell>
        <mxCell id="t94pPOiG23g_uNMkArds-81" style="edgeStyle=orthogonalEdgeStyle;orthogonalLoop=1;jettySize=auto;html=1;entryX=0;entryY=0.5;entryDx=0;entryDy=0;rounded=0;endArrow=none;endFill=0;" edge="1" parent="1" source="t94pPOiG23g_uNMkArds-82" target="t94pPOiG23g_uNMkArds-80">
          <mxGeometry relative="1" as="geometry" />
        </mxCell>
        <mxCell id="t94pPOiG23g_uNMkArds-82" value="BLAdresse" style="rhombus;whiteSpace=wrap;html=1;" vertex="1" parent="1">
          <mxGeometry x="600" y="90" width="80" height="30" as="geometry" />
        </mxCell>
        <object label="" id="t94pPOiG23g_uNMkArds-83">
          <mxCell style="edgeStyle=orthogonalEdgeStyle;orthogonalLoop=1;jettySize=auto;html=1;entryX=0;entryY=0.5;entryDx=0;entryDy=0;rounded=0;endArrow=none;endFill=0;exitX=1;exitY=0.5;exitDx=0;exitDy=0;" edge="1" parent="1" source="t94pPOiG23g_uNMkArds-79">
            <mxGeometry relative="1" as="geometry">
              <mxPoint x="560" y="104.83" as="sourcePoint" />
              <mxPoint x="600" y="104.83000000000004" as="targetPoint" />
            </mxGeometry>
          </mxCell>
        </object>
        <mxCell id="t94pPOiG23g_uNMkArds-84" value="&lt;font style=&quot;font-size: 10px;&quot;&gt;1:1&lt;/font&gt;" style="text;whiteSpace=wrap;html=1;" vertex="1" parent="1">
          <mxGeometry x="565" y="80" width="20" height="20" as="geometry" />
        </mxCell>
        <mxCell id="t94pPOiG23g_uNMkArds-85" value="&lt;font style=&quot;font-size: 10px;&quot;&gt;1:*&lt;/font&gt;" style="text;whiteSpace=wrap;html=1;" vertex="1" parent="1">
          <mxGeometry x="700" y="80" width="20" height="20" as="geometry" />
        </mxCell>
        <mxCell id="t94pPOiG23g_uNMkArds-86" value="&lt;font style=&quot;font-size: 10px;&quot;&gt;bestellung&lt;/font&gt;" style="text;whiteSpace=wrap;html=1;align=center;" vertex="1" parent="1">
          <mxGeometry x="550" y="100" width="50" height="20" as="geometry" />
        </mxCell>
        <mxCell id="t94pPOiG23g_uNMkArds-87" value="&lt;font style=&quot;font-size: 10px;&quot;&gt;Lieferadresse&lt;/font&gt;" style="text;whiteSpace=wrap;html=1;" vertex="1" parent="1">
          <mxGeometry x="680" y="100" width="60" height="20" as="geometry" />
        </mxCell>
        <mxCell id="t94pPOiG23g_uNMkArds-89" value="Jedes Bestellung hat Kunden ID" style="text;whiteSpace=wrap;html=1;" vertex="1" parent="1">
          <mxGeometry x="500" y="130" width="220" height="20" as="geometry" />
        </mxCell>
        <mxCell id="t94pPOiG23g_uNMkArds-90" value="Bestellung" style="rounded=0;whiteSpace=wrap;html=1;" vertex="1" parent="1">
          <mxGeometry x="480" y="170" width="60" height="30" as="geometry" />
        </mxCell>
        <mxCell id="t94pPOiG23g_uNMkArds-91" value="KundenID" style="rounded=0;whiteSpace=wrap;html=1;" vertex="1" parent="1">
          <mxGeometry x="747" y="170" width="80" height="30" as="geometry" />
        </mxCell>
        <mxCell id="t94pPOiG23g_uNMkArds-92" style="edgeStyle=orthogonalEdgeStyle;orthogonalLoop=1;jettySize=auto;html=1;entryX=0;entryY=0.5;entryDx=0;entryDy=0;rounded=0;endArrow=none;endFill=0;" edge="1" parent="1" source="t94pPOiG23g_uNMkArds-93" target="t94pPOiG23g_uNMkArds-91">
          <mxGeometry relative="1" as="geometry" />
        </mxCell>
        <mxCell id="t94pPOiG23g_uNMkArds-93" value="BKID" style="rhombus;whiteSpace=wrap;html=1;" vertex="1" parent="1">
          <mxGeometry x="600" y="170" width="80" height="30" as="geometry" />
        </mxCell>
        <object label="" id="t94pPOiG23g_uNMkArds-94">
          <mxCell style="edgeStyle=orthogonalEdgeStyle;orthogonalLoop=1;jettySize=auto;html=1;entryX=0;entryY=0.5;entryDx=0;entryDy=0;rounded=0;endArrow=none;endFill=0;exitX=1;exitY=0.5;exitDx=0;exitDy=0;" edge="1" parent="1" source="t94pPOiG23g_uNMkArds-90">
            <mxGeometry relative="1" as="geometry">
              <mxPoint x="560" y="184.82999999999998" as="sourcePoint" />
              <mxPoint x="600" y="184.83000000000004" as="targetPoint" />
            </mxGeometry>
          </mxCell>
        </object>
        <mxCell id="t94pPOiG23g_uNMkArds-95" value="&lt;font style=&quot;font-size: 10px;&quot;&gt;1:1&lt;/font&gt;" style="text;whiteSpace=wrap;html=1;" vertex="1" parent="1">
          <mxGeometry x="565" y="160" width="20" height="20" as="geometry" />
        </mxCell>
        <mxCell id="t94pPOiG23g_uNMkArds-96" value="&lt;font style=&quot;font-size: 10px;&quot;&gt;1:*&lt;/font&gt;" style="text;whiteSpace=wrap;html=1;" vertex="1" parent="1">
          <mxGeometry x="700" y="160" width="20" height="20" as="geometry" />
        </mxCell>
        <mxCell id="t94pPOiG23g_uNMkArds-97" value="&lt;font style=&quot;font-size: 10px;&quot;&gt;bestellung&lt;/font&gt;" style="text;whiteSpace=wrap;html=1;align=center;" vertex="1" parent="1">
          <mxGeometry x="550" y="180" width="50" height="20" as="geometry" />
        </mxCell>
        <mxCell id="t94pPOiG23g_uNMkArds-98" value="&lt;span style=&quot;font-size: 10px;&quot;&gt;kundenID&lt;/span&gt;" style="text;whiteSpace=wrap;html=1;align=center;" vertex="1" parent="1">
          <mxGeometry x="680" y="180" width="60" height="20" as="geometry" />
        </mxCell>
        <mxCell id="t94pPOiG23g_uNMkArds-99" value="Jedes Bestellung hat Vor- und Nachname" style="text;whiteSpace=wrap;html=1;" vertex="1" parent="1">
          <mxGeometry x="500" y="210" width="260" height="20" as="geometry" />
        </mxCell>
        <mxCell id="t94pPOiG23g_uNMkArds-100" value="Bestellung" style="rounded=0;whiteSpace=wrap;html=1;" vertex="1" parent="1">
          <mxGeometry x="480" y="250" width="60" height="30" as="geometry" />
        </mxCell>
        <mxCell id="t94pPOiG23g_uNMkArds-101" value="Vorname" style="rounded=0;whiteSpace=wrap;html=1;" vertex="1" parent="1">
          <mxGeometry x="747" y="250" width="80" height="30" as="geometry" />
        </mxCell>
        <mxCell id="t94pPOiG23g_uNMkArds-102" style="edgeStyle=orthogonalEdgeStyle;orthogonalLoop=1;jettySize=auto;html=1;entryX=0;entryY=0.5;entryDx=0;entryDy=0;rounded=0;endArrow=none;endFill=0;" edge="1" parent="1" source="t94pPOiG23g_uNMkArds-103" target="t94pPOiG23g_uNMkArds-101">
          <mxGeometry relative="1" as="geometry" />
        </mxCell>
        <mxCell id="t94pPOiG23g_uNMkArds-103" value="BVName" style="rhombus;whiteSpace=wrap;html=1;" vertex="1" parent="1">
          <mxGeometry x="600" y="250" width="80" height="30" as="geometry" />
        </mxCell>
        <object label="" id="t94pPOiG23g_uNMkArds-104">
          <mxCell style="edgeStyle=orthogonalEdgeStyle;orthogonalLoop=1;jettySize=auto;html=1;entryX=0;entryY=0.5;entryDx=0;entryDy=0;rounded=0;endArrow=none;endFill=0;exitX=1;exitY=0.5;exitDx=0;exitDy=0;" edge="1" parent="1" source="t94pPOiG23g_uNMkArds-100">
            <mxGeometry relative="1" as="geometry">
              <mxPoint x="560" y="264.83" as="sourcePoint" />
              <mxPoint x="600" y="264.83000000000004" as="targetPoint" />
            </mxGeometry>
          </mxCell>
        </object>
        <mxCell id="t94pPOiG23g_uNMkArds-105" value="&lt;font style=&quot;font-size: 10px;&quot;&gt;1:1&lt;/font&gt;" style="text;whiteSpace=wrap;html=1;" vertex="1" parent="1">
          <mxGeometry x="565" y="240" width="20" height="20" as="geometry" />
        </mxCell>
        <mxCell id="t94pPOiG23g_uNMkArds-106" value="&lt;font style=&quot;font-size: 10px;&quot;&gt;1:*&lt;/font&gt;" style="text;whiteSpace=wrap;html=1;" vertex="1" parent="1">
          <mxGeometry x="700" y="240" width="20" height="20" as="geometry" />
        </mxCell>
        <mxCell id="t94pPOiG23g_uNMkArds-107" value="&lt;font style=&quot;font-size: 10px;&quot;&gt;bestellung&lt;/font&gt;" style="text;whiteSpace=wrap;html=1;align=center;" vertex="1" parent="1">
          <mxGeometry x="550" y="260" width="50" height="20" as="geometry" />
        </mxCell>
        <mxCell id="t94pPOiG23g_uNMkArds-108" value="&lt;span style=&quot;font-size: 10px;&quot;&gt;vorname&lt;/span&gt;" style="text;whiteSpace=wrap;html=1;align=center;" vertex="1" parent="1">
          <mxGeometry x="680" y="260" width="60" height="20" as="geometry" />
        </mxCell>
        <mxCell id="t94pPOiG23g_uNMkArds-109" value="Bestellung" style="rounded=0;whiteSpace=wrap;html=1;" vertex="1" parent="1">
          <mxGeometry x="480" y="290" width="60" height="30" as="geometry" />
        </mxCell>
        <mxCell id="t94pPOiG23g_uNMkArds-110" value="Nachname" style="rounded=0;whiteSpace=wrap;html=1;" vertex="1" parent="1">
          <mxGeometry x="747" y="290" width="80" height="30" as="geometry" />
        </mxCell>
        <mxCell id="t94pPOiG23g_uNMkArds-111" style="edgeStyle=orthogonalEdgeStyle;orthogonalLoop=1;jettySize=auto;html=1;entryX=0;entryY=0.5;entryDx=0;entryDy=0;rounded=0;endArrow=none;endFill=0;" edge="1" parent="1" source="t94pPOiG23g_uNMkArds-112" target="t94pPOiG23g_uNMkArds-110">
          <mxGeometry relative="1" as="geometry" />
        </mxCell>
        <mxCell id="t94pPOiG23g_uNMkArds-112" value="BNName" style="rhombus;whiteSpace=wrap;html=1;" vertex="1" parent="1">
          <mxGeometry x="600" y="290" width="80" height="30" as="geometry" />
        </mxCell>
        <object label="" id="t94pPOiG23g_uNMkArds-113">
          <mxCell style="edgeStyle=orthogonalEdgeStyle;orthogonalLoop=1;jettySize=auto;html=1;entryX=0;entryY=0.5;entryDx=0;entryDy=0;rounded=0;endArrow=none;endFill=0;exitX=1;exitY=0.5;exitDx=0;exitDy=0;" edge="1" parent="1" source="t94pPOiG23g_uNMkArds-109">
            <mxGeometry relative="1" as="geometry">
              <mxPoint x="560" y="304.83" as="sourcePoint" />
              <mxPoint x="600" y="304.83000000000004" as="targetPoint" />
            </mxGeometry>
          </mxCell>
        </object>
        <mxCell id="t94pPOiG23g_uNMkArds-114" value="&lt;font style=&quot;font-size: 10px;&quot;&gt;bestellung&lt;/font&gt;" style="text;whiteSpace=wrap;html=1;align=center;" vertex="1" parent="1">
          <mxGeometry x="550" y="300" width="50" height="20" as="geometry" />
        </mxCell>
        <mxCell id="t94pPOiG23g_uNMkArds-115" value="&lt;span style=&quot;font-size: 10px;&quot;&gt;nachname&lt;/span&gt;" style="text;whiteSpace=wrap;html=1;align=center;" vertex="1" parent="1">
          <mxGeometry x="680" y="300" width="60" height="20" as="geometry" />
        </mxCell>
        <mxCell id="t94pPOiG23g_uNMkArds-116" value="Jedes Bestellung hat einen Preis" style="text;whiteSpace=wrap;html=1;" vertex="1" parent="1">
          <mxGeometry x="500" y="330" width="220" height="20" as="geometry" />
        </mxCell>
        <mxCell id="t94pPOiG23g_uNMkArds-117" value="Bestellung" style="rounded=0;whiteSpace=wrap;html=1;" vertex="1" parent="1">
          <mxGeometry x="480" y="370" width="60" height="30" as="geometry" />
        </mxCell>
        <mxCell id="t94pPOiG23g_uNMkArds-118" value="Preis" style="rounded=0;whiteSpace=wrap;html=1;" vertex="1" parent="1">
          <mxGeometry x="747" y="370" width="80" height="30" as="geometry" />
        </mxCell>
        <mxCell id="t94pPOiG23g_uNMkArds-119" style="edgeStyle=orthogonalEdgeStyle;orthogonalLoop=1;jettySize=auto;html=1;entryX=0;entryY=0.5;entryDx=0;entryDy=0;rounded=0;endArrow=none;endFill=0;" edge="1" parent="1" source="t94pPOiG23g_uNMkArds-120" target="t94pPOiG23g_uNMkArds-118">
          <mxGeometry relative="1" as="geometry" />
        </mxCell>
        <mxCell id="t94pPOiG23g_uNMkArds-120" value="BPreis" style="rhombus;whiteSpace=wrap;html=1;" vertex="1" parent="1">
          <mxGeometry x="600" y="370" width="80" height="30" as="geometry" />
        </mxCell>
        <object label="" id="t94pPOiG23g_uNMkArds-121">
          <mxCell style="edgeStyle=orthogonalEdgeStyle;orthogonalLoop=1;jettySize=auto;html=1;entryX=0;entryY=0.5;entryDx=0;entryDy=0;rounded=0;endArrow=none;endFill=0;exitX=1;exitY=0.5;exitDx=0;exitDy=0;" edge="1" parent="1" source="t94pPOiG23g_uNMkArds-117">
            <mxGeometry relative="1" as="geometry">
              <mxPoint x="560" y="384.83" as="sourcePoint" />
              <mxPoint x="600" y="384.83000000000004" as="targetPoint" />
            </mxGeometry>
          </mxCell>
        </object>
        <mxCell id="t94pPOiG23g_uNMkArds-122" value="&lt;font style=&quot;font-size: 10px;&quot;&gt;1:1&lt;/font&gt;" style="text;whiteSpace=wrap;html=1;" vertex="1" parent="1">
          <mxGeometry x="565" y="360" width="20" height="20" as="geometry" />
        </mxCell>
        <mxCell id="t94pPOiG23g_uNMkArds-123" value="&lt;font style=&quot;font-size: 10px;&quot;&gt;1:*&lt;/font&gt;" style="text;whiteSpace=wrap;html=1;" vertex="1" parent="1">
          <mxGeometry x="700" y="360" width="20" height="20" as="geometry" />
        </mxCell>
        <mxCell id="t94pPOiG23g_uNMkArds-124" value="&lt;font style=&quot;font-size: 10px;&quot;&gt;bestellung&lt;/font&gt;" style="text;whiteSpace=wrap;html=1;align=center;" vertex="1" parent="1">
          <mxGeometry x="550" y="380" width="50" height="20" as="geometry" />
        </mxCell>
        <mxCell id="t94pPOiG23g_uNMkArds-125" value="&lt;span style=&quot;font-size: 10px;&quot;&gt;preis&lt;/span&gt;" style="text;whiteSpace=wrap;html=1;align=center;" vertex="1" parent="1">
          <mxGeometry x="680" y="380" width="60" height="20" as="geometry" />
        </mxCell>
        <mxCell id="t94pPOiG23g_uNMkArds-126" value="Jedes Bestellung hat einen Produkt_ID" style="text;whiteSpace=wrap;html=1;" vertex="1" parent="1">
          <mxGeometry x="500" y="410" width="220" height="20" as="geometry" />
        </mxCell>
        <mxCell id="t94pPOiG23g_uNMkArds-127" value="Bestellung" style="rounded=0;whiteSpace=wrap;html=1;" vertex="1" parent="1">
          <mxGeometry x="480" y="450" width="60" height="30" as="geometry" />
        </mxCell>
        <mxCell id="t94pPOiG23g_uNMkArds-128" value="ProduktID" style="rounded=0;whiteSpace=wrap;html=1;" vertex="1" parent="1">
          <mxGeometry x="747" y="450" width="80" height="30" as="geometry" />
        </mxCell>
        <mxCell id="t94pPOiG23g_uNMkArds-129" style="edgeStyle=orthogonalEdgeStyle;orthogonalLoop=1;jettySize=auto;html=1;entryX=0;entryY=0.5;entryDx=0;entryDy=0;rounded=0;endArrow=none;endFill=0;" edge="1" parent="1" source="t94pPOiG23g_uNMkArds-130" target="t94pPOiG23g_uNMkArds-128">
          <mxGeometry relative="1" as="geometry" />
        </mxCell>
        <mxCell id="t94pPOiG23g_uNMkArds-130" value="BPID" style="rhombus;whiteSpace=wrap;html=1;" vertex="1" parent="1">
          <mxGeometry x="600" y="450" width="80" height="30" as="geometry" />
        </mxCell>
        <object label="" id="t94pPOiG23g_uNMkArds-131">
          <mxCell style="edgeStyle=orthogonalEdgeStyle;orthogonalLoop=1;jettySize=auto;html=1;entryX=0;entryY=0.5;entryDx=0;entryDy=0;rounded=0;endArrow=none;endFill=0;exitX=1;exitY=0.5;exitDx=0;exitDy=0;" edge="1" parent="1" source="t94pPOiG23g_uNMkArds-127">
            <mxGeometry relative="1" as="geometry">
              <mxPoint x="560" y="464.83" as="sourcePoint" />
              <mxPoint x="600" y="464.83000000000004" as="targetPoint" />
            </mxGeometry>
          </mxCell>
        </object>
        <mxCell id="t94pPOiG23g_uNMkArds-132" value="&lt;font style=&quot;font-size: 10px;&quot;&gt;1:1&lt;/font&gt;" style="text;whiteSpace=wrap;html=1;" vertex="1" parent="1">
          <mxGeometry x="565" y="440" width="20" height="20" as="geometry" />
        </mxCell>
        <mxCell id="t94pPOiG23g_uNMkArds-133" value="&lt;font style=&quot;font-size: 10px;&quot;&gt;1:1&lt;/font&gt;" style="text;whiteSpace=wrap;html=1;" vertex="1" parent="1">
          <mxGeometry x="700" y="440" width="20" height="20" as="geometry" />
        </mxCell>
        <mxCell id="t94pPOiG23g_uNMkArds-134" value="&lt;font style=&quot;font-size: 10px;&quot;&gt;bestellung&lt;/font&gt;" style="text;whiteSpace=wrap;html=1;align=center;" vertex="1" parent="1">
          <mxGeometry x="550" y="460" width="50" height="20" as="geometry" />
        </mxCell>
        <mxCell id="t94pPOiG23g_uNMkArds-135" value="&lt;span style=&quot;font-size: 10px;&quot;&gt;produktID&lt;/span&gt;" style="text;whiteSpace=wrap;html=1;align=center;" vertex="1" parent="1">
          <mxGeometry x="680" y="460" width="60" height="20" as="geometry" />
        </mxCell>
        <mxCell id="t94pPOiG23g_uNMkArds-136" value="Jedes Bestellung hat ein Bestelldatum" style="text;whiteSpace=wrap;html=1;" vertex="1" parent="1">
          <mxGeometry x="500" y="490" width="220" height="20" as="geometry" />
        </mxCell>
        <mxCell id="t94pPOiG23g_uNMkArds-137" value="Bestellung" style="rounded=0;whiteSpace=wrap;html=1;" vertex="1" parent="1">
          <mxGeometry x="480" y="530" width="60" height="30" as="geometry" />
        </mxCell>
        <mxCell id="t94pPOiG23g_uNMkArds-138" value="Bestelldatum" style="rounded=0;whiteSpace=wrap;html=1;" vertex="1" parent="1">
          <mxGeometry x="747" y="530" width="80" height="30" as="geometry" />
        </mxCell>
        <mxCell id="t94pPOiG23g_uNMkArds-139" style="edgeStyle=orthogonalEdgeStyle;orthogonalLoop=1;jettySize=auto;html=1;entryX=0;entryY=0.5;entryDx=0;entryDy=0;rounded=0;endArrow=none;endFill=0;" edge="1" parent="1" source="t94pPOiG23g_uNMkArds-140" target="t94pPOiG23g_uNMkArds-138">
          <mxGeometry relative="1" as="geometry" />
        </mxCell>
        <mxCell id="t94pPOiG23g_uNMkArds-140" value="BBDatum" style="rhombus;whiteSpace=wrap;html=1;" vertex="1" parent="1">
          <mxGeometry x="600" y="530" width="80" height="30" as="geometry" />
        </mxCell>
        <object label="" id="t94pPOiG23g_uNMkArds-141">
          <mxCell style="edgeStyle=orthogonalEdgeStyle;orthogonalLoop=1;jettySize=auto;html=1;entryX=0;entryY=0.5;entryDx=0;entryDy=0;rounded=0;endArrow=none;endFill=0;exitX=1;exitY=0.5;exitDx=0;exitDy=0;" edge="1" parent="1" source="t94pPOiG23g_uNMkArds-137">
            <mxGeometry relative="1" as="geometry">
              <mxPoint x="560" y="544.8299999999999" as="sourcePoint" />
              <mxPoint x="600" y="544.8299999999999" as="targetPoint" />
            </mxGeometry>
          </mxCell>
        </object>
        <mxCell id="t94pPOiG23g_uNMkArds-142" value="&lt;font style=&quot;font-size: 10px;&quot;&gt;1:1&lt;/font&gt;" style="text;whiteSpace=wrap;html=1;" vertex="1" parent="1">
          <mxGeometry x="565" y="520" width="20" height="20" as="geometry" />
        </mxCell>
        <mxCell id="t94pPOiG23g_uNMkArds-143" value="&lt;span style=&quot;font-size: 10px;&quot;&gt;1:*&lt;/span&gt;" style="text;whiteSpace=wrap;html=1;" vertex="1" parent="1">
          <mxGeometry x="700" y="520" width="20" height="20" as="geometry" />
        </mxCell>
        <mxCell id="t94pPOiG23g_uNMkArds-144" value="&lt;font style=&quot;font-size: 10px;&quot;&gt;bestellung&lt;/font&gt;" style="text;whiteSpace=wrap;html=1;align=center;" vertex="1" parent="1">
          <mxGeometry x="550" y="540" width="50" height="20" as="geometry" />
        </mxCell>
        <mxCell id="t94pPOiG23g_uNMkArds-145" value="&lt;span style=&quot;font-size: 10px;&quot;&gt;produktID&lt;/span&gt;" style="text;whiteSpace=wrap;html=1;align=center;" vertex="1" parent="1">
          <mxGeometry x="680" y="540" width="60" height="20" as="geometry" />
        </mxCell>
        <mxCell id="t94pPOiG23g_uNMkArds-146" value="&lt;font style=&quot;font-size: 20px;&quot;&gt;&lt;b&gt;Produkt&lt;/b&gt;&lt;/font&gt;" style="text;whiteSpace=wrap;html=1;align=center;" vertex="1" parent="1">
          <mxGeometry x="50" y="10" width="220" height="30" as="geometry" />
        </mxCell>
        <mxCell id="t94pPOiG23g_uNMkArds-147" value="&lt;span style=&quot;font-size: 20px;&quot;&gt;&lt;b&gt;Bestellung&lt;/b&gt;&lt;/span&gt;" style="text;whiteSpace=wrap;html=1;align=center;" vertex="1" parent="1">
          <mxGeometry x="530" y="10" width="220" height="30" as="geometry" />
        </mxCell>
        <mxCell id="t94pPOiG23g_uNMkArds-148" value="Firma hat mehrere Lager" style="text;whiteSpace=wrap;html=1;" vertex="1" parent="1">
          <mxGeometry x="20" y="530" width="220" height="20" as="geometry" />
        </mxCell>
        <mxCell id="t94pPOiG23g_uNMkArds-149" value="Firma" style="rounded=0;whiteSpace=wrap;html=1;" vertex="1" parent="1">
          <mxGeometry y="570" width="60" height="30" as="geometry" />
        </mxCell>
        <mxCell id="t94pPOiG23g_uNMkArds-150" value="Lager" style="rounded=0;whiteSpace=wrap;html=1;" vertex="1" parent="1">
          <mxGeometry x="260" y="570" width="60" height="30" as="geometry" />
        </mxCell>
        <mxCell id="t94pPOiG23g_uNMkArds-151" style="edgeStyle=orthogonalEdgeStyle;orthogonalLoop=1;jettySize=auto;html=1;entryX=0;entryY=0.5;entryDx=0;entryDy=0;rounded=0;endArrow=none;endFill=0;" edge="1" parent="1" source="t94pPOiG23g_uNMkArds-152" target="t94pPOiG23g_uNMkArds-150">
          <mxGeometry relative="1" as="geometry" />
        </mxCell>
        <mxCell id="t94pPOiG23g_uNMkArds-152" value="FLager" style="rhombus;whiteSpace=wrap;html=1;" vertex="1" parent="1">
          <mxGeometry x="120" y="570" width="80" height="30" as="geometry" />
        </mxCell>
        <object label="" id="t94pPOiG23g_uNMkArds-153">
          <mxCell style="edgeStyle=orthogonalEdgeStyle;orthogonalLoop=1;jettySize=auto;html=1;entryX=0;entryY=0.5;entryDx=0;entryDy=0;rounded=0;endArrow=none;endFill=0;exitX=1;exitY=0.5;exitDx=0;exitDy=0;" edge="1" parent="1" source="t94pPOiG23g_uNMkArds-149">
            <mxGeometry relative="1" as="geometry">
              <mxPoint x="80" y="584.83" as="sourcePoint" />
              <mxPoint x="120" y="584.8299999999999" as="targetPoint" />
            </mxGeometry>
          </mxCell>
        </object>
        <mxCell id="t94pPOiG23g_uNMkArds-154" value="&lt;font style=&quot;font-size: 10px;&quot;&gt;1:*&lt;/font&gt;" style="text;whiteSpace=wrap;html=1;" vertex="1" parent="1">
          <mxGeometry x="80" y="560" width="20" height="20" as="geometry" />
        </mxCell>
        <mxCell id="t94pPOiG23g_uNMkArds-155" value="&lt;font style=&quot;font-size: 10px;&quot;&gt;1:1&lt;/font&gt;" style="text;whiteSpace=wrap;html=1;" vertex="1" parent="1">
          <mxGeometry x="220" y="560" width="20" height="20" as="geometry" />
        </mxCell>
        <mxCell id="t94pPOiG23g_uNMkArds-156" value="&lt;span style=&quot;font-size: 10px;&quot;&gt;firma&lt;/span&gt;" style="text;whiteSpace=wrap;html=1;" vertex="1" parent="1">
          <mxGeometry x="75" y="580" width="50" height="20" as="geometry" />
        </mxCell>
        <mxCell id="t94pPOiG23g_uNMkArds-157" value="&lt;font style=&quot;font-size: 10px;&quot;&gt;lager&lt;/font&gt;" style="text;whiteSpace=wrap;html=1;" vertex="1" parent="1">
          <mxGeometry x="205" y="580" width="50" height="20" as="geometry" />
        </mxCell>
        <mxCell id="t94pPOiG23g_uNMkArds-158" value="&lt;font style=&quot;font-size: 20px;&quot;&gt;&lt;b&gt;Lager&lt;/b&gt;&lt;/font&gt;" style="text;whiteSpace=wrap;html=1;align=center;" vertex="1" parent="1">
          <mxGeometry x="50" y="490" width="220" height="30" as="geometry" />
        </mxCell>
        <mxCell id="t94pPOiG23g_uNMkArds-159" style="edgeStyle=orthogonalEdgeStyle;rounded=0;orthogonalLoop=1;jettySize=auto;html=1;exitX=0.5;exitY=0;exitDx=0;exitDy=0;entryX=0.25;entryY=0;entryDx=0;entryDy=0;fontSize=20;endArrow=none;endFill=0;" edge="1" parent="1" source="t94pPOiG23g_uNMkArds-106" target="t94pPOiG23g_uNMkArds-106">
          <mxGeometry relative="1" as="geometry" />
        </mxCell>
        <mxCell id="t94pPOiG23g_uNMkArds-160" value="&lt;font style=&quot;font-size: 10px;&quot;&gt;1:*&lt;/font&gt;" style="text;whiteSpace=wrap;html=1;" vertex="1" parent="1">
          <mxGeometry x="700" y="280" width="20" height="20" as="geometry" />
        </mxCell>
        <mxCell id="t94pPOiG23g_uNMkArds-170" value="Jedes Lager hat einen Name" style="text;whiteSpace=wrap;html=1;" vertex="1" parent="1">
          <mxGeometry x="20" y="610" width="220" height="20" as="geometry" />
        </mxCell>
        <mxCell id="t94pPOiG23g_uNMkArds-171" value="&lt;span style=&quot;text-align: left;&quot;&gt;Lager&amp;nbsp;&lt;/span&gt;" style="rounded=0;whiteSpace=wrap;html=1;" vertex="1" parent="1">
          <mxGeometry y="650" width="60" height="30" as="geometry" />
        </mxCell>
        <mxCell id="t94pPOiG23g_uNMkArds-172" value="Lager" style="rounded=0;whiteSpace=wrap;html=1;" vertex="1" parent="1">
          <mxGeometry x="260" y="650" width="60" height="30" as="geometry" />
        </mxCell>
        <mxCell id="t94pPOiG23g_uNMkArds-173" style="edgeStyle=orthogonalEdgeStyle;orthogonalLoop=1;jettySize=auto;html=1;entryX=0;entryY=0.5;entryDx=0;entryDy=0;rounded=0;endArrow=none;endFill=0;" edge="1" parent="1" source="t94pPOiG23g_uNMkArds-174" target="t94pPOiG23g_uNMkArds-172">
          <mxGeometry relative="1" as="geometry" />
        </mxCell>
        <mxCell id="t94pPOiG23g_uNMkArds-174" value="FLager" style="rhombus;whiteSpace=wrap;html=1;" vertex="1" parent="1">
          <mxGeometry x="120" y="650" width="80" height="30" as="geometry" />
        </mxCell>
        <object label="" id="t94pPOiG23g_uNMkArds-175">
          <mxCell style="edgeStyle=orthogonalEdgeStyle;orthogonalLoop=1;jettySize=auto;html=1;entryX=0;entryY=0.5;entryDx=0;entryDy=0;rounded=0;endArrow=none;endFill=0;exitX=1;exitY=0.5;exitDx=0;exitDy=0;" edge="1" parent="1" source="t94pPOiG23g_uNMkArds-171">
            <mxGeometry relative="1" as="geometry">
              <mxPoint x="80" y="664.83" as="sourcePoint" />
              <mxPoint x="120" y="664.8299999999999" as="targetPoint" />
            </mxGeometry>
          </mxCell>
        </object>
        <mxCell id="t94pPOiG23g_uNMkArds-176" value="&lt;span style=&quot;font-size: 10px;&quot;&gt;1:1&lt;/span&gt;" style="text;whiteSpace=wrap;html=1;" vertex="1" parent="1">
          <mxGeometry x="80" y="640" width="20" height="20" as="geometry" />
        </mxCell>
        <mxCell id="t94pPOiG23g_uNMkArds-177" value="&lt;font style=&quot;font-size: 10px;&quot;&gt;1:*&lt;/font&gt;" style="text;whiteSpace=wrap;html=1;" vertex="1" parent="1">
          <mxGeometry x="220" y="640" width="20" height="20" as="geometry" />
        </mxCell>
        <mxCell id="t94pPOiG23g_uNMkArds-178" value="&lt;span style=&quot;font-size: 10px;&quot;&gt;lager&lt;/span&gt;" style="text;whiteSpace=wrap;html=1;" vertex="1" parent="1">
          <mxGeometry x="75" y="660" width="50" height="20" as="geometry" />
        </mxCell>
        <mxCell id="t94pPOiG23g_uNMkArds-179" value="&lt;font style=&quot;font-size: 10px;&quot;&gt;lager&lt;/font&gt;" style="text;whiteSpace=wrap;html=1;" vertex="1" parent="1">
          <mxGeometry x="205" y="660" width="50" height="20" as="geometry" />
        </mxCell>
        <mxCell id="t94pPOiG23g_uNMkArds-180" value="Jedes Lager hat eine Adresse" style="text;whiteSpace=wrap;html=1;" vertex="1" parent="1">
          <mxGeometry x="20" y="690" width="220" height="20" as="geometry" />
        </mxCell>
        <mxCell id="t94pPOiG23g_uNMkArds-181" value="&lt;span style=&quot;text-align: left;&quot;&gt;Lager&amp;nbsp;&lt;/span&gt;" style="rounded=0;whiteSpace=wrap;html=1;" vertex="1" parent="1">
          <mxGeometry y="730" width="60" height="30" as="geometry" />
        </mxCell>
        <mxCell id="t94pPOiG23g_uNMkArds-182" value="Lager" style="rounded=0;whiteSpace=wrap;html=1;" vertex="1" parent="1">
          <mxGeometry x="260" y="730" width="60" height="30" as="geometry" />
        </mxCell>
        <mxCell id="t94pPOiG23g_uNMkArds-183" style="edgeStyle=orthogonalEdgeStyle;orthogonalLoop=1;jettySize=auto;html=1;entryX=0;entryY=0.5;entryDx=0;entryDy=0;rounded=0;endArrow=none;endFill=0;" edge="1" parent="1" source="t94pPOiG23g_uNMkArds-184" target="t94pPOiG23g_uNMkArds-182">
          <mxGeometry relative="1" as="geometry" />
        </mxCell>
        <mxCell id="t94pPOiG23g_uNMkArds-184" value="FLager" style="rhombus;whiteSpace=wrap;html=1;" vertex="1" parent="1">
          <mxGeometry x="120" y="730" width="80" height="30" as="geometry" />
        </mxCell>
        <object label="" id="t94pPOiG23g_uNMkArds-185">
          <mxCell style="edgeStyle=orthogonalEdgeStyle;orthogonalLoop=1;jettySize=auto;html=1;entryX=0;entryY=0.5;entryDx=0;entryDy=0;rounded=0;endArrow=none;endFill=0;exitX=1;exitY=0.5;exitDx=0;exitDy=0;" edge="1" parent="1" source="t94pPOiG23g_uNMkArds-181">
            <mxGeometry relative="1" as="geometry">
              <mxPoint x="80" y="744.83" as="sourcePoint" />
              <mxPoint x="120" y="744.8299999999999" as="targetPoint" />
            </mxGeometry>
          </mxCell>
        </object>
        <mxCell id="t94pPOiG23g_uNMkArds-186" value="&lt;span style=&quot;font-size: 10px;&quot;&gt;1:1&lt;/span&gt;" style="text;whiteSpace=wrap;html=1;" vertex="1" parent="1">
          <mxGeometry x="80" y="720" width="20" height="20" as="geometry" />
        </mxCell>
        <mxCell id="t94pPOiG23g_uNMkArds-187" value="&lt;font style=&quot;font-size: 10px;&quot;&gt;1:1&lt;/font&gt;" style="text;whiteSpace=wrap;html=1;" vertex="1" parent="1">
          <mxGeometry x="220" y="720" width="20" height="20" as="geometry" />
        </mxCell>
        <mxCell id="t94pPOiG23g_uNMkArds-188" value="&lt;span style=&quot;font-size: 10px;&quot;&gt;lager&lt;/span&gt;" style="text;whiteSpace=wrap;html=1;" vertex="1" parent="1">
          <mxGeometry x="75" y="740" width="50" height="20" as="geometry" />
        </mxCell>
        <mxCell id="t94pPOiG23g_uNMkArds-189" value="&lt;font style=&quot;font-size: 10px;&quot;&gt;lager&lt;/font&gt;" style="text;whiteSpace=wrap;html=1;" vertex="1" parent="1">
          <mxGeometry x="205" y="740" width="50" height="20" as="geometry" />
        </mxCell>
        <mxCell id="t94pPOiG23g_uNMkArds-190" value="Jedes Lager hat eine Telefonnummer" style="text;whiteSpace=wrap;html=1;" vertex="1" parent="1">
          <mxGeometry x="20" y="770" width="220" height="20" as="geometry" />
        </mxCell>
        <mxCell id="t94pPOiG23g_uNMkArds-191" value="&lt;span style=&quot;text-align: left;&quot;&gt;Lager&amp;nbsp;&lt;/span&gt;" style="rounded=0;whiteSpace=wrap;html=1;" vertex="1" parent="1">
          <mxGeometry y="810" width="60" height="30" as="geometry" />
        </mxCell>
        <mxCell id="t94pPOiG23g_uNMkArds-192" value="Lager" style="rounded=0;whiteSpace=wrap;html=1;" vertex="1" parent="1">
          <mxGeometry x="260" y="810" width="60" height="30" as="geometry" />
        </mxCell>
        <mxCell id="t94pPOiG23g_uNMkArds-193" style="edgeStyle=orthogonalEdgeStyle;orthogonalLoop=1;jettySize=auto;html=1;entryX=0;entryY=0.5;entryDx=0;entryDy=0;rounded=0;endArrow=none;endFill=0;" edge="1" parent="1" source="t94pPOiG23g_uNMkArds-194" target="t94pPOiG23g_uNMkArds-192">
          <mxGeometry relative="1" as="geometry" />
        </mxCell>
        <mxCell id="t94pPOiG23g_uNMkArds-194" value="FLager" style="rhombus;whiteSpace=wrap;html=1;" vertex="1" parent="1">
          <mxGeometry x="120" y="810" width="80" height="30" as="geometry" />
        </mxCell>
        <object label="" id="t94pPOiG23g_uNMkArds-195">
          <mxCell style="edgeStyle=orthogonalEdgeStyle;orthogonalLoop=1;jettySize=auto;html=1;entryX=0;entryY=0.5;entryDx=0;entryDy=0;rounded=0;endArrow=none;endFill=0;exitX=1;exitY=0.5;exitDx=0;exitDy=0;" edge="1" parent="1" source="t94pPOiG23g_uNMkArds-191">
            <mxGeometry relative="1" as="geometry">
              <mxPoint x="80" y="824.83" as="sourcePoint" />
              <mxPoint x="120" y="824.8299999999999" as="targetPoint" />
            </mxGeometry>
          </mxCell>
        </object>
        <mxCell id="t94pPOiG23g_uNMkArds-196" value="&lt;span style=&quot;font-size: 10px;&quot;&gt;1:1&lt;/span&gt;" style="text;whiteSpace=wrap;html=1;" vertex="1" parent="1">
          <mxGeometry x="80" y="800" width="20" height="20" as="geometry" />
        </mxCell>
        <mxCell id="t94pPOiG23g_uNMkArds-197" value="&lt;font style=&quot;font-size: 10px;&quot;&gt;1:1&lt;/font&gt;" style="text;whiteSpace=wrap;html=1;" vertex="1" parent="1">
          <mxGeometry x="220" y="800" width="20" height="20" as="geometry" />
        </mxCell>
        <mxCell id="t94pPOiG23g_uNMkArds-198" value="&lt;span style=&quot;font-size: 10px;&quot;&gt;lager&lt;/span&gt;" style="text;whiteSpace=wrap;html=1;" vertex="1" parent="1">
          <mxGeometry x="75" y="820" width="50" height="20" as="geometry" />
        </mxCell>
        <mxCell id="t94pPOiG23g_uNMkArds-199" value="&lt;font style=&quot;font-size: 10px;&quot;&gt;lager&lt;/font&gt;" style="text;whiteSpace=wrap;html=1;" vertex="1" parent="1">
          <mxGeometry x="205" y="820" width="50" height="20" as="geometry" />
        </mxCell>
        <mxCell id="t94pPOiG23g_uNMkArds-200" value="Jedes Lager hat eine Kategorie" style="text;whiteSpace=wrap;html=1;" vertex="1" parent="1">
          <mxGeometry x="20" y="850" width="220" height="20" as="geometry" />
        </mxCell>
        <mxCell id="t94pPOiG23g_uNMkArds-201" value="&lt;span style=&quot;text-align: left;&quot;&gt;Lager&amp;nbsp;&lt;/span&gt;" style="rounded=0;whiteSpace=wrap;html=1;" vertex="1" parent="1">
          <mxGeometry y="890" width="60" height="30" as="geometry" />
        </mxCell>
        <mxCell id="t94pPOiG23g_uNMkArds-202" value="Lager" style="rounded=0;whiteSpace=wrap;html=1;" vertex="1" parent="1">
          <mxGeometry x="260" y="890" width="60" height="30" as="geometry" />
        </mxCell>
        <mxCell id="t94pPOiG23g_uNMkArds-203" style="edgeStyle=orthogonalEdgeStyle;orthogonalLoop=1;jettySize=auto;html=1;entryX=0;entryY=0.5;entryDx=0;entryDy=0;rounded=0;endArrow=none;endFill=0;" edge="1" parent="1" source="t94pPOiG23g_uNMkArds-204" target="t94pPOiG23g_uNMkArds-202">
          <mxGeometry relative="1" as="geometry" />
        </mxCell>
        <mxCell id="t94pPOiG23g_uNMkArds-204" value="FLager" style="rhombus;whiteSpace=wrap;html=1;" vertex="1" parent="1">
          <mxGeometry x="120" y="890" width="80" height="30" as="geometry" />
        </mxCell>
        <object label="" id="t94pPOiG23g_uNMkArds-205">
          <mxCell style="edgeStyle=orthogonalEdgeStyle;orthogonalLoop=1;jettySize=auto;html=1;entryX=0;entryY=0.5;entryDx=0;entryDy=0;rounded=0;endArrow=none;endFill=0;exitX=1;exitY=0.5;exitDx=0;exitDy=0;" edge="1" parent="1" source="t94pPOiG23g_uNMkArds-201">
            <mxGeometry relative="1" as="geometry">
              <mxPoint x="80" y="904.83" as="sourcePoint" />
              <mxPoint x="120" y="904.8299999999999" as="targetPoint" />
            </mxGeometry>
          </mxCell>
        </object>
        <mxCell id="t94pPOiG23g_uNMkArds-206" value="&lt;span style=&quot;font-size: 10px;&quot;&gt;1:1&lt;/span&gt;" style="text;whiteSpace=wrap;html=1;" vertex="1" parent="1">
          <mxGeometry x="80" y="880" width="20" height="20" as="geometry" />
        </mxCell>
        <mxCell id="t94pPOiG23g_uNMkArds-207" value="&lt;font style=&quot;font-size: 10px;&quot;&gt;1:*&lt;/font&gt;" style="text;whiteSpace=wrap;html=1;" vertex="1" parent="1">
          <mxGeometry x="220" y="880" width="20" height="20" as="geometry" />
        </mxCell>
        <mxCell id="t94pPOiG23g_uNMkArds-208" value="&lt;span style=&quot;font-size: 10px;&quot;&gt;lager&lt;/span&gt;" style="text;whiteSpace=wrap;html=1;" vertex="1" parent="1">
          <mxGeometry x="75" y="900" width="50" height="20" as="geometry" />
        </mxCell>
        <mxCell id="t94pPOiG23g_uNMkArds-209" value="&lt;font style=&quot;font-size: 10px;&quot;&gt;lager&lt;/font&gt;" style="text;whiteSpace=wrap;html=1;" vertex="1" parent="1">
          <mxGeometry x="205" y="900" width="50" height="20" as="geometry" />
        </mxCell>
        <mxCell id="t94pPOiG23g_uNMkArds-210" value="&lt;font style=&quot;font-size: 20px;&quot;&gt;&lt;b&gt;Adresse&lt;/b&gt;&lt;/font&gt;" style="text;whiteSpace=wrap;html=1;align=center;" vertex="1" parent="1">
          <mxGeometry x="530" y="610" width="220" height="30" as="geometry" />
        </mxCell>
        <mxCell id="t94pPOiG23g_uNMkArds-212" value="Eine Adresse besteht aus einer Straßenangabe" style="text;html=1;align=center;verticalAlign=middle;resizable=0;points=[];autosize=1;strokeColor=none;fillColor=none;" vertex="1" parent="1">
          <mxGeometry x="485" y="657.5" width="270" height="20" as="geometry" />
        </mxCell>
        <object Name="Adresse" placeholders="1" id="t94pPOiG23g_uNMkArds-213">
          <mxCell style="shape=stencil(pZZdb4MgFIZ/DZdbFGJ6vTh32V5sSa9RzyorgkHXj38/EJtqZ1uExMSc9yDPefEIIpK2FW0A4UjQGhB5Rxhv8h8ouq+zkbHOHK0cR5GNq5uYto0eb8UDVYzmvH+SZCh603lzkbSQQuhhTIp2khnl205RJjodn+xsA+A8iRpQrIYO1FCGVa/lr7e98uFOecWJF8iD5AdajFl5GsoWkmIvzFLKtA1iN8pncBu4gjxIfqDQNnA2FNYGrpiwNri+rmeg7fLv9IbkCgrErFw5izsu9ly6LHRHcF26UIzr0mWzXUdSrdw7oEia02K/U/JXlLP16eLkHo6s7Cot2HsPIw9MKXNkPj7onpy78/N+M85tQbMm71jRz0kFDzx2cDLl6pltEQgna7Ool0YafCRTI5eQcrYTVipAmLfTy4eRXrOy5DAa/mJ/TCY7CqcFVJKXoNpxYsbnPzu9OkxphD8=);whiteSpace=wrap;html=1;noLabel=1;_ElementType=ObjectType;" vertex="1" parent="1">
            <mxGeometry x="485" y="690" width="70" height="30" as="geometry" />
          </mxCell>
        </object>
        <object placeholders="1" Role="Adresse " BoundaryUp="*" BoundaryLow="1" id="t94pPOiG23g_uNMkArds-214">
          <mxCell style="endArrow=none;html=1;strokeWidth=1;labelBorderColor=none;labelBackgroundColor=none;fontColor=none;exitX=1;exitY=0.5;entryX=0;entryY=0.5;noLabel=1;_ElementType=AssociationParticipant;fontSize=8;rounded=0;exitDx=0;exitDy=0;entryDx=0;entryDy=0;" edge="1" parent="1" source="t94pPOiG23g_uNMkArds-213" target="t94pPOiG23g_uNMkArds-219">
            <mxGeometry width="50" height="50" relative="1" as="geometry">
              <mxPoint x="965" y="753.857144716451" as="sourcePoint" />
              <mxPoint x="705" y="705" as="targetPoint" />
            </mxGeometry>
          </mxCell>
        </object>
        <mxCell id="t94pPOiG23g_uNMkArds-215" style="shape=stencil(xZFNTgQhEIVPw9IEIR3XY6srF8boAcqmnK7YAwTK6RlPL1A9sf2JcWdCQup78HhVKNvnESIqoz3sUNkrZcwdJKaBInh+wAMXUuRRtHOtpZ6/1JAjDixwD4ngaUJRMqfwgjM5XjzIj5io+dprpTflTF22fw4Jtym8evdJ+JA9Z3qrYdvWzEzXXrn58Qa3+DWBHFamu6z2kI63YS6VspsVe4xqsdMHudAt3R2ltKdmJ9p6QQN6xiR4v+I7cu40gYbPZNAyNeFxggHHMDlMeS38uZn7UJ/4NfLFf0S2fSHffrPRxbKCdw==);whiteSpace=wrap;html=1;noLabel=1;fontSize=9;" vertex="1" parent="t94pPOiG23g_uNMkArds-214">
          <mxGeometry width="40" height="30" relative="1" as="geometry">
            <mxPoint x="-19.5" y="-14" as="offset" />
          </mxGeometry>
        </mxCell>
        <object Name="Straße" placeholders="1" id="t94pPOiG23g_uNMkArds-216">
          <mxCell style="shape=stencil(pZZdb4MgFIZ/DZdbFGJ6vTh32V5sSa9RzyorgkHXj38/EJtqZ1uExMSc9yDPefEIIpK2FW0A4UjQGhB5Rxhv8h8ouq+zkbHOHK0cR5GNq5uYto0eb8UDVYzmvH+SZCh603lzkbSQQuhhTIp2khnl205RJjodn+xsA+A8iRpQrIYO1FCGVa/lr7e98uFOecWJF8iD5AdajFl5GsoWkmIvzFLKtA1iN8pncBu4gjxIfqDQNnA2FNYGrpiwNri+rmeg7fLv9IbkCgrErFw5izsu9ly6LHRHcF26UIzr0mWzXUdSrdw7oEia02K/U/JXlLP16eLkHo6s7Cot2HsPIw9MKXNkPj7onpy78/N+M85tQbMm71jRz0kFDzx2cDLl6pltEQgna7Ool0YafCRTI5eQcrYTVipAmLfTy4eRXrOy5DAa/mJ/TCY7CqcFVJKXoNpxYsbnPzu9OkxphD8=);whiteSpace=wrap;html=1;noLabel=1;_ElementType=ObjectType;" vertex="1" parent="1">
            <mxGeometry x="725" y="690.5" width="70" height="30" as="geometry" />
          </mxCell>
        </object>
        <object placeholders="1" Role="Straße" BoundaryUp="*" BoundaryLow="1" id="t94pPOiG23g_uNMkArds-217">
          <mxCell style="endArrow=none;html=1;strokeWidth=1;labelBorderColor=none;labelBackgroundColor=none;fontColor=none;exitX=1;exitY=0.5;noLabel=1;_ElementType=AssociationParticipant;fontSize=8;rounded=0;exitDx=0;exitDy=0;entryX=0;entryY=0.5;entryDx=0;entryDy=0;" edge="1" parent="1" source="t94pPOiG23g_uNMkArds-219" target="t94pPOiG23g_uNMkArds-216">
            <mxGeometry width="50" height="50" relative="1" as="geometry">
              <mxPoint x="775" y="705" as="sourcePoint" />
              <mxPoint x="945" y="704" as="targetPoint" />
            </mxGeometry>
          </mxCell>
        </object>
        <mxCell id="t94pPOiG23g_uNMkArds-218" style="shape=stencil(xZFNTgQhEIVPw9IEIR3XY6srF8boAcqmnK7YAwTK6RlPL1A9sf2JcWdCQup78HhVKNvnESIqoz3sUNkrZcwdJKaBInh+wAMXUuRRtHOtpZ6/1JAjDixwD4ngaUJRMqfwgjM5XjzIj5io+dprpTflTF22fw4Jtym8evdJ+JA9Z3qrYdvWzEzXXrn58Qa3+DWBHFamu6z2kI63YS6VspsVe4xqsdMHudAt3R2ltKdmJ9p6QQN6xiR4v+I7cu40gYbPZNAyNeFxggHHMDlMeS38uZn7UJ/4NfLFf0S2fSHffrPRxbKCdw==);whiteSpace=wrap;html=1;noLabel=1;fontSize=9;" vertex="1" parent="t94pPOiG23g_uNMkArds-217">
          <mxGeometry width="40" height="30" relative="1" as="geometry">
            <mxPoint x="-19.5" y="-14" as="offset" />
          </mxGeometry>
        </mxCell>
        <object placeholders="1" Name="AdStr" id="t94pPOiG23g_uNMkArds-219">
          <mxCell style="shape=stencil(nVTBcoMgEP0aju2gjB+Qsekxl3amZ4LbyATBAWri3xdEGjXYms542ffc93bZBURKU9MWUI4lbQCRF5TnO2MU49RyJd97z+WOrgOXYRziyyKmpgVmA9hRzelRjJnGanWGC6/sqMFlDZpbz5I9wjv3j/9IyZSUTsT5mhkz4Z0Y5dLl4msQw89FsOnHOEStc2jAgh7LDOitx8MAvG63mZtE079sPh60yf5ns3+0m8WhZdts3hI2pHTI2uBIeaTsfNLqS1bJ4lrql+KOiHSjOrhVXeDEpFNNx3TB5ST9Z1X7mdx2gYV/1Nsu8LA/E8rA2mAdvnJ8pPzkQoR7l5zXylRcntLwy7gsXG240aEFlBcHvx35uE7pg4ohFfwkA8RA+jUb4G6CN7yq4rsxwE/heZptqaAMaiUq0GZKJPq8a2dAR0kPfAM=);whiteSpace=wrap;html=1;noLabel=1;_ElementType=AssociationType;glass=0;strokeColor=#000000;strokeWidth=1;fillColor=#ffffff;fontSize=8;fontColor=none;align=left;" vertex="1" parent="1">
            <mxGeometry x="600" y="687.5" width="75" height="35" as="geometry" />
          </mxCell>
        </object>
        <mxCell id="t94pPOiG23g_uNMkArds-220" value="Eine Adresse besteht aus einer Ortangabe" style="text;html=1;align=center;verticalAlign=middle;resizable=0;points=[];autosize=1;strokeColor=none;fillColor=none;" vertex="1" parent="1">
          <mxGeometry x="485" y="737.5" width="240" height="20" as="geometry" />
        </mxCell>
        <object Name="Adresse" placeholders="1" id="t94pPOiG23g_uNMkArds-221">
          <mxCell style="shape=stencil(pZZdb4MgFIZ/DZdbFGJ6vTh32V5sSa9RzyorgkHXj38/EJtqZ1uExMSc9yDPefEIIpK2FW0A4UjQGhB5Rxhv8h8ouq+zkbHOHK0cR5GNq5uYto0eb8UDVYzmvH+SZCh603lzkbSQQuhhTIp2khnl205RJjodn+xsA+A8iRpQrIYO1FCGVa/lr7e98uFOecWJF8iD5AdajFl5GsoWkmIvzFLKtA1iN8pncBu4gjxIfqDQNnA2FNYGrpiwNri+rmeg7fLv9IbkCgrErFw5izsu9ly6LHRHcF26UIzr0mWzXUdSrdw7oEia02K/U/JXlLP16eLkHo6s7Cot2HsPIw9MKXNkPj7onpy78/N+M85tQbMm71jRz0kFDzx2cDLl6pltEQgna7Ool0YafCRTI5eQcrYTVipAmLfTy4eRXrOy5DAa/mJ/TCY7CqcFVJKXoNpxYsbnPzu9OkxphD8=);whiteSpace=wrap;html=1;noLabel=1;_ElementType=ObjectType;" vertex="1" parent="1">
            <mxGeometry x="485" y="767.5" width="70" height="30" as="geometry" />
          </mxCell>
        </object>
        <object Name="Ort" placeholders="1" id="t94pPOiG23g_uNMkArds-223">
          <mxCell style="shape=stencil(pZZdb4MgFIZ/DZdbFGJ6vTh32V5sSa9RzyorgkHXj38/EJtqZ1uExMSc9yDPefEIIpK2FW0A4UjQGhB5Rxhv8h8ouq+zkbHOHK0cR5GNq5uYto0eb8UDVYzmvH+SZCh603lzkbSQQuhhTIp2khnl205RJjodn+xsA+A8iRpQrIYO1FCGVa/lr7e98uFOecWJF8iD5AdajFl5GsoWkmIvzFLKtA1iN8pncBu4gjxIfqDQNnA2FNYGrpiwNri+rmeg7fLv9IbkCgrErFw5izsu9ly6LHRHcF26UIzr0mWzXUdSrdw7oEia02K/U/JXlLP16eLkHo6s7Cot2HsPIw9MKXNkPj7onpy78/N+M85tQbMm71jRz0kFDzx2cDLl6pltEQgna7Ool0YafCRTI5eQcrYTVipAmLfTy4eRXrOy5DAa/mJ/TCY7CqcFVJKXoNpxYsbnPzu9OkxphD8=);whiteSpace=wrap;html=1;noLabel=1;_ElementType=ObjectType;" vertex="1" parent="1">
            <mxGeometry x="725" y="767.5" width="70" height="30" as="geometry" />
          </mxCell>
        </object>
        <object placeholders="1" Role="Adresse" BoundaryUp="*" BoundaryLow="1" id="t94pPOiG23g_uNMkArds-224">
          <mxCell style="endArrow=none;html=1;strokeWidth=1;labelBorderColor=none;labelBackgroundColor=none;fontColor=none;entryX=0;entryY=0.5;noLabel=1;_ElementType=AssociationParticipant;fontSize=8;rounded=0;exitX=1;exitY=0.5;exitDx=0;exitDy=0;entryDx=0;entryDy=0;" edge="1" parent="1" source="t94pPOiG23g_uNMkArds-221" target="t94pPOiG23g_uNMkArds-226">
            <mxGeometry width="50" height="50" relative="1" as="geometry">
              <mxPoint x="575" y="777.5" as="sourcePoint" />
              <mxPoint x="1021" y="731.6428590021651" as="targetPoint" />
            </mxGeometry>
          </mxCell>
        </object>
        <mxCell id="t94pPOiG23g_uNMkArds-225" style="shape=stencil(xZFNTgQhEIVPw9IEIR3XY6srF8boAcqmnK7YAwTK6RlPL1A9sf2JcWdCQup78HhVKNvnESIqoz3sUNkrZcwdJKaBInh+wAMXUuRRtHOtpZ6/1JAjDixwD4ngaUJRMqfwgjM5XjzIj5io+dprpTflTF22fw4Jtym8evdJ+JA9Z3qrYdvWzEzXXrn58Qa3+DWBHFamu6z2kI63YS6VspsVe4xqsdMHudAt3R2ltKdmJ9p6QQN6xiR4v+I7cu40gYbPZNAyNeFxggHHMDlMeS38uZn7UJ/4NfLFf0S2fSHffrPRxbKCdw==);whiteSpace=wrap;html=1;noLabel=1;fontSize=9;" vertex="1" parent="t94pPOiG23g_uNMkArds-224">
          <mxGeometry width="40" height="30" relative="1" as="geometry">
            <mxPoint x="-19.5" y="-14" as="offset" />
          </mxGeometry>
        </mxCell>
        <object placeholders="1" Name="AdOrt" id="t94pPOiG23g_uNMkArds-226">
          <mxCell style="shape=stencil(nVTBcoMgEP0aju2gjB+Qsekxl3amZ4LbyATBAWri3xdEGjXYms542ffc93bZBURKU9MWUI4lbQCRF5TnO2MU49RyJd97z+WOrgOXYRziyyKmpgVmA9hRzelRjJnGanWGC6/sqMFlDZpbz5I9wjv3j/9IyZSUTsT5mhkz4Z0Y5dLl4msQw89FsOnHOEStc2jAgh7LDOitx8MAvG63mZtE079sPh60yf5ns3+0m8WhZdts3hI2pHTI2uBIeaTsfNLqS1bJ4lrql+KOiHSjOrhVXeDEpFNNx3TB5ST9Z1X7mdx2gYV/1Nsu8LA/E8rA2mAdvnJ8pPzkQoR7l5zXylRcntLwy7gsXG240aEFlBcHvx35uE7pg4ohFfwkA8RA+jUb4G6CN7yq4rsxwE/heZptqaAMaiUq0GZKJPq8a2dAR0kPfAM=);whiteSpace=wrap;html=1;noLabel=1;_ElementType=AssociationType;glass=0;strokeColor=#000000;strokeWidth=1;fillColor=#ffffff;fontSize=8;fontColor=none;align=left;" vertex="1" parent="1">
            <mxGeometry x="600" y="765" width="75" height="35" as="geometry" />
          </mxCell>
        </object>
        <object placeholders="1" Role="Ort" BoundaryUp="*" BoundaryLow="1" id="t94pPOiG23g_uNMkArds-227">
          <mxCell style="endArrow=none;html=1;strokeWidth=1;labelBorderColor=none;labelBackgroundColor=none;fontColor=none;exitX=1;exitY=0.5;entryX=0;entryY=0.5;noLabel=1;_ElementType=AssociationParticipant;fontSize=8;rounded=0;exitDx=0;exitDy=0;entryDx=0;entryDy=0;" edge="1" parent="1" source="t94pPOiG23g_uNMkArds-226" target="t94pPOiG23g_uNMkArds-223">
            <mxGeometry width="50" height="50" relative="1" as="geometry">
              <mxPoint x="965" y="731.357144716451" as="sourcePoint" />
              <mxPoint x="1021" y="731.6428590021651" as="targetPoint" />
            </mxGeometry>
          </mxCell>
        </object>
        <mxCell id="t94pPOiG23g_uNMkArds-228" style="shape=stencil(xZFNTgQhEIVPw9IEIR3XY6srF8boAcqmnK7YAwTK6RlPL1A9sf2JcWdCQup78HhVKNvnESIqoz3sUNkrZcwdJKaBInh+wAMXUuRRtHOtpZ6/1JAjDixwD4ngaUJRMqfwgjM5XjzIj5io+dprpTflTF22fw4Jtym8evdJ+JA9Z3qrYdvWzEzXXrn58Qa3+DWBHFamu6z2kI63YS6VspsVe4xqsdMHudAt3R2ltKdmJ9p6QQN6xiR4v+I7cu40gYbPZNAyNeFxggHHMDlMeS38uZn7UJ/4NfLFf0S2fSHffrPRxbKCdw==);whiteSpace=wrap;html=1;noLabel=1;fontSize=9;" vertex="1" parent="t94pPOiG23g_uNMkArds-227">
          <mxGeometry width="40" height="30" relative="1" as="geometry">
            <mxPoint x="-19.5" y="-14" as="offset" />
          </mxGeometry>
        </mxCell>
        <mxCell id="t94pPOiG23g_uNMkArds-229" style="edgeStyle=orthogonalEdgeStyle;rounded=0;orthogonalLoop=1;jettySize=auto;html=1;exitX=0.75;exitY=1;exitDx=0;exitDy=0;entryX=1;entryY=1;entryDx=0;entryDy=0;fontSize=20;endArrow=none;endFill=0;" edge="1" parent="1" source="t94pPOiG23g_uNMkArds-172" target="t94pPOiG23g_uNMkArds-172">
          <mxGeometry relative="1" as="geometry" />
        </mxCell>
        <mxCell id="t94pPOiG23g_uNMkArds-230" value="&lt;font style=&quot;font-size: 20px;&quot;&gt;&lt;b&gt;Ortsangabe&lt;/b&gt;&lt;/font&gt;" style="text;whiteSpace=wrap;html=1;align=center;" vertex="1" parent="1">
          <mxGeometry x="527.5" y="850" width="220" height="30" as="geometry" />
        </mxCell>
        <mxCell id="t94pPOiG23g_uNMkArds-231" value="Eine Ortsangabe besteht aus dem Ortsname" style="text;html=1;align=center;verticalAlign=middle;resizable=0;points=[];autosize=1;strokeColor=none;fillColor=none;" vertex="1" parent="1">
          <mxGeometry x="475" y="895" width="260" height="30" as="geometry" />
        </mxCell>
        <object Name="Ort" placeholders="1" id="t94pPOiG23g_uNMkArds-232">
          <mxCell style="shape=stencil(pZZdb4MgFIZ/DZdbFGJ6vTh32V5sSa9RzyorgkHXj38/EJtqZ1uExMSc9yDPefEIIpK2FW0A4UjQGhB5Rxhv8h8ouq+zkbHOHK0cR5GNq5uYto0eb8UDVYzmvH+SZCh603lzkbSQQuhhTIp2khnl205RJjodn+xsA+A8iRpQrIYO1FCGVa/lr7e98uFOecWJF8iD5AdajFl5GsoWkmIvzFLKtA1iN8pncBu4gjxIfqDQNnA2FNYGrpiwNri+rmeg7fLv9IbkCgrErFw5izsu9ly6LHRHcF26UIzr0mWzXUdSrdw7oEia02K/U/JXlLP16eLkHo6s7Cot2HsPIw9MKXNkPj7onpy78/N+M85tQbMm71jRz0kFDzx2cDLl6pltEQgna7Ool0YafCRTI5eQcrYTVipAmLfTy4eRXrOy5DAa/mJ/TCY7CqcFVJKXoNpxYsbnPzu9OkxphD8=);whiteSpace=wrap;html=1;noLabel=1;_ElementType=ObjectType;" vertex="1" parent="1">
            <mxGeometry x="480" y="932.5" width="70" height="30" as="geometry" />
          </mxCell>
        </object>
        <object Name="Ortsname" placeholders="1" id="t94pPOiG23g_uNMkArds-233">
          <mxCell style="shape=stencil(pZZdb4MgFIZ/DZdbFGJ6vTh32V5sSa9RzyorgkHXj38/EJtqZ1uExMSc9yDPefEIIpK2FW0A4UjQGhB5Rxhv8h8ouq+zkbHOHK0cR5GNq5uYto0eb8UDVYzmvH+SZCh603lzkbSQQuhhTIp2khnl205RJjodn+xsA+A8iRpQrIYO1FCGVa/lr7e98uFOecWJF8iD5AdajFl5GsoWkmIvzFLKtA1iN8pncBu4gjxIfqDQNnA2FNYGrpiwNri+rmeg7fLv9IbkCgrErFw5izsu9ly6LHRHcF26UIzr0mWzXUdSrdw7oEia02K/U/JXlLP16eLkHo6s7Cot2HsPIw9MKXNkPj7onpy78/N+M85tQbMm71jRz0kFDzx2cDLl6pltEQgna7Ool0YafCRTI5eQcrYTVipAmLfTy4eRXrOy5DAa/mJ/TCY7CqcFVJKXoNpxYsbnPzu9OkxphD8=);whiteSpace=wrap;html=1;noLabel=1;_ElementType=ObjectType;" vertex="1" parent="1">
            <mxGeometry x="720" y="932.5" width="70" height="30" as="geometry" />
          </mxCell>
        </object>
        <object placeholders="1" Role="Ort" BoundaryUp="*" BoundaryLow="1" id="t94pPOiG23g_uNMkArds-234">
          <mxCell style="endArrow=none;html=1;strokeWidth=1;labelBorderColor=none;labelBackgroundColor=none;fontColor=none;exitX=1;exitY=0.471;entryX=0;entryY=0.5;noLabel=1;_ElementType=AssociationParticipant;fontSize=8;rounded=0;exitDx=0;exitDy=0;exitPerimeter=0;entryDx=0;entryDy=0;" edge="1" parent="1" source="t94pPOiG23g_uNMkArds-232" target="t94pPOiG23g_uNMkArds-236">
            <mxGeometry width="50" height="50" relative="1" as="geometry">
              <mxPoint x="560" y="946.357144716451" as="sourcePoint" />
              <mxPoint x="616" y="946.6428590021651" as="targetPoint" />
            </mxGeometry>
          </mxCell>
        </object>
        <mxCell id="t94pPOiG23g_uNMkArds-235" style="shape=stencil(xZFNTgQhEIVPw9IEIR3XY6srF8boAcqmnK7YAwTK6RlPL1A9sf2JcWdCQup78HhVKNvnESIqoz3sUNkrZcwdJKaBInh+wAMXUuRRtHOtpZ6/1JAjDixwD4ngaUJRMqfwgjM5XjzIj5io+dprpTflTF22fw4Jtym8evdJ+JA9Z3qrYdvWzEzXXrn58Qa3+DWBHFamu6z2kI63YS6VspsVe4xqsdMHudAt3R2ltKdmJ9p6QQN6xiR4v+I7cu40gYbPZNAyNeFxggHHMDlMeS38uZn7UJ/4NfLFf0S2fSHffrPRxbKCdw==);whiteSpace=wrap;html=1;noLabel=1;fontSize=9;" vertex="1" parent="t94pPOiG23g_uNMkArds-234">
          <mxGeometry width="40" height="30" relative="1" as="geometry">
            <mxPoint x="-19.5" y="-14" as="offset" />
          </mxGeometry>
        </mxCell>
        <object placeholders="1" Name="Ortsangabe" id="t94pPOiG23g_uNMkArds-236">
          <mxCell style="shape=stencil(nVTBcoMgEP0aju2gjB+Qsekxl3amZ4LbyATBAWri3xdEGjXYms542ffc93bZBURKU9MWUI4lbQCRF5TnO2MU49RyJd97z+WOrgOXYRziyyKmpgVmA9hRzelRjJnGanWGC6/sqMFlDZpbz5I9wjv3j/9IyZSUTsT5mhkz4Z0Y5dLl4msQw89FsOnHOEStc2jAgh7LDOitx8MAvG63mZtE079sPh60yf5ns3+0m8WhZdts3hI2pHTI2uBIeaTsfNLqS1bJ4lrql+KOiHSjOrhVXeDEpFNNx3TB5ST9Z1X7mdx2gYV/1Nsu8LA/E8rA2mAdvnJ8pPzkQoR7l5zXylRcntLwy7gsXG240aEFlBcHvx35uE7pg4ohFfwkA8RA+jUb4G6CN7yq4rsxwE/heZptqaAMaiUq0GZKJPq8a2dAR0kPfAM=);whiteSpace=wrap;html=1;noLabel=1;_ElementType=AssociationType;glass=0;strokeColor=#000000;strokeWidth=1;fillColor=#ffffff;fontSize=8;fontColor=none;align=left;" vertex="1" parent="1">
            <mxGeometry x="592.5" y="930" width="75" height="35" as="geometry" />
          </mxCell>
        </object>
        <object placeholders="1" Role="Ortsname" BoundaryUp="*" BoundaryLow="1" id="t94pPOiG23g_uNMkArds-237">
          <mxCell style="endArrow=none;html=1;strokeWidth=1;labelBorderColor=none;labelBackgroundColor=none;fontColor=none;entryX=0;entryY=0.5;noLabel=1;_ElementType=AssociationParticipant;fontSize=8;rounded=0;entryDx=0;entryDy=0;exitX=1;exitY=0.5;exitDx=0;exitDy=0;" edge="1" parent="1" target="t94pPOiG23g_uNMkArds-233" source="t94pPOiG23g_uNMkArds-236">
            <mxGeometry width="50" height="50" relative="1" as="geometry">
              <mxPoint x="710" y="947.5" as="sourcePoint" />
              <mxPoint x="1006" y="766.6428590021651" as="targetPoint" />
            </mxGeometry>
          </mxCell>
        </object>
        <mxCell id="t94pPOiG23g_uNMkArds-238" style="shape=stencil(xZFNTgQhEIVPw9IEIR3XY6srF8boAcqmnK7YAwTK6RlPL1A9sf2JcWdCQup78HhVKNvnESIqoz3sUNkrZcwdJKaBInh+wAMXUuRRtHOtpZ6/1JAjDixwD4ngaUJRMqfwgjM5XjzIj5io+dprpTflTF22fw4Jtym8evdJ+JA9Z3qrYdvWzEzXXrn58Qa3+DWBHFamu6z2kI63YS6VspsVe4xqsdMHudAt3R2ltKdmJ9p6QQN6xiR4v+I7cu40gYbPZNAyNeFxggHHMDlMeS38uZn7UJ/4NfLFf0S2fSHffrPRxbKCdw==);whiteSpace=wrap;html=1;noLabel=1;fontSize=9;" vertex="1" parent="t94pPOiG23g_uNMkArds-237">
          <mxGeometry width="40" height="30" relative="1" as="geometry">
            <mxPoint x="-19.5" y="-14" as="offset" />
          </mxGeometry>
        </mxCell>
        <mxCell id="t94pPOiG23g_uNMkArds-239" value="Eine Ortsangabe besteht aus einer PLZ" style="text;html=1;align=center;verticalAlign=middle;resizable=0;points=[];autosize=1;strokeColor=none;fillColor=none;" vertex="1" parent="1">
          <mxGeometry x="475" y="980" width="230" height="30" as="geometry" />
        </mxCell>
        <object Name="Ort" placeholders="1" id="t94pPOiG23g_uNMkArds-240">
          <mxCell style="shape=stencil(pZZdb4MgFIZ/DZdbFGJ6vTh32V5sSa9RzyorgkHXj38/EJtqZ1uExMSc9yDPefEIIpK2FW0A4UjQGhB5Rxhv8h8ouq+zkbHOHK0cR5GNq5uYto0eb8UDVYzmvH+SZCh603lzkbSQQuhhTIp2khnl205RJjodn+xsA+A8iRpQrIYO1FCGVa/lr7e98uFOecWJF8iD5AdajFl5GsoWkmIvzFLKtA1iN8pncBu4gjxIfqDQNnA2FNYGrpiwNri+rmeg7fLv9IbkCgrErFw5izsu9ly6LHRHcF26UIzr0mWzXUdSrdw7oEia02K/U/JXlLP16eLkHo6s7Cot2HsPIw9MKXNkPj7onpy78/N+M85tQbMm71jRz0kFDzx2cDLl6pltEQgna7Ool0YafCRTI5eQcrYTVipAmLfTy4eRXrOy5DAa/mJ/TCY7CqcFVJKXoNpxYsbnPzu9OkxphD8=);whiteSpace=wrap;html=1;noLabel=1;_ElementType=ObjectType;" vertex="1" parent="1">
            <mxGeometry x="480" y="1010" width="70" height="30" as="geometry" />
          </mxCell>
        </object>
        <object Name="PLZ" placeholders="1" id="t94pPOiG23g_uNMkArds-241">
          <mxCell style="shape=stencil(pZZdb4MgFIZ/DZdbFGJ6vTh32V5sSa9RzyorgkHXj38/EJtqZ1uExMSc9yDPefEIIpK2FW0A4UjQGhB5Rxhv8h8ouq+zkbHOHK0cR5GNq5uYto0eb8UDVYzmvH+SZCh603lzkbSQQuhhTIp2khnl205RJjodn+xsA+A8iRpQrIYO1FCGVa/lr7e98uFOecWJF8iD5AdajFl5GsoWkmIvzFLKtA1iN8pncBu4gjxIfqDQNnA2FNYGrpiwNri+rmeg7fLv9IbkCgrErFw5izsu9ly6LHRHcF26UIzr0mWzXUdSrdw7oEia02K/U/JXlLP16eLkHo6s7Cot2HsPIw9MKXNkPj7onpy78/N+M85tQbMm71jRz0kFDzx2cDLl6pltEQgna7Ool0YafCRTI5eQcrYTVipAmLfTy4eRXrOy5DAa/mJ/TCY7CqcFVJKXoNpxYsbnPzu9OkxphD8=);whiteSpace=wrap;html=1;noLabel=1;_ElementType=ObjectType;" vertex="1" parent="1">
            <mxGeometry x="720" y="1010" width="70" height="30" as="geometry" />
          </mxCell>
        </object>
        <object placeholders="1" Name="Ortsangabe" id="t94pPOiG23g_uNMkArds-242">
          <mxCell style="shape=stencil(nVTBcoMgEP0aju2gjB+Qsekxl3amZ4LbyATBAWri3xdEGjXYms542ffc93bZBURKU9MWUI4lbQCRF5TnO2MU49RyJd97z+WOrgOXYRziyyKmpgVmA9hRzelRjJnGanWGC6/sqMFlDZpbz5I9wjv3j/9IyZSUTsT5mhkz4Z0Y5dLl4msQw89FsOnHOEStc2jAgh7LDOitx8MAvG63mZtE079sPh60yf5ns3+0m8WhZdts3hI2pHTI2uBIeaTsfNLqS1bJ4lrql+KOiHSjOrhVXeDEpFNNx3TB5ST9Z1X7mdx2gYV/1Nsu8LA/E8rA2mAdvnJ8pPzkQoR7l5zXylRcntLwy7gsXG240aEFlBcHvx35uE7pg4ohFfwkA8RA+jUb4G6CN7yq4rsxwE/heZptqaAMaiUq0GZKJPq8a2dAR0kPfAM=);whiteSpace=wrap;html=1;noLabel=1;_ElementType=AssociationType;glass=0;strokeColor=#000000;strokeWidth=1;fillColor=#ffffff;fontSize=8;fontColor=none;align=left;" vertex="1" parent="1">
            <mxGeometry x="600" y="1007.5" width="75" height="35" as="geometry" />
          </mxCell>
        </object>
        <object placeholders="1" Role="ort" BoundaryUp="*" BoundaryLow="1" id="t94pPOiG23g_uNMkArds-243">
          <mxCell style="endArrow=none;html=1;strokeWidth=1;labelBorderColor=none;labelBackgroundColor=none;fontColor=none;exitX=1;exitY=0.5;entryX=0;entryY=0.5;noLabel=1;_ElementType=AssociationParticipant;fontSize=8;rounded=0;exitDx=0;exitDy=0;entryDx=0;entryDy=0;" edge="1" parent="1" source="t94pPOiG23g_uNMkArds-240" target="t94pPOiG23g_uNMkArds-242">
            <mxGeometry width="50" height="50" relative="1" as="geometry">
              <mxPoint x="560" y="1023.8571447164509" as="sourcePoint" />
              <mxPoint x="616" y="1024.142859002165" as="targetPoint" />
            </mxGeometry>
          </mxCell>
        </object>
        <mxCell id="t94pPOiG23g_uNMkArds-244" style="shape=stencil(xZFNTgQhEIVPw9IEIR3XY6srF8boAcqmnK7YAwTK6RlPL1A9sf2JcWdCQup78HhVKNvnESIqoz3sUNkrZcwdJKaBInh+wAMXUuRRtHOtpZ6/1JAjDixwD4ngaUJRMqfwgjM5XjzIj5io+dprpTflTF22fw4Jtym8evdJ+JA9Z3qrYdvWzEzXXrn58Qa3+DWBHFamu6z2kI63YS6VspsVe4xqsdMHudAt3R2ltKdmJ9p6QQN6xiR4v+I7cu40gYbPZNAyNeFxggHHMDlMeS38uZn7UJ/4NfLFf0S2fSHffrPRxbKCdw==);whiteSpace=wrap;html=1;noLabel=1;fontSize=9;" vertex="1" parent="t94pPOiG23g_uNMkArds-243">
          <mxGeometry width="40" height="30" relative="1" as="geometry">
            <mxPoint x="-19.5" y="-14" as="offset" />
          </mxGeometry>
        </mxCell>
        <object placeholders="1" Role="PLZ" BoundaryUp="*" BoundaryLow="1" id="t94pPOiG23g_uNMkArds-245">
          <mxCell style="endArrow=none;html=1;strokeWidth=1;labelBorderColor=none;labelBackgroundColor=none;fontColor=none;exitX=1;exitY=0.5;entryX=0;entryY=0.5;noLabel=1;_ElementType=AssociationParticipant;fontSize=8;rounded=0;exitDx=0;exitDy=0;entryDx=0;entryDy=0;" edge="1" parent="1" source="t94pPOiG23g_uNMkArds-242" target="t94pPOiG23g_uNMkArds-241">
            <mxGeometry width="50" height="50" relative="1" as="geometry">
              <mxPoint x="740" y="1073.8571447164509" as="sourcePoint" />
              <mxPoint x="796" y="1074.142859002165" as="targetPoint" />
            </mxGeometry>
          </mxCell>
        </object>
        <mxCell id="t94pPOiG23g_uNMkArds-246" style="shape=stencil(xZFNTgQhEIVPw9IEIR3XY6srF8boAcqmnK7YAwTK6RlPL1A9sf2JcWdCQup78HhVKNvnESIqoz3sUNkrZcwdJKaBInh+wAMXUuRRtHOtpZ6/1JAjDixwD4ngaUJRMqfwgjM5XjzIj5io+dprpTflTF22fw4Jtym8evdJ+JA9Z3qrYdvWzEzXXrn58Qa3+DWBHFamu6z2kI63YS6VspsVe4xqsdMHudAt3R2ltKdmJ9p6QQN6xiR4v+I7cu40gYbPZNAyNeFxggHHMDlMeS38uZn7UJ/4NfLFf0S2fSHffrPRxbKCdw==);whiteSpace=wrap;html=1;noLabel=1;fontSize=9;" vertex="1" parent="t94pPOiG23g_uNMkArds-245">
          <mxGeometry width="40" height="30" relative="1" as="geometry">
            <mxPoint x="-19.5" y="-14" as="offset" />
          </mxGeometry>
        </mxCell>
        <mxCell id="t94pPOiG23g_uNMkArds-247" value="Eine Straßenangabe besteht aus einem Straßenname" style="text;html=1;align=center;verticalAlign=middle;resizable=0;points=[];autosize=1;strokeColor=none;fillColor=none;" vertex="1" parent="1">
          <mxGeometry y="1007.5" width="300" height="20" as="geometry" />
        </mxCell>
        <object Name="Straßen" placeholders="1" id="t94pPOiG23g_uNMkArds-248">
          <mxCell style="shape=stencil(pZZdb4MgFIZ/DZdbFGJ6vTh32V5sSa9RzyorgkHXj38/EJtqZ1uExMSc9yDPefEIIpK2FW0A4UjQGhB5Rxhv8h8ouq+zkbHOHK0cR5GNq5uYto0eb8UDVYzmvH+SZCh603lzkbSQQuhhTIp2khnl205RJjodn+xsA+A8iRpQrIYO1FCGVa/lr7e98uFOecWJF8iD5AdajFl5GsoWkmIvzFLKtA1iN8pncBu4gjxIfqDQNnA2FNYGrpiwNri+rmeg7fLv9IbkCgrErFw5izsu9ly6LHRHcF26UIzr0mWzXUdSrdw7oEia02K/U/JXlLP16eLkHo6s7Cot2HsPIw9MKXNkPj7onpy78/N+M85tQbMm71jRz0kFDzx2cDLl6pltEQgna7Ool0YafCRTI5eQcrYTVipAmLfTy4eRXrOy5DAa/mJ/TCY7CqcFVJKXoNpxYsbnPzu9OkxphD8=);whiteSpace=wrap;html=1;noLabel=1;_ElementType=ObjectType;" vertex="1" parent="1">
            <mxGeometry y="1039" width="70" height="30" as="geometry" />
          </mxCell>
        </object>
        <object Name="Straßenname" placeholders="1" id="t94pPOiG23g_uNMkArds-249">
          <mxCell style="shape=stencil(pZZdb4MgFIZ/DZdbFGJ6vTh32V5sSa9RzyorgkHXj38/EJtqZ1uExMSc9yDPefEIIpK2FW0A4UjQGhB5Rxhv8h8ouq+zkbHOHK0cR5GNq5uYto0eb8UDVYzmvH+SZCh603lzkbSQQuhhTIp2khnl205RJjodn+xsA+A8iRpQrIYO1FCGVa/lr7e98uFOecWJF8iD5AdajFl5GsoWkmIvzFLKtA1iN8pncBu4gjxIfqDQNnA2FNYGrpiwNri+rmeg7fLv9IbkCgrErFw5izsu9ly6LHRHcF26UIzr0mWzXUdSrdw7oEia02K/U/JXlLP16eLkHo6s7Cot2HsPIw9MKXNkPj7onpy78/N+M85tQbMm71jRz0kFDzx2cDLl6pltEQgna7Ool0YafCRTI5eQcrYTVipAmLfTy4eRXrOy5DAa/mJ/TCY7CqcFVJKXoNpxYsbnPzu9OkxphD8=);whiteSpace=wrap;html=1;noLabel=1;_ElementType=ObjectType;" vertex="1" parent="1">
            <mxGeometry x="250" y="1039" width="70" height="30" as="geometry" />
          </mxCell>
        </object>
        <object placeholders="1" Name="Straßenangabe" id="t94pPOiG23g_uNMkArds-250">
          <mxCell style="shape=stencil(nVTBcoMgEP0aju2gjB+Qsekxl3amZ4LbyATBAWri3xdEGjXYms542ffc93bZBURKU9MWUI4lbQCRF5TnO2MU49RyJd97z+WOrgOXYRziyyKmpgVmA9hRzelRjJnGanWGC6/sqMFlDZpbz5I9wjv3j/9IyZSUTsT5mhkz4Z0Y5dLl4msQw89FsOnHOEStc2jAgh7LDOitx8MAvG63mZtE079sPh60yf5ns3+0m8WhZdts3hI2pHTI2uBIeaTsfNLqS1bJ4lrql+KOiHSjOrhVXeDEpFNNx3TB5ST9Z1X7mdx2gYV/1Nsu8LA/E8rA2mAdvnJ8pPzkQoR7l5zXylRcntLwy7gsXG240aEFlBcHvx35uE7pg4ohFfwkA8RA+jUb4G6CN7yq4rsxwE/heZptqaAMaiUq0GZKJPq8a2dAR0kPfAM=);whiteSpace=wrap;html=1;noLabel=1;_ElementType=AssociationType;glass=0;strokeColor=#000000;strokeWidth=1;fillColor=#ffffff;fontSize=8;fontColor=none;align=left;" vertex="1" parent="1">
            <mxGeometry x="110" y="1036.5" width="100" height="35" as="geometry" />
          </mxCell>
        </object>
        <object placeholders="1" Role="Straße" BoundaryUp="1" BoundaryLow="1" id="t94pPOiG23g_uNMkArds-251">
          <mxCell style="endArrow=none;html=1;strokeWidth=1;labelBorderColor=none;labelBackgroundColor=none;fontColor=none;exitX=1;exitY=0.5;noLabel=1;_ElementType=AssociationParticipant;fontSize=8;rounded=0;exitDx=0;exitDy=0;" edge="1" parent="1" source="t94pPOiG23g_uNMkArds-248" target="t94pPOiG23g_uNMkArds-250">
            <mxGeometry width="50" height="50" relative="1" as="geometry">
              <mxPoint x="480" y="952.857144716451" as="sourcePoint" />
              <mxPoint x="536" y="953.1428590021651" as="targetPoint" />
            </mxGeometry>
          </mxCell>
        </object>
        <mxCell id="t94pPOiG23g_uNMkArds-252" style="shape=stencil(xZFNTgQhEIVPw9IEIR3XY6srF8boAcqmnK7YAwTK6RlPL1A9sf2JcWdCQup78HhVKNvnESIqoz3sUNkrZcwdJKaBInh+wAMXUuRRtHOtpZ6/1JAjDixwD4ngaUJRMqfwgjM5XjzIj5io+dprpTflTF22fw4Jtym8evdJ+JA9Z3qrYdvWzEzXXrn58Qa3+DWBHFamu6z2kI63YS6VspsVe4xqsdMHudAt3R2ltKdmJ9p6QQN6xiR4v+I7cu40gYbPZNAyNeFxggHHMDlMeS38uZn7UJ/4NfLFf0S2fSHffrPRxbKCdw==);whiteSpace=wrap;html=1;noLabel=1;fontSize=9;" vertex="1" parent="t94pPOiG23g_uNMkArds-251">
          <mxGeometry width="40" height="30" relative="1" as="geometry">
            <mxPoint x="-19.5" y="-14" as="offset" />
          </mxGeometry>
        </mxCell>
        <object placeholders="1" Role="Strname" BoundaryUp="*" BoundaryLow="1" id="t94pPOiG23g_uNMkArds-253">
          <mxCell style="endArrow=none;html=1;strokeWidth=1;labelBorderColor=none;labelBackgroundColor=none;fontColor=none;exitX=1;exitY=0.5;entryX=0;entryY=0.5;noLabel=1;_ElementType=AssociationParticipant;fontSize=8;rounded=0;exitDx=0;exitDy=0;entryDx=0;entryDy=0;" edge="1" parent="1" source="t94pPOiG23g_uNMkArds-250" target="t94pPOiG23g_uNMkArds-249">
            <mxGeometry width="50" height="50" relative="1" as="geometry">
              <mxPoint x="480" y="952.857144716451" as="sourcePoint" />
              <mxPoint x="536" y="953.1428590021651" as="targetPoint" />
            </mxGeometry>
          </mxCell>
        </object>
        <mxCell id="t94pPOiG23g_uNMkArds-254" style="shape=stencil(xZFNTgQhEIVPw9IEIR3XY6srF8boAcqmnK7YAwTK6RlPL1A9sf2JcWdCQup78HhVKNvnESIqoz3sUNkrZcwdJKaBInh+wAMXUuRRtHOtpZ6/1JAjDixwD4ngaUJRMqfwgjM5XjzIj5io+dprpTflTF22fw4Jtym8evdJ+JA9Z3qrYdvWzEzXXrn58Qa3+DWBHFamu6z2kI63YS6VspsVe4xqsdMHudAt3R2ltKdmJ9p6QQN6xiR4v+I7cu40gYbPZNAyNeFxggHHMDlMeS38uZn7UJ/4NfLFf0S2fSHffrPRxbKCdw==);whiteSpace=wrap;html=1;noLabel=1;fontSize=9;" vertex="1" parent="t94pPOiG23g_uNMkArds-253">
          <mxGeometry width="40" height="30" relative="1" as="geometry">
            <mxPoint x="-19.5" y="-14" as="offset" />
          </mxGeometry>
        </mxCell>
        <mxCell id="t94pPOiG23g_uNMkArds-255" value="Eine Straßenangabe besteht aus einer Hausnummer" style="text;html=1;align=center;verticalAlign=middle;resizable=0;points=[];autosize=1;strokeColor=none;fillColor=none;" vertex="1" parent="1">
          <mxGeometry y="1089" width="300" height="20" as="geometry" />
        </mxCell>
        <object Name="Straße" placeholders="1" id="t94pPOiG23g_uNMkArds-256">
          <mxCell style="shape=stencil(pZZdb4MgFIZ/DZdbFGJ6vTh32V5sSa9RzyorgkHXj38/EJtqZ1uExMSc9yDPefEIIpK2FW0A4UjQGhB5Rxhv8h8ouq+zkbHOHK0cR5GNq5uYto0eb8UDVYzmvH+SZCh603lzkbSQQuhhTIp2khnl205RJjodn+xsA+A8iRpQrIYO1FCGVa/lr7e98uFOecWJF8iD5AdajFl5GsoWkmIvzFLKtA1iN8pncBu4gjxIfqDQNnA2FNYGrpiwNri+rmeg7fLv9IbkCgrErFw5izsu9ly6LHRHcF26UIzr0mWzXUdSrdw7oEia02K/U/JXlLP16eLkHo6s7Cot2HsPIw9MKXNkPj7onpy78/N+M85tQbMm71jRz0kFDzx2cDLl6pltEQgna7Ool0YafCRTI5eQcrYTVipAmLfTy4eRXrOy5DAa/mJ/TCY7CqcFVJKXoNpxYsbnPzu9OkxphD8=);whiteSpace=wrap;html=1;noLabel=1;_ElementType=ObjectType;" vertex="1" parent="1">
            <mxGeometry y="1129" width="70" height="30" as="geometry" />
          </mxCell>
        </object>
        <object Name="Hausnummer" placeholders="1" id="t94pPOiG23g_uNMkArds-257">
          <mxCell style="shape=stencil(pZZdb4MgFIZ/DZdbFGJ6vTh32V5sSa9RzyorgkHXj38/EJtqZ1uExMSc9yDPefEIIpK2FW0A4UjQGhB5Rxhv8h8ouq+zkbHOHK0cR5GNq5uYto0eb8UDVYzmvH+SZCh603lzkbSQQuhhTIp2khnl205RJjodn+xsA+A8iRpQrIYO1FCGVa/lr7e98uFOecWJF8iD5AdajFl5GsoWkmIvzFLKtA1iN8pncBu4gjxIfqDQNnA2FNYGrpiwNri+rmeg7fLv9IbkCgrErFw5izsu9ly6LHRHcF26UIzr0mWzXUdSrdw7oEia02K/U/JXlLP16eLkHo6s7Cot2HsPIw9MKXNkPj7onpy78/N+M85tQbMm71jRz0kFDzx2cDLl6pltEQgna7Ool0YafCRTI5eQcrYTVipAmLfTy4eRXrOy5DAa/mJ/TCY7CqcFVJKXoNpxYsbnPzu9OkxphD8=);whiteSpace=wrap;html=1;noLabel=1;_ElementType=ObjectType;" vertex="1" parent="1">
            <mxGeometry x="260" y="1129" width="70" height="30" as="geometry" />
          </mxCell>
        </object>
        <object placeholders="1" Name="Straßenangabe" id="t94pPOiG23g_uNMkArds-258">
          <mxCell style="shape=stencil(nVTBcoMgEP0aju2gjB+Qsekxl3amZ4LbyATBAWri3xdEGjXYms542ffc93bZBURKU9MWUI4lbQCRF5TnO2MU49RyJd97z+WOrgOXYRziyyKmpgVmA9hRzelRjJnGanWGC6/sqMFlDZpbz5I9wjv3j/9IyZSUTsT5mhkz4Z0Y5dLl4msQw89FsOnHOEStc2jAgh7LDOitx8MAvG63mZtE079sPh60yf5ns3+0m8WhZdts3hI2pHTI2uBIeaTsfNLqS1bJ4lrql+KOiHSjOrhVXeDEpFNNx3TB5ST9Z1X7mdx2gYV/1Nsu8LA/E8rA2mAdvnJ8pPzkQoR7l5zXylRcntLwy7gsXG240aEFlBcHvx35uE7pg4ohFfwkA8RA+jUb4G6CN7yq4rsxwE/heZptqaAMaiUq0GZKJPq8a2dAR0kPfAM=);whiteSpace=wrap;html=1;noLabel=1;_ElementType=AssociationType;glass=0;strokeColor=#000000;strokeWidth=1;fillColor=#ffffff;fontSize=8;fontColor=none;align=left;" vertex="1" parent="1">
            <mxGeometry x="110" y="1121.5" width="100" height="45" as="geometry" />
          </mxCell>
        </object>
        <object placeholders="1" Role="Straße" BoundaryUp="1" BoundaryLow="1" id="t94pPOiG23g_uNMkArds-259">
          <mxCell style="endArrow=none;html=1;strokeWidth=1;labelBorderColor=none;labelBackgroundColor=none;fontColor=none;exitX=1;exitY=0.5;entryX=0;entryY=0.5;noLabel=1;_ElementType=AssociationParticipant;fontSize=8;rounded=0;exitDx=0;exitDy=0;entryDx=0;entryDy=0;" edge="1" parent="1" source="t94pPOiG23g_uNMkArds-256" target="t94pPOiG23g_uNMkArds-258">
            <mxGeometry width="50" height="50" relative="1" as="geometry">
              <mxPoint x="80" y="1142.8571447164509" as="sourcePoint" />
              <mxPoint x="136" y="1143.142859002165" as="targetPoint" />
            </mxGeometry>
          </mxCell>
        </object>
        <mxCell id="t94pPOiG23g_uNMkArds-260" style="shape=stencil(xZFNTgQhEIVPw9IEIR3XY6srF8boAcqmnK7YAwTK6RlPL1A9sf2JcWdCQup78HhVKNvnESIqoz3sUNkrZcwdJKaBInh+wAMXUuRRtHOtpZ6/1JAjDixwD4ngaUJRMqfwgjM5XjzIj5io+dprpTflTF22fw4Jtym8evdJ+JA9Z3qrYdvWzEzXXrn58Qa3+DWBHFamu6z2kI63YS6VspsVe4xqsdMHudAt3R2ltKdmJ9p6QQN6xiR4v+I7cu40gYbPZNAyNeFxggHHMDlMeS38uZn7UJ/4NfLFf0S2fSHffrPRxbKCdw==);whiteSpace=wrap;html=1;noLabel=1;fontSize=9;" vertex="1" parent="t94pPOiG23g_uNMkArds-259">
          <mxGeometry width="40" height="30" relative="1" as="geometry">
            <mxPoint x="-19.5" y="-14" as="offset" />
          </mxGeometry>
        </mxCell>
        <object placeholders="1" Role="Hausnummer" BoundaryUp="*" BoundaryLow="1" id="t94pPOiG23g_uNMkArds-261">
          <mxCell style="endArrow=none;html=1;strokeWidth=1;labelBorderColor=none;labelBackgroundColor=none;fontColor=none;exitX=1;exitY=0.5;entryX=0;entryY=0.5;noLabel=1;_ElementType=AssociationParticipant;fontSize=8;rounded=0;exitDx=0;exitDy=0;entryDx=0;entryDy=0;" edge="1" parent="1" source="t94pPOiG23g_uNMkArds-258" target="t94pPOiG23g_uNMkArds-257">
            <mxGeometry width="50" height="50" relative="1" as="geometry">
              <mxPoint x="230" y="1142.8571447164509" as="sourcePoint" />
              <mxPoint x="286" y="1143.142859002165" as="targetPoint" />
            </mxGeometry>
          </mxCell>
        </object>
        <mxCell id="t94pPOiG23g_uNMkArds-262" style="shape=stencil(xZFNTgQhEIVPw9IEIR3XY6srF8boAcqmnK7YAwTK6RlPL1A9sf2JcWdCQup78HhVKNvnESIqoz3sUNkrZcwdJKaBInh+wAMXUuRRtHOtpZ6/1JAjDixwD4ngaUJRMqfwgjM5XjzIj5io+dprpTflTF22fw4Jtym8evdJ+JA9Z3qrYdvWzEzXXrn58Qa3+DWBHFamu6z2kI63YS6VspsVe4xqsdMHudAt3R2ltKdmJ9p6QQN6xiR4v+I7cu40gYbPZNAyNeFxggHHMDlMeS38uZn7UJ/4NfLFf0S2fSHffrPRxbKCdw==);whiteSpace=wrap;html=1;noLabel=1;fontSize=9;" vertex="1" parent="t94pPOiG23g_uNMkArds-261">
          <mxGeometry width="40" height="30" relative="1" as="geometry">
            <mxPoint x="-19.5" y="-14" as="offset" />
          </mxGeometry>
        </mxCell>
        <mxCell id="t94pPOiG23g_uNMkArds-263" value="&lt;font style=&quot;font-size: 20px;&quot;&gt;&lt;b&gt;Straßenangabe&lt;/b&gt;&lt;/font&gt;" style="text;whiteSpace=wrap;html=1;align=center;" vertex="1" parent="1">
          <mxGeometry x="50" y="962.5" width="220" height="30" as="geometry" />
        </mxCell>
        <mxCell id="t94pPOiG23g_uNMkArds-265" value="&lt;font style=&quot;font-size: 20px;&quot;&gt;&lt;b&gt;Person&lt;/b&gt;&lt;/font&gt;" style="text;whiteSpace=wrap;html=1;align=center;" vertex="1" parent="1">
          <mxGeometry x="530" y="1201.5" width="220" height="30" as="geometry" />
        </mxCell>
        <object Name="Person" placeholders="1" id="t94pPOiG23g_uNMkArds-266">
          <mxCell style="shape=stencil(pZZdb4MgFIZ/DZdbFGJ6vTh32V5sSa9RzyorgkHXj38/EJtqZ1uExMSc9yDPefEIIpK2FW0A4UjQGhB5Rxhv8h8ouq+zkbHOHK0cR5GNq5uYto0eb8UDVYzmvH+SZCh603lzkbSQQuhhTIp2khnl205RJjodn+xsA+A8iRpQrIYO1FCGVa/lr7e98uFOecWJF8iD5AdajFl5GsoWkmIvzFLKtA1iN8pncBu4gjxIfqDQNnA2FNYGrpiwNri+rmeg7fLv9IbkCgrErFw5izsu9ly6LHRHcF26UIzr0mWzXUdSrdw7oEia02K/U/JXlLP16eLkHo6s7Cot2HsPIw9MKXNkPj7onpy78/N+M85tQbMm71jRz0kFDzx2cDLl6pltEQgna7Ool0YafCRTI5eQcrYTVipAmLfTy4eRXrOy5DAa/mJ/TCY7CqcFVJKXoNpxYsbnPzu9OkxphD8=);whiteSpace=wrap;html=1;noLabel=1;_ElementType=ObjectType;" vertex="1" parent="1">
            <mxGeometry x="601.25" y="1239" width="70" height="30" as="geometry" />
          </mxCell>
        </object>
        <object placeholders="1" MergeType="OR" id="t94pPOiG23g_uNMkArds-267">
          <mxCell style="shape=stencil(nVTLboMwEPwaH1sBFh9Q0bSn5tJKPTuwASvGRrabhHx9ba9RgUKaVEKydvYx4/UuhBamYR2QLJGsBUKfSZa9ggTNBL8wy5UslJRQWqWdx4U1GJMmCdqnmc1M56IRPDLN2U4AeozV6gAnXtlYg8sGNLfeSzckeXIx/qNFiZSO3Ew8I78rxrh0uckZiyWPOdL00UarcwwtWNBRJqI/d90G4OV2minJQPoXzeedNOn/aDb33mbWtPQ2mvcFGlo4ZO3haLFj5aHW6ktWi+JACN4ZWO3z8qzNZnH53nsuBI7eouQVYS5PabiieK+kNfziJYcjKKH5NSE+w/YipIRz1N3lFAtni5uDsSTL30DX8NH7lY1vFzuWT1s2mG6Pa4lQCdK/aYCPI7zlVTUsaYAf8J8wGQnBSmiUqECbdd2ho78aF9BY0gPf);whiteSpace=wrap;html=1;aspect=fixed;noLabel=1;_ElementType=GeneralizationMerge;" vertex="1" parent="1">
            <mxGeometry x="623.75" y="1289" width="25" height="25" as="geometry" />
          </mxCell>
        </object>
        <object id="t94pPOiG23g_uNMkArds-268">
          <mxCell style="endArrow=open;html=1;strokeWidth=1;labelBackgroundColor=none;fontFamily=Helvetica;fontSize=6;fontColor=#000000;endFill=0;noLabel=1;_ElementType=Generalization;rounded=0;exitX=0.5;exitY=0;exitDx=0;exitDy=0;entryX=0.5;entryY=1;entryDx=0;entryDy=0;" edge="1" parent="1" source="t94pPOiG23g_uNMkArds-267" target="t94pPOiG23g_uNMkArds-266">
            <mxGeometry width="50" height="50" relative="1" as="geometry">
              <mxPoint x="643.75" y="1289" as="sourcePoint" />
              <mxPoint x="603.75" y="1249" as="targetPoint" />
              <Array as="points" />
            </mxGeometry>
          </mxCell>
        </object>
        <object Name="Kunde" placeholders="1" id="t94pPOiG23g_uNMkArds-269">
          <mxCell style="shape=stencil(pZZdb4MgFIZ/DZdbFGJ6vTh32V5sSa9RzyorgkHXj38/EJtqZ1uExMSc9yDPefEIIpK2FW0A4UjQGhB5Rxhv8h8ouq+zkbHOHK0cR5GNq5uYto0eb8UDVYzmvH+SZCh603lzkbSQQuhhTIp2khnl205RJjodn+xsA+A8iRpQrIYO1FCGVa/lr7e98uFOecWJF8iD5AdajFl5GsoWkmIvzFLKtA1iN8pncBu4gjxIfqDQNnA2FNYGrpiwNri+rmeg7fLv9IbkCgrErFw5izsu9ly6LHRHcF26UIzr0mWzXUdSrdw7oEia02K/U/JXlLP16eLkHo6s7Cot2HsPIw9MKXNkPj7onpy78/N+M85tQbMm71jRz0kFDzx2cDLl6pltEQgna7Ool0YafCRTI5eQcrYTVipAmLfTy4eRXrOy5DAa/mJ/TCY7CqcFVJKXoNpxYsbnPzu9OkxphD8=);whiteSpace=wrap;html=1;noLabel=1;_ElementType=ObjectType;" vertex="1" parent="1">
            <mxGeometry x="526.25" y="1310" width="70" height="40" as="geometry" />
          </mxCell>
        </object>
        <object Name="Mitarbeiter" placeholders="1" id="t94pPOiG23g_uNMkArds-270">
          <mxCell style="shape=stencil(pZZdb4MgFIZ/DZdbFGJ6vTh32V5sSa9RzyorgkHXj38/EJtqZ1uExMSc9yDPefEIIpK2FW0A4UjQGhB5Rxhv8h8ouq+zkbHOHK0cR5GNq5uYto0eb8UDVYzmvH+SZCh603lzkbSQQuhhTIp2khnl205RJjodn+xsA+A8iRpQrIYO1FCGVa/lr7e98uFOecWJF8iD5AdajFl5GsoWkmIvzFLKtA1iN8pncBu4gjxIfqDQNnA2FNYGrpiwNri+rmeg7fLv9IbkCgrErFw5izsu9ly6LHRHcF26UIzr0mWzXUdSrdw7oEia02K/U/JXlLP16eLkHo6s7Cot2HsPIw9MKXNkPj7onpy78/N+M85tQbMm71jRz0kFDzx2cDLl6pltEQgna7Ool0YafCRTI5eQcrYTVipAmLfTy4eRXrOy5DAa/mJ/TCY7CqcFVJKXoNpxYsbnPzu9OkxphD8=);whiteSpace=wrap;html=1;noLabel=1;_ElementType=ObjectType;" vertex="1" parent="1">
            <mxGeometry x="676.25" y="1310" width="72.5" height="40" as="geometry" />
          </mxCell>
        </object>
        <object id="t94pPOiG23g_uNMkArds-271">
          <mxCell style="endArrow=open;html=1;strokeWidth=1;labelBackgroundColor=none;fontFamily=Helvetica;fontSize=6;fontColor=#000000;endFill=0;noLabel=1;_ElementType=Generalization;rounded=0;entryX=1;entryY=0.5;entryDx=0;entryDy=0;exitX=0;exitY=0;exitDx=0;exitDy=0;" edge="1" parent="1" source="t94pPOiG23g_uNMkArds-270" target="t94pPOiG23g_uNMkArds-267">
            <mxGeometry width="50" height="50" relative="1" as="geometry">
              <mxPoint x="963.75" y="1389" as="sourcePoint" />
              <mxPoint x="923.75" y="1349" as="targetPoint" />
              <Array as="points" />
            </mxGeometry>
          </mxCell>
        </object>
        <object id="t94pPOiG23g_uNMkArds-272">
          <mxCell style="endArrow=open;html=1;strokeWidth=1;labelBackgroundColor=none;fontFamily=Helvetica;fontSize=6;fontColor=#000000;endFill=0;noLabel=1;_ElementType=Generalization;rounded=0;exitX=1;exitY=0;exitDx=0;exitDy=0;entryX=0;entryY=0.5;entryDx=0;entryDy=0;" edge="1" parent="1" source="t94pPOiG23g_uNMkArds-269" target="t94pPOiG23g_uNMkArds-267">
            <mxGeometry width="50" height="50" relative="1" as="geometry">
              <mxPoint x="963.75" y="1389" as="sourcePoint" />
              <mxPoint x="923.75" y="1349" as="targetPoint" />
              <Array as="points" />
            </mxGeometry>
          </mxCell>
        </object>
        <object Name="Person" placeholders="1" id="t94pPOiG23g_uNMkArds-273">
          <mxCell style="shape=stencil(pZZdb4MgFIZ/DZdbFGJ6vTh32V5sSa9RzyorgkHXj38/EJtqZ1uExMSc9yDPefEIIpK2FW0A4UjQGhB5Rxhv8h8ouq+zkbHOHK0cR5GNq5uYto0eb8UDVYzmvH+SZCh603lzkbSQQuhhTIp2khnl205RJjodn+xsA+A8iRpQrIYO1FCGVa/lr7e98uFOecWJF8iD5AdajFl5GsoWkmIvzFLKtA1iN8pncBu4gjxIfqDQNnA2FNYGrpiwNri+rmeg7fLv9IbkCgrErFw5izsu9ly6LHRHcF26UIzr0mWzXUdSrdw7oEia02K/U/JXlLP16eLkHo6s7Cot2HsPIw9MKXNkPj7onpy78/N+M85tQbMm71jRz0kFDzx2cDLl6pltEQgna7Ool0YafCRTI5eQcrYTVipAmLfTy4eRXrOy5DAa/mJ/TCY7CqcFVJKXoNpxYsbnPzu9OkxphD8=);whiteSpace=wrap;html=1;noLabel=1;_ElementType=ObjectType;" vertex="1" parent="1">
            <mxGeometry x="480" y="1420" width="70" height="30" as="geometry" />
          </mxCell>
        </object>
        <mxCell id="t94pPOiG23g_uNMkArds-274" value="Eine Person hat Vor- und Nachname" style="text;html=1;align=center;verticalAlign=middle;resizable=0;points=[];autosize=1;strokeColor=none;fillColor=none;" vertex="1" parent="1">
          <mxGeometry x="526.25" y="1372" width="220" height="30" as="geometry" />
        </mxCell>
        <object Name="Vorname" placeholders="1" id="t94pPOiG23g_uNMkArds-275">
          <mxCell style="shape=stencil(pZZdb4MgFIZ/DZdbFGJ6vTh32V5sSa9RzyorgkHXj38/EJtqZ1uExMSc9yDPefEIIpK2FW0A4UjQGhB5Rxhv8h8ouq+zkbHOHK0cR5GNq5uYto0eb8UDVYzmvH+SZCh603lzkbSQQuhhTIp2khnl205RJjodn+xsA+A8iRpQrIYO1FCGVa/lr7e98uFOecWJF8iD5AdajFl5GsoWkmIvzFLKtA1iN8pncBu4gjxIfqDQNnA2FNYGrpiwNri+rmeg7fLv9IbkCgrErFw5izsu9ly6LHRHcF26UIzr0mWzXUdSrdw7oEia02K/U/JXlLP16eLkHo6s7Cot2HsPIw9MKXNkPj7onpy78/N+M85tQbMm71jRz0kFDzx2cDLl6pltEQgna7Ool0YafCRTI5eQcrYTVipAmLfTy4eRXrOy5DAa/mJ/TCY7CqcFVJKXoNpxYsbnPzu9OkxphD8=);whiteSpace=wrap;html=1;noLabel=1;_ElementType=ObjectType;" vertex="1" parent="1">
            <mxGeometry x="720" y="1420" width="70" height="30" as="geometry" />
          </mxCell>
        </object>
        <object placeholders="1" Name="PVorname" id="t94pPOiG23g_uNMkArds-276">
          <mxCell style="shape=stencil(nVTBcoMgEP0aju2gjB+Qsekxl3amZ4LbyATBAWri3xdEGjXYms542ffc93bZBURKU9MWUI4lbQCRF5TnO2MU49RyJd97z+WOrgOXYRziyyKmpgVmA9hRzelRjJnGanWGC6/sqMFlDZpbz5I9wjv3j/9IyZSUTsT5mhkz4Z0Y5dLl4msQw89FsOnHOEStc2jAgh7LDOitx8MAvG63mZtE079sPh60yf5ns3+0m8WhZdts3hI2pHTI2uBIeaTsfNLqS1bJ4lrql+KOiHSjOrhVXeDEpFNNx3TB5ST9Z1X7mdx2gYV/1Nsu8LA/E8rA2mAdvnJ8pPzkQoR7l5zXylRcntLwy7gsXG240aEFlBcHvx35uE7pg4ohFfwkA8RA+jUb4G6CN7yq4rsxwE/heZptqaAMaiUq0GZKJPq8a2dAR0kPfAM=);whiteSpace=wrap;html=1;noLabel=1;_ElementType=AssociationType;glass=0;strokeColor=#000000;strokeWidth=1;fillColor=#ffffff;fontSize=8;fontColor=none;align=left;" vertex="1" parent="1">
            <mxGeometry x="602.5" y="1420" width="75" height="30" as="geometry" />
          </mxCell>
        </object>
        <object placeholders="1" Role="Person" BoundaryUp="*" BoundaryLow="1" id="t94pPOiG23g_uNMkArds-277">
          <mxCell style="endArrow=none;html=1;strokeWidth=1;labelBorderColor=none;labelBackgroundColor=none;fontColor=none;exitX=1;exitY=0.5;entryX=0;entryY=0.5;noLabel=1;_ElementType=AssociationParticipant;fontSize=8;rounded=0;exitDx=0;exitDy=0;entryDx=0;entryDy=0;" edge="1" parent="1" source="t94pPOiG23g_uNMkArds-273" target="t94pPOiG23g_uNMkArds-276">
            <mxGeometry width="50" height="50" relative="1" as="geometry">
              <mxPoint x="907.5" y="1518.8571447164509" as="sourcePoint" />
              <mxPoint x="963.5" y="1519.142859002165" as="targetPoint" />
            </mxGeometry>
          </mxCell>
        </object>
        <mxCell id="t94pPOiG23g_uNMkArds-278" style="shape=stencil(xZFNTgQhEIVPw9IEIR3XY6srF8boAcqmnK7YAwTK6RlPL1A9sf2JcWdCQup78HhVKNvnESIqoz3sUNkrZcwdJKaBInh+wAMXUuRRtHOtpZ6/1JAjDixwD4ngaUJRMqfwgjM5XjzIj5io+dprpTflTF22fw4Jtym8evdJ+JA9Z3qrYdvWzEzXXrn58Qa3+DWBHFamu6z2kI63YS6VspsVe4xqsdMHudAt3R2ltKdmJ9p6QQN6xiR4v+I7cu40gYbPZNAyNeFxggHHMDlMeS38uZn7UJ/4NfLFf0S2fSHffrPRxbKCdw==);whiteSpace=wrap;html=1;noLabel=1;fontSize=9;" vertex="1" parent="t94pPOiG23g_uNMkArds-277">
          <mxGeometry width="40" height="30" relative="1" as="geometry">
            <mxPoint x="-19.5" y="-14" as="offset" />
          </mxGeometry>
        </mxCell>
        <object placeholders="1" Role="Vorname" BoundaryUp="*" BoundaryLow="1" id="t94pPOiG23g_uNMkArds-279">
          <mxCell style="endArrow=none;html=1;strokeWidth=1;labelBorderColor=none;labelBackgroundColor=none;fontColor=none;exitX=1;exitY=0.5;entryX=0;entryY=0.5;noLabel=1;_ElementType=AssociationParticipant;fontSize=8;rounded=0;exitDx=0;exitDy=0;entryDx=0;entryDy=0;" edge="1" parent="1" source="t94pPOiG23g_uNMkArds-276" target="t94pPOiG23g_uNMkArds-275">
            <mxGeometry width="50" height="50" relative="1" as="geometry">
              <mxPoint x="687.5" y="1458.8571447164509" as="sourcePoint" />
              <mxPoint x="743.5" y="1459.142859002165" as="targetPoint" />
            </mxGeometry>
          </mxCell>
        </object>
        <mxCell id="t94pPOiG23g_uNMkArds-280" style="shape=stencil(xZFNTgQhEIVPw9IEIR3XY6srF8boAcqmnK7YAwTK6RlPL1A9sf2JcWdCQup78HhVKNvnESIqoz3sUNkrZcwdJKaBInh+wAMXUuRRtHOtpZ6/1JAjDixwD4ngaUJRMqfwgjM5XjzIj5io+dprpTflTF22fw4Jtym8evdJ+JA9Z3qrYdvWzEzXXrn58Qa3+DWBHFamu6z2kI63YS6VspsVe4xqsdMHudAt3R2ltKdmJ9p6QQN6xiR4v+I7cu40gYbPZNAyNeFxggHHMDlMeS38uZn7UJ/4NfLFf0S2fSHffrPRxbKCdw==);whiteSpace=wrap;html=1;noLabel=1;fontSize=9;" vertex="1" parent="t94pPOiG23g_uNMkArds-279">
          <mxGeometry width="40" height="30" relative="1" as="geometry">
            <mxPoint x="-19.5" y="-14" as="offset" />
          </mxGeometry>
        </mxCell>
        <object Name="Person" placeholders="1" id="t94pPOiG23g_uNMkArds-281">
          <mxCell style="shape=stencil(pZZdb4MgFIZ/DZdbFGJ6vTh32V5sSa9RzyorgkHXj38/EJtqZ1uExMSc9yDPefEIIpK2FW0A4UjQGhB5Rxhv8h8ouq+zkbHOHK0cR5GNq5uYto0eb8UDVYzmvH+SZCh603lzkbSQQuhhTIp2khnl205RJjodn+xsA+A8iRpQrIYO1FCGVa/lr7e98uFOecWJF8iD5AdajFl5GsoWkmIvzFLKtA1iN8pncBu4gjxIfqDQNnA2FNYGrpiwNri+rmeg7fLv9IbkCgrErFw5izsu9ly6LHRHcF26UIzr0mWzXUdSrdw7oEia02K/U/JXlLP16eLkHo6s7Cot2HsPIw9MKXNkPj7onpy78/N+M85tQbMm71jRz0kFDzx2cDLl6pltEQgna7Ool0YafCRTI5eQcrYTVipAmLfTy4eRXrOy5DAa/mJ/TCY7CqcFVJKXoNpxYsbnPzu9OkxphD8=);whiteSpace=wrap;html=1;noLabel=1;_ElementType=ObjectType;" vertex="1" parent="1">
            <mxGeometry x="480" y="1470" width="70" height="30" as="geometry" />
          </mxCell>
        </object>
        <object Name="Nachname" placeholders="1" id="t94pPOiG23g_uNMkArds-282">
          <mxCell style="shape=stencil(pZZdb4MgFIZ/DZdbFGJ6vTh32V5sSa9RzyorgkHXj38/EJtqZ1uExMSc9yDPefEIIpK2FW0A4UjQGhB5Rxhv8h8ouq+zkbHOHK0cR5GNq5uYto0eb8UDVYzmvH+SZCh603lzkbSQQuhhTIp2khnl205RJjodn+xsA+A8iRpQrIYO1FCGVa/lr7e98uFOecWJF8iD5AdajFl5GsoWkmIvzFLKtA1iN8pncBu4gjxIfqDQNnA2FNYGrpiwNri+rmeg7fLv9IbkCgrErFw5izsu9ly6LHRHcF26UIzr0mWzXUdSrdw7oEia02K/U/JXlLP16eLkHo6s7Cot2HsPIw9MKXNkPj7onpy78/N+M85tQbMm71jRz0kFDzx2cDLl6pltEQgna7Ool0YafCRTI5eQcrYTVipAmLfTy4eRXrOy5DAa/mJ/TCY7CqcFVJKXoNpxYsbnPzu9OkxphD8=);whiteSpace=wrap;html=1;noLabel=1;_ElementType=ObjectType;" vertex="1" parent="1">
            <mxGeometry x="720" y="1470" width="70" height="30" as="geometry" />
          </mxCell>
        </object>
        <object placeholders="1" Name="PNachname" id="t94pPOiG23g_uNMkArds-283">
          <mxCell style="shape=stencil(nVTBcoMgEP0aju2gjB+Qsekxl3amZ4LbyATBAWri3xdEGjXYms542ffc93bZBURKU9MWUI4lbQCRF5TnO2MU49RyJd97z+WOrgOXYRziyyKmpgVmA9hRzelRjJnGanWGC6/sqMFlDZpbz5I9wjv3j/9IyZSUTsT5mhkz4Z0Y5dLl4msQw89FsOnHOEStc2jAgh7LDOitx8MAvG63mZtE079sPh60yf5ns3+0m8WhZdts3hI2pHTI2uBIeaTsfNLqS1bJ4lrql+KOiHSjOrhVXeDEpFNNx3TB5ST9Z1X7mdx2gYV/1Nsu8LA/E8rA2mAdvnJ8pPzkQoR7l5zXylRcntLwy7gsXG240aEFlBcHvx35uE7pg4ohFfwkA8RA+jUb4G6CN7yq4rsxwE/heZptqaAMaiUq0GZKJPq8a2dAR0kPfAM=);whiteSpace=wrap;html=1;noLabel=1;_ElementType=AssociationType;glass=0;strokeColor=#000000;strokeWidth=1;fillColor=#ffffff;fontSize=8;fontColor=none;align=left;" vertex="1" parent="1">
            <mxGeometry x="602.5" y="1472.5" width="75" height="25" as="geometry" />
          </mxCell>
        </object>
        <object placeholders="1" Role="Person" BoundaryUp="*" BoundaryLow="1" id="t94pPOiG23g_uNMkArds-284">
          <mxCell style="endArrow=none;html=1;strokeWidth=1;labelBorderColor=none;labelBackgroundColor=none;fontColor=none;exitX=1;exitY=0.5;entryX=0;entryY=0.5;noLabel=1;_ElementType=AssociationParticipant;fontSize=8;rounded=0;exitDx=0;exitDy=0;entryDx=0;entryDy=0;" edge="1" parent="1" source="t94pPOiG23g_uNMkArds-281" target="t94pPOiG23g_uNMkArds-283">
            <mxGeometry width="50" height="50" relative="1" as="geometry">
              <mxPoint x="528.75" y="1511.3571447164509" as="sourcePoint" />
              <mxPoint x="584.75" y="1511.642859002165" as="targetPoint" />
            </mxGeometry>
          </mxCell>
        </object>
        <mxCell id="t94pPOiG23g_uNMkArds-285" style="shape=stencil(xZFNTgQhEIVPw9IEIR3XY6srF8boAcqmnK7YAwTK6RlPL1A9sf2JcWdCQup78HhVKNvnESIqoz3sUNkrZcwdJKaBInh+wAMXUuRRtHOtpZ6/1JAjDixwD4ngaUJRMqfwgjM5XjzIj5io+dprpTflTF22fw4Jtym8evdJ+JA9Z3qrYdvWzEzXXrn58Qa3+DWBHFamu6z2kI63YS6VspsVe4xqsdMHudAt3R2ltKdmJ9p6QQN6xiR4v+I7cu40gYbPZNAyNeFxggHHMDlMeS38uZn7UJ/4NfLFf0S2fSHffrPRxbKCdw==);whiteSpace=wrap;html=1;noLabel=1;fontSize=9;" vertex="1" parent="t94pPOiG23g_uNMkArds-284">
          <mxGeometry width="40" height="30" relative="1" as="geometry">
            <mxPoint x="-19.5" y="-14" as="offset" />
          </mxGeometry>
        </mxCell>
        <object placeholders="1" Role="Nachname" BoundaryUp="*" BoundaryLow="1" id="t94pPOiG23g_uNMkArds-286">
          <mxCell style="endArrow=none;html=1;strokeWidth=1;labelBorderColor=none;labelBackgroundColor=none;fontColor=none;exitX=1;exitY=0.5;entryX=0;entryY=0.5;noLabel=1;_ElementType=AssociationParticipant;fontSize=8;rounded=0;exitDx=0;exitDy=0;entryDx=0;entryDy=0;" edge="1" parent="1" source="t94pPOiG23g_uNMkArds-283" target="t94pPOiG23g_uNMkArds-282">
            <mxGeometry width="50" height="50" relative="1" as="geometry">
              <mxPoint x="668.75" y="1491.3571447164509" as="sourcePoint" />
              <mxPoint x="724.75" y="1491.642859002165" as="targetPoint" />
            </mxGeometry>
          </mxCell>
        </object>
        <mxCell id="t94pPOiG23g_uNMkArds-287" style="shape=stencil(xZFNTgQhEIVPw9IEIR3XY6srF8boAcqmnK7YAwTK6RlPL1A9sf2JcWdCQup78HhVKNvnESIqoz3sUNkrZcwdJKaBInh+wAMXUuRRtHOtpZ6/1JAjDixwD4ngaUJRMqfwgjM5XjzIj5io+dprpTflTF22fw4Jtym8evdJ+JA9Z3qrYdvWzEzXXrn58Qa3+DWBHFamu6z2kI63YS6VspsVe4xqsdMHudAt3R2ltKdmJ9p6QQN6xiR4v+I7cu40gYbPZNAyNeFxggHHMDlMeS38uZn7UJ/4NfLFf0S2fSHffrPRxbKCdw==);whiteSpace=wrap;html=1;noLabel=1;fontSize=9;" vertex="1" parent="t94pPOiG23g_uNMkArds-286">
          <mxGeometry width="40" height="30" relative="1" as="geometry">
            <mxPoint x="-19.5" y="-14" as="offset" />
          </mxGeometry>
        </mxCell>
        <mxCell id="t94pPOiG23g_uNMkArds-310" value="Eine Person hat genau einen Geburtsdatum&amp;nbsp;&lt;br&gt;Mehrere Personen können das gleiche Geburtsdatum haben&amp;nbsp;" style="text;html=1;align=center;verticalAlign=middle;resizable=0;points=[];autosize=1;strokeColor=none;fillColor=none;" vertex="1" parent="1">
          <mxGeometry x="467" y="1530" width="350" height="40" as="geometry" />
        </mxCell>
        <object Name="Person" placeholders="1" id="t94pPOiG23g_uNMkArds-311">
          <mxCell style="shape=stencil(pZZdb4MgFIZ/DZdbFGJ6vTh32V5sSa9RzyorgkHXj38/EJtqZ1uExMSc9yDPefEIIpK2FW0A4UjQGhB5Rxhv8h8ouq+zkbHOHK0cR5GNq5uYto0eb8UDVYzmvH+SZCh603lzkbSQQuhhTIp2khnl205RJjodn+xsA+A8iRpQrIYO1FCGVa/lr7e98uFOecWJF8iD5AdajFl5GsoWkmIvzFLKtA1iN8pncBu4gjxIfqDQNnA2FNYGrpiwNri+rmeg7fLv9IbkCgrErFw5izsu9ly6LHRHcF26UIzr0mWzXUdSrdw7oEia02K/U/JXlLP16eLkHo6s7Cot2HsPIw9MKXNkPj7onpy78/N+M85tQbMm71jRz0kFDzx2cDLl6pltEQgna7Ool0YafCRTI5eQcrYTVipAmLfTy4eRXrOy5DAa/mJ/TCY7CqcFVJKXoNpxYsbnPzu9OkxphD8=);whiteSpace=wrap;html=1;noLabel=1;_ElementType=ObjectType;" vertex="1" parent="1">
            <mxGeometry x="462" y="1585" width="70" height="30" as="geometry" />
          </mxCell>
        </object>
        <object Name="Geburtsdatum" placeholders="1" id="t94pPOiG23g_uNMkArds-312">
          <mxCell style="shape=stencil(pZZdb4MgFIZ/DZdbFGJ6vTh32V5sSa9RzyorgkHXj38/EJtqZ1uExMSc9yDPefEIIpK2FW0A4UjQGhB5Rxhv8h8ouq+zkbHOHK0cR5GNq5uYto0eb8UDVYzmvH+SZCh603lzkbSQQuhhTIp2khnl205RJjodn+xsA+A8iRpQrIYO1FCGVa/lr7e98uFOecWJF8iD5AdajFl5GsoWkmIvzFLKtA1iN8pncBu4gjxIfqDQNnA2FNYGrpiwNri+rmeg7fLv9IbkCgrErFw5izsu9ly6LHRHcF26UIzr0mWzXUdSrdw7oEia02K/U/JXlLP16eLkHo6s7Cot2HsPIw9MKXNkPj7onpy78/N+M85tQbMm71jRz0kFDzx2cDLl6pltEQgna7Ool0YafCRTI5eQcrYTVipAmLfTy4eRXrOy5DAa/mJ/TCY7CqcFVJKXoNpxYsbnPzu9OkxphD8=);whiteSpace=wrap;html=1;noLabel=1;_ElementType=ObjectType;" vertex="1" parent="1">
            <mxGeometry x="752" y="1585" width="70" height="30" as="geometry" />
          </mxCell>
        </object>
        <object placeholders="1" Name="PGebDatum" id="t94pPOiG23g_uNMkArds-313">
          <mxCell style="shape=stencil(nVTBcoMgEP0aju2gjB+Qsekxl3amZ4LbyATBAWri3xdEGjXYms542ffc93bZBURKU9MWUI4lbQCRF5TnO2MU49RyJd97z+WOrgOXYRziyyKmpgVmA9hRzelRjJnGanWGC6/sqMFlDZpbz5I9wjv3j/9IyZSUTsT5mhkz4Z0Y5dLl4msQw89FsOnHOEStc2jAgh7LDOitx8MAvG63mZtE079sPh60yf5ns3+0m8WhZdts3hI2pHTI2uBIeaTsfNLqS1bJ4lrql+KOiHSjOrhVXeDEpFNNx3TB5ST9Z1X7mdx2gYV/1Nsu8LA/E8rA2mAdvnJ8pPzkQoR7l5zXylRcntLwy7gsXG240aEFlBcHvx35uE7pg4ohFfwkA8RA+jUb4G6CN7yq4rsxwE/heZptqaAMaiUq0GZKJPq8a2dAR0kPfAM=);whiteSpace=wrap;html=1;noLabel=1;_ElementType=AssociationType;glass=0;strokeColor=#000000;strokeWidth=1;fillColor=#ffffff;fontSize=8;fontColor=none;align=left;" vertex="1" parent="1">
            <mxGeometry x="594.5" y="1582.5" width="75" height="35" as="geometry" />
          </mxCell>
        </object>
        <object placeholders="1" Role="Person" BoundaryUp="1" BoundaryLow="1" id="t94pPOiG23g_uNMkArds-314">
          <mxCell style="endArrow=none;html=1;strokeWidth=1;labelBorderColor=none;labelBackgroundColor=none;fontColor=none;exitX=1;exitY=0.5;entryX=0;entryY=0.5;noLabel=1;_ElementType=AssociationParticipant;fontSize=8;rounded=0;exitDx=0;exitDy=0;entryDx=0;entryDy=0;" edge="1" parent="1" source="t94pPOiG23g_uNMkArds-311" target="t94pPOiG23g_uNMkArds-313">
            <mxGeometry width="50" height="50" relative="1" as="geometry">
              <mxPoint x="537" y="1678.8571447164509" as="sourcePoint" />
              <mxPoint x="593" y="1679.142859002165" as="targetPoint" />
            </mxGeometry>
          </mxCell>
        </object>
        <mxCell id="t94pPOiG23g_uNMkArds-315" style="shape=stencil(xZFNTgQhEIVPw9IEIR3XY6srF8boAcqmnK7YAwTK6RlPL1A9sf2JcWdCQup78HhVKNvnESIqoz3sUNkrZcwdJKaBInh+wAMXUuRRtHOtpZ6/1JAjDixwD4ngaUJRMqfwgjM5XjzIj5io+dprpTflTF22fw4Jtym8evdJ+JA9Z3qrYdvWzEzXXrn58Qa3+DWBHFamu6z2kI63YS6VspsVe4xqsdMHudAt3R2ltKdmJ9p6QQN6xiR4v+I7cu40gYbPZNAyNeFxggHHMDlMeS38uZn7UJ/4NfLFf0S2fSHffrPRxbKCdw==);whiteSpace=wrap;html=1;noLabel=1;fontSize=9;" vertex="1" parent="t94pPOiG23g_uNMkArds-314">
          <mxGeometry width="40" height="30" relative="1" as="geometry">
            <mxPoint x="-19.5" y="-14" as="offset" />
          </mxGeometry>
        </mxCell>
        <object placeholders="1" Role="Gebdatum" BoundaryUp="*" BoundaryLow="1" id="t94pPOiG23g_uNMkArds-316">
          <mxCell style="endArrow=none;html=1;strokeWidth=1;labelBorderColor=none;labelBackgroundColor=none;fontColor=none;exitX=1;exitY=0.5;entryX=0;entryY=0.5;noLabel=1;_ElementType=AssociationParticipant;fontSize=8;rounded=0;exitDx=0;exitDy=0;entryDx=0;entryDy=0;" edge="1" parent="1" source="t94pPOiG23g_uNMkArds-313" target="t94pPOiG23g_uNMkArds-312">
            <mxGeometry width="50" height="50" relative="1" as="geometry">
              <mxPoint x="677" y="1638.8571447164509" as="sourcePoint" />
              <mxPoint x="733" y="1639.142859002165" as="targetPoint" />
            </mxGeometry>
          </mxCell>
        </object>
        <mxCell id="t94pPOiG23g_uNMkArds-317" style="shape=stencil(xZFNTgQhEIVPw9IEIR3XY6srF8boAcqmnK7YAwTK6RlPL1A9sf2JcWdCQup78HhVKNvnESIqoz3sUNkrZcwdJKaBInh+wAMXUuRRtHOtpZ6/1JAjDixwD4ngaUJRMqfwgjM5XjzIj5io+dprpTflTF22fw4Jtym8evdJ+JA9Z3qrYdvWzEzXXrn58Qa3+DWBHFamu6z2kI63YS6VspsVe4xqsdMHudAt3R2ltKdmJ9p6QQN6xiR4v+I7cu40gYbPZNAyNeFxggHHMDlMeS38uZn7UJ/4NfLFf0S2fSHffrPRxbKCdw==);whiteSpace=wrap;html=1;noLabel=1;fontSize=9;" vertex="1" parent="t94pPOiG23g_uNMkArds-316">
          <mxGeometry width="40" height="30" relative="1" as="geometry">
            <mxPoint x="-19.5" y="-14" as="offset" />
          </mxGeometry>
        </mxCell>
        <mxCell id="t94pPOiG23g_uNMkArds-318" value="Eine Person hat genau eine E-Mail&lt;br&gt;Eine E-Mail kann zu mehreren Personen zugeordnet werden" style="text;html=1;align=center;verticalAlign=middle;resizable=0;points=[];autosize=1;strokeColor=none;fillColor=none;" vertex="1" parent="1">
          <mxGeometry x="462" y="1630" width="350" height="40" as="geometry" />
        </mxCell>
        <object Name="person" placeholders="1" id="t94pPOiG23g_uNMkArds-319">
          <mxCell style="shape=stencil(pZZdb4MgFIZ/DZdbFGJ6vTh32V5sSa9RzyorgkHXj38/EJtqZ1uExMSc9yDPefEIIpK2FW0A4UjQGhB5Rxhv8h8ouq+zkbHOHK0cR5GNq5uYto0eb8UDVYzmvH+SZCh603lzkbSQQuhhTIp2khnl205RJjodn+xsA+A8iRpQrIYO1FCGVa/lr7e98uFOecWJF8iD5AdajFl5GsoWkmIvzFLKtA1iN8pncBu4gjxIfqDQNnA2FNYGrpiwNri+rmeg7fLv9IbkCgrErFw5izsu9ly6LHRHcF26UIzr0mWzXUdSrdw7oEia02K/U/JXlLP16eLkHo6s7Cot2HsPIw9MKXNkPj7onpy78/N+M85tQbMm71jRz0kFDzx2cDLl6pltEQgna7Ool0YafCRTI5eQcrYTVipAmLfTy4eRXrOy5DAa/mJ/TCY7CqcFVJKXoNpxYsbnPzu9OkxphD8=);whiteSpace=wrap;html=1;noLabel=1;_ElementType=ObjectType;" vertex="1" parent="1">
            <mxGeometry x="462" y="1685" width="70" height="30" as="geometry" />
          </mxCell>
        </object>
        <object Name="E-Mail" placeholders="1" id="t94pPOiG23g_uNMkArds-320">
          <mxCell style="shape=stencil(pZZdb4MgFIZ/DZdbFGJ6vTh32V5sSa9RzyorgkHXj38/EJtqZ1uExMSc9yDPefEIIpK2FW0A4UjQGhB5Rxhv8h8ouq+zkbHOHK0cR5GNq5uYto0eb8UDVYzmvH+SZCh603lzkbSQQuhhTIp2khnl205RJjodn+xsA+A8iRpQrIYO1FCGVa/lr7e98uFOecWJF8iD5AdajFl5GsoWkmIvzFLKtA1iN8pncBu4gjxIfqDQNnA2FNYGrpiwNri+rmeg7fLv9IbkCgrErFw5izsu9ly6LHRHcF26UIzr0mWzXUdSrdw7oEia02K/U/JXlLP16eLkHo6s7Cot2HsPIw9MKXNkPj7onpy78/N+M85tQbMm71jRz0kFDzx2cDLl6pltEQgna7Ool0YafCRTI5eQcrYTVipAmLfTy4eRXrOy5DAa/mJ/TCY7CqcFVJKXoNpxYsbnPzu9OkxphD8=);whiteSpace=wrap;html=1;noLabel=1;_ElementType=ObjectType;" vertex="1" parent="1">
            <mxGeometry x="752" y="1685" width="70" height="30" as="geometry" />
          </mxCell>
        </object>
        <object placeholders="1" Name="P E-Mail" id="t94pPOiG23g_uNMkArds-321">
          <mxCell style="shape=stencil(nVTBcoMgEP0aju2gjB+Qsekxl3amZ4LbyATBAWri3xdEGjXYms542ffc93bZBURKU9MWUI4lbQCRF5TnO2MU49RyJd97z+WOrgOXYRziyyKmpgVmA9hRzelRjJnGanWGC6/sqMFlDZpbz5I9wjv3j/9IyZSUTsT5mhkz4Z0Y5dLl4msQw89FsOnHOEStc2jAgh7LDOitx8MAvG63mZtE079sPh60yf5ns3+0m8WhZdts3hI2pHTI2uBIeaTsfNLqS1bJ4lrql+KOiHSjOrhVXeDEpFNNx3TB5ST9Z1X7mdx2gYV/1Nsu8LA/E8rA2mAdvnJ8pPzkQoR7l5zXylRcntLwy7gsXG240aEFlBcHvx35uE7pg4ohFfwkA8RA+jUb4G6CN7yq4rsxwE/heZptqaAMaiUq0GZKJPq8a2dAR0kPfAM=);whiteSpace=wrap;html=1;noLabel=1;_ElementType=AssociationType;glass=0;strokeColor=#000000;strokeWidth=1;fillColor=#ffffff;fontSize=8;fontColor=none;align=left;" vertex="1" parent="1">
            <mxGeometry x="594.5" y="1682.5" width="75" height="35" as="geometry" />
          </mxCell>
        </object>
        <object placeholders="1" Role="person" BoundaryUp="1" BoundaryLow="1" id="t94pPOiG23g_uNMkArds-322">
          <mxCell style="endArrow=none;html=1;strokeWidth=1;labelBorderColor=none;labelBackgroundColor=none;fontColor=none;exitX=1;exitY=0.5;entryX=0;entryY=0.5;noLabel=1;_ElementType=AssociationParticipant;fontSize=8;rounded=0;exitDx=0;exitDy=0;entryDx=0;entryDy=0;" edge="1" parent="1" source="t94pPOiG23g_uNMkArds-319" target="t94pPOiG23g_uNMkArds-321">
            <mxGeometry width="50" height="50" relative="1" as="geometry">
              <mxPoint x="547" y="1758.8571447164509" as="sourcePoint" />
              <mxPoint x="603" y="1759.142859002165" as="targetPoint" />
            </mxGeometry>
          </mxCell>
        </object>
        <mxCell id="t94pPOiG23g_uNMkArds-323" style="shape=stencil(xZFNTgQhEIVPw9IEIR3XY6srF8boAcqmnK7YAwTK6RlPL1A9sf2JcWdCQup78HhVKNvnESIqoz3sUNkrZcwdJKaBInh+wAMXUuRRtHOtpZ6/1JAjDixwD4ngaUJRMqfwgjM5XjzIj5io+dprpTflTF22fw4Jtym8evdJ+JA9Z3qrYdvWzEzXXrn58Qa3+DWBHFamu6z2kI63YS6VspsVe4xqsdMHudAt3R2ltKdmJ9p6QQN6xiR4v+I7cu40gYbPZNAyNeFxggHHMDlMeS38uZn7UJ/4NfLFf0S2fSHffrPRxbKCdw==);whiteSpace=wrap;html=1;noLabel=1;fontSize=9;" vertex="1" parent="t94pPOiG23g_uNMkArds-322">
          <mxGeometry width="40" height="30" relative="1" as="geometry">
            <mxPoint x="-19.5" y="-14" as="offset" />
          </mxGeometry>
        </mxCell>
        <object placeholders="1" Role="E-Mail" BoundaryUp="*" BoundaryLow="1" id="t94pPOiG23g_uNMkArds-324">
          <mxCell style="endArrow=none;html=1;strokeWidth=1;labelBorderColor=none;labelBackgroundColor=none;fontColor=none;exitX=1;exitY=0.5;entryX=0;entryY=0.5;noLabel=1;_ElementType=AssociationParticipant;fontSize=8;rounded=0;exitDx=0;exitDy=0;entryDx=0;entryDy=0;" edge="1" parent="1" source="t94pPOiG23g_uNMkArds-321" target="t94pPOiG23g_uNMkArds-320">
            <mxGeometry width="50" height="50" relative="1" as="geometry">
              <mxPoint x="687" y="1738.8571447164509" as="sourcePoint" />
              <mxPoint x="743" y="1739.142859002165" as="targetPoint" />
            </mxGeometry>
          </mxCell>
        </object>
        <mxCell id="t94pPOiG23g_uNMkArds-325" style="shape=stencil(xZFNTgQhEIVPw9IEIR3XY6srF8boAcqmnK7YAwTK6RlPL1A9sf2JcWdCQup78HhVKNvnESIqoz3sUNkrZcwdJKaBInh+wAMXUuRRtHOtpZ6/1JAjDixwD4ngaUJRMqfwgjM5XjzIj5io+dprpTflTF22fw4Jtym8evdJ+JA9Z3qrYdvWzEzXXrn58Qa3+DWBHFamu6z2kI63YS6VspsVe4xqsdMHudAt3R2ltKdmJ9p6QQN6xiR4v+I7cu40gYbPZNAyNeFxggHHMDlMeS38uZn7UJ/4NfLFf0S2fSHffrPRxbKCdw==);whiteSpace=wrap;html=1;noLabel=1;fontSize=9;" vertex="1" parent="t94pPOiG23g_uNMkArds-324">
          <mxGeometry width="40" height="30" relative="1" as="geometry">
            <mxPoint x="-19.5" y="-14" as="offset" />
          </mxGeometry>
        </mxCell>
        <mxCell id="t94pPOiG23g_uNMkArds-326" value="Eine Person hat genau eine Adresse&lt;br&gt;Eine Adresse kann mehreren Personen zugeordnet werden" style="text;html=1;align=center;verticalAlign=middle;resizable=0;points=[];autosize=1;strokeColor=none;fillColor=none;" vertex="1" parent="1">
          <mxGeometry x="462" y="1730" width="340" height="40" as="geometry" />
        </mxCell>
        <object Name="Person" placeholders="1" id="t94pPOiG23g_uNMkArds-327">
          <mxCell style="shape=stencil(pZZdb4MgFIZ/DZdbFGJ6vTh32V5sSa9RzyorgkHXj38/EJtqZ1uExMSc9yDPefEIIpK2FW0A4UjQGhB5Rxhv8h8ouq+zkbHOHK0cR5GNq5uYto0eb8UDVYzmvH+SZCh603lzkbSQQuhhTIp2khnl205RJjodn+xsA+A8iRpQrIYO1FCGVa/lr7e98uFOecWJF8iD5AdajFl5GsoWkmIvzFLKtA1iN8pncBu4gjxIfqDQNnA2FNYGrpiwNri+rmeg7fLv9IbkCgrErFw5izsu9ly6LHRHcF26UIzr0mWzXUdSrdw7oEia02K/U/JXlLP16eLkHo6s7Cot2HsPIw9MKXNkPj7onpy78/N+M85tQbMm71jRz0kFDzx2cDLl6pltEQgna7Ool0YafCRTI5eQcrYTVipAmLfTy4eRXrOy5DAa/mJ/TCY7CqcFVJKXoNpxYsbnPzu9OkxphD8=);whiteSpace=wrap;html=1;noLabel=1;_ElementType=ObjectType;" vertex="1" parent="1">
            <mxGeometry x="462" y="1792.5" width="70" height="30" as="geometry" />
          </mxCell>
        </object>
        <object Name="Adresse" placeholders="1" id="t94pPOiG23g_uNMkArds-328">
          <mxCell style="shape=stencil(pZZdb4MgFIZ/DZdbFGJ6vTh32V5sSa9RzyorgkHXj38/EJtqZ1uExMSc9yDPefEIIpK2FW0A4UjQGhB5Rxhv8h8ouq+zkbHOHK0cR5GNq5uYto0eb8UDVYzmvH+SZCh603lzkbSQQuhhTIp2khnl205RJjodn+xsA+A8iRpQrIYO1FCGVa/lr7e98uFOecWJF8iD5AdajFl5GsoWkmIvzFLKtA1iN8pncBu4gjxIfqDQNnA2FNYGrpiwNri+rmeg7fLv9IbkCgrErFw5izsu9ly6LHRHcF26UIzr0mWzXUdSrdw7oEia02K/U/JXlLP16eLkHo6s7Cot2HsPIw9MKXNkPj7onpy78/N+M85tQbMm71jRz0kFDzx2cDLl6pltEQgna7Ool0YafCRTI5eQcrYTVipAmLfTy4eRXrOy5DAa/mJ/TCY7CqcFVJKXoNpxYsbnPzu9OkxphD8=);whiteSpace=wrap;html=1;noLabel=1;_ElementType=ObjectType;" vertex="1" parent="1">
            <mxGeometry x="752" y="1792.5" width="70" height="30" as="geometry" />
          </mxCell>
        </object>
        <object placeholders="1" Name="PAdresse" id="t94pPOiG23g_uNMkArds-329">
          <mxCell style="shape=stencil(nVTBcoMgEP0aju2gjB+Qsekxl3amZ4LbyATBAWri3xdEGjXYms542ffc93bZBURKU9MWUI4lbQCRF5TnO2MU49RyJd97z+WOrgOXYRziyyKmpgVmA9hRzelRjJnGanWGC6/sqMFlDZpbz5I9wjv3j/9IyZSUTsT5mhkz4Z0Y5dLl4msQw89FsOnHOEStc2jAgh7LDOitx8MAvG63mZtE079sPh60yf5ns3+0m8WhZdts3hI2pHTI2uBIeaTsfNLqS1bJ4lrql+KOiHSjOrhVXeDEpFNNx3TB5ST9Z1X7mdx2gYV/1Nsu8LA/E8rA2mAdvnJ8pPzkQoR7l5zXylRcntLwy7gsXG240aEFlBcHvx35uE7pg4ohFfwkA8RA+jUb4G6CN7yq4rsxwE/heZptqaAMaiUq0GZKJPq8a2dAR0kPfAM=);whiteSpace=wrap;html=1;noLabel=1;_ElementType=AssociationType;glass=0;strokeColor=#000000;strokeWidth=1;fillColor=#ffffff;fontSize=8;fontColor=none;align=left;" vertex="1" parent="1">
            <mxGeometry x="594.5" y="1790" width="75" height="35" as="geometry" />
          </mxCell>
        </object>
        <object placeholders="1" Role="Person" BoundaryUp="1" BoundaryLow="1" id="t94pPOiG23g_uNMkArds-330">
          <mxCell style="endArrow=none;html=1;strokeWidth=1;labelBorderColor=none;labelBackgroundColor=none;fontColor=none;exitX=1;exitY=0.5;entryX=0;entryY=0.5;noLabel=1;_ElementType=AssociationParticipant;fontSize=8;rounded=0;exitDx=0;exitDy=0;entryDx=0;entryDy=0;" edge="1" parent="1" source="t94pPOiG23g_uNMkArds-327" target="t94pPOiG23g_uNMkArds-329">
            <mxGeometry width="50" height="50" relative="1" as="geometry">
              <mxPoint x="534.5" y="1866.3571447164509" as="sourcePoint" />
              <mxPoint x="590.5" y="1866.642859002165" as="targetPoint" />
            </mxGeometry>
          </mxCell>
        </object>
        <mxCell id="t94pPOiG23g_uNMkArds-331" style="shape=stencil(xZFNTgQhEIVPw9IEIR3XY6srF8boAcqmnK7YAwTK6RlPL1A9sf2JcWdCQup78HhVKNvnESIqoz3sUNkrZcwdJKaBInh+wAMXUuRRtHOtpZ6/1JAjDixwD4ngaUJRMqfwgjM5XjzIj5io+dprpTflTF22fw4Jtym8evdJ+JA9Z3qrYdvWzEzXXrn58Qa3+DWBHFamu6z2kI63YS6VspsVe4xqsdMHudAt3R2ltKdmJ9p6QQN6xiR4v+I7cu40gYbPZNAyNeFxggHHMDlMeS38uZn7UJ/4NfLFf0S2fSHffrPRxbKCdw==);whiteSpace=wrap;html=1;noLabel=1;fontSize=9;" vertex="1" parent="t94pPOiG23g_uNMkArds-330">
          <mxGeometry width="40" height="30" relative="1" as="geometry">
            <mxPoint x="-19.5" y="-14" as="offset" />
          </mxGeometry>
        </mxCell>
        <object placeholders="1" Role="Adresse" BoundaryUp="*" BoundaryLow="1" id="t94pPOiG23g_uNMkArds-332">
          <mxCell style="endArrow=none;html=1;strokeWidth=1;labelBorderColor=none;labelBackgroundColor=none;fontColor=none;exitX=1;exitY=0.5;entryX=0;entryY=0.5;noLabel=1;_ElementType=AssociationParticipant;fontSize=8;rounded=0;exitDx=0;exitDy=0;entryDx=0;entryDy=0;" edge="1" parent="1" source="t94pPOiG23g_uNMkArds-329" target="t94pPOiG23g_uNMkArds-328">
            <mxGeometry width="50" height="50" relative="1" as="geometry">
              <mxPoint x="674.5" y="1886.3571447164509" as="sourcePoint" />
              <mxPoint x="730.5" y="1886.642859002165" as="targetPoint" />
            </mxGeometry>
          </mxCell>
        </object>
        <mxCell id="t94pPOiG23g_uNMkArds-333" style="shape=stencil(xZFNTgQhEIVPw9IEIR3XY6srF8boAcqmnK7YAwTK6RlPL1A9sf2JcWdCQup78HhVKNvnESIqoz3sUNkrZcwdJKaBInh+wAMXUuRRtHOtpZ6/1JAjDixwD4ngaUJRMqfwgjM5XjzIj5io+dprpTflTF22fw4Jtym8evdJ+JA9Z3qrYdvWzEzXXrn58Qa3+DWBHFamu6z2kI63YS6VspsVe4xqsdMHudAt3R2ltKdmJ9p6QQN6xiR4v+I7cu40gYbPZNAyNeFxggHHMDlMeS38uZn7UJ/4NfLFf0S2fSHffrPRxbKCdw==);whiteSpace=wrap;html=1;noLabel=1;fontSize=9;" vertex="1" parent="t94pPOiG23g_uNMkArds-332">
          <mxGeometry width="40" height="30" relative="1" as="geometry">
            <mxPoint x="-19.5" y="-14" as="offset" />
          </mxGeometry>
        </mxCell>
        <mxCell id="t94pPOiG23g_uNMkArds-334" value="&lt;span style=&quot;font-size: 20px;&quot;&gt;&lt;b&gt;Mitarbeiter&lt;/b&gt;&lt;/span&gt;" style="text;whiteSpace=wrap;html=1;align=center;" vertex="1" parent="1">
          <mxGeometry x="50" y="1200" width="220" height="30" as="geometry" />
        </mxCell>
        <mxCell id="t94pPOiG23g_uNMkArds-335" value="Eine Mitarbeiter arbeitet genau in einer Filiale&lt;br&gt;Filiale können mehrere Mitarbeiter zugeordnet werden" style="text;html=1;align=center;verticalAlign=middle;resizable=0;points=[];autosize=1;strokeColor=none;fillColor=none;" vertex="1" parent="1">
          <mxGeometry x="10" y="1242" width="310" height="40" as="geometry" />
        </mxCell>
        <object Name="Mitarbeiter" placeholders="1" id="t94pPOiG23g_uNMkArds-336">
          <mxCell style="shape=stencil(pZZdb4MgFIZ/DZdbFGJ6vTh32V5sSa9RzyorgkHXj38/EJtqZ1uExMSc9yDPefEIIpK2FW0A4UjQGhB5Rxhv8h8ouq+zkbHOHK0cR5GNq5uYto0eb8UDVYzmvH+SZCh603lzkbSQQuhhTIp2khnl205RJjodn+xsA+A8iRpQrIYO1FCGVa/lr7e98uFOecWJF8iD5AdajFl5GsoWkmIvzFLKtA1iN8pncBu4gjxIfqDQNnA2FNYGrpiwNri+rmeg7fLv9IbkCgrErFw5izsu9ly6LHRHcF26UIzr0mWzXUdSrdw7oEia02K/U/JXlLP16eLkHo6s7Cot2HsPIw9MKXNkPj7onpy78/N+M85tQbMm71jRz0kFDzx2cDLl6pltEQgna7Ool0YafCRTI5eQcrYTVipAmLfTy4eRXrOy5DAa/mJ/TCY7CqcFVJKXoNpxYsbnPzu9OkxphD8=);whiteSpace=wrap;html=1;noLabel=1;_ElementType=ObjectType;" vertex="1" parent="1">
            <mxGeometry x="3" y="1292.5" width="70" height="30" as="geometry" />
          </mxCell>
        </object>
        <object Name="Filiale" placeholders="1" id="t94pPOiG23g_uNMkArds-337">
          <mxCell style="shape=stencil(pZZdb4MgFIZ/DZdbFGJ6vTh32V5sSa9RzyorgkHXj38/EJtqZ1uExMSc9yDPefEIIpK2FW0A4UjQGhB5Rxhv8h8ouq+zkbHOHK0cR5GNq5uYto0eb8UDVYzmvH+SZCh603lzkbSQQuhhTIp2khnl205RJjodn+xsA+A8iRpQrIYO1FCGVa/lr7e98uFOecWJF8iD5AdajFl5GsoWkmIvzFLKtA1iN8pncBu4gjxIfqDQNnA2FNYGrpiwNri+rmeg7fLv9IbkCgrErFw5izsu9ly6LHRHcF26UIzr0mWzXUdSrdw7oEia02K/U/JXlLP16eLkHo6s7Cot2HsPIw9MKXNkPj7onpy78/N+M85tQbMm71jRz0kFDzx2cDLl6pltEQgna7Ool0YafCRTI5eQcrYTVipAmLfTy4eRXrOy5DAa/mJ/TCY7CqcFVJKXoNpxYsbnPzu9OkxphD8=);whiteSpace=wrap;html=1;noLabel=1;_ElementType=ObjectType;" vertex="1" parent="1">
            <mxGeometry x="273" y="1292.5" width="70" height="30" as="geometry" />
          </mxCell>
        </object>
        <object placeholders="1" Name="MFiliale" id="t94pPOiG23g_uNMkArds-338">
          <mxCell style="shape=stencil(nVTBcoMgEP0aju2gjB+Qsekxl3amZ4LbyATBAWri3xdEGjXYms542ffc93bZBURKU9MWUI4lbQCRF5TnO2MU49RyJd97z+WOrgOXYRziyyKmpgVmA9hRzelRjJnGanWGC6/sqMFlDZpbz5I9wjv3j/9IyZSUTsT5mhkz4Z0Y5dLl4msQw89FsOnHOEStc2jAgh7LDOitx8MAvG63mZtE079sPh60yf5ns3+0m8WhZdts3hI2pHTI2uBIeaTsfNLqS1bJ4lrql+KOiHSjOrhVXeDEpFNNx3TB5ST9Z1X7mdx2gYV/1Nsu8LA/E8rA2mAdvnJ8pPzkQoR7l5zXylRcntLwy7gsXG240aEFlBcHvx35uE7pg4ohFfwkA8RA+jUb4G6CN7yq4rsxwE/heZptqaAMaiUq0GZKJPq8a2dAR0kPfAM=);whiteSpace=wrap;html=1;noLabel=1;_ElementType=AssociationType;glass=0;strokeColor=#000000;strokeWidth=1;fillColor=#ffffff;fontSize=8;fontColor=none;align=left;" vertex="1" parent="1">
            <mxGeometry x="115" y="1290" width="115" height="35" as="geometry" />
          </mxCell>
        </object>
        <object placeholders="1" Role="Filiale" BoundaryUp="*" BoundaryLow="1" id="t94pPOiG23g_uNMkArds-339">
          <mxCell style="endArrow=none;html=1;strokeWidth=1;labelBorderColor=none;labelBackgroundColor=none;fontColor=none;exitX=1;exitY=0.5;noLabel=1;_ElementType=AssociationParticipant;fontSize=8;rounded=0;exitDx=0;exitDy=0;entryX=0;entryY=0.5;entryDx=0;entryDy=0;" edge="1" parent="1" source="t94pPOiG23g_uNMkArds-338" target="t94pPOiG23g_uNMkArds-337">
            <mxGeometry width="50" height="50" relative="1" as="geometry">
              <mxPoint x="440" y="1306.3571447164509" as="sourcePoint" />
              <mxPoint x="260" y="1306.5" as="targetPoint" />
            </mxGeometry>
          </mxCell>
        </object>
        <mxCell id="t94pPOiG23g_uNMkArds-340" style="shape=stencil(xZFNTgQhEIVPw9IEIR3XY6srF8boAcqmnK7YAwTK6RlPL1A9sf2JcWdCQup78HhVKNvnESIqoz3sUNkrZcwdJKaBInh+wAMXUuRRtHOtpZ6/1JAjDixwD4ngaUJRMqfwgjM5XjzIj5io+dprpTflTF22fw4Jtym8evdJ+JA9Z3qrYdvWzEzXXrn58Qa3+DWBHFamu6z2kI63YS6VspsVe4xqsdMHudAt3R2ltKdmJ9p6QQN6xiR4v+I7cu40gYbPZNAyNeFxggHHMDlMeS38uZn7UJ/4NfLFf0S2fSHffrPRxbKCdw==);whiteSpace=wrap;html=1;noLabel=1;fontSize=9;" vertex="1" parent="t94pPOiG23g_uNMkArds-339">
          <mxGeometry width="40" height="30" relative="1" as="geometry">
            <mxPoint x="-19.5" y="-14" as="offset" />
          </mxGeometry>
        </mxCell>
        <object placeholders="1" Role="Mitarbeiter" BoundaryUp="1" BoundaryLow="1" id="t94pPOiG23g_uNMkArds-341">
          <mxCell style="endArrow=none;html=1;strokeWidth=1;labelBorderColor=none;labelBackgroundColor=none;fontColor=none;exitX=1;exitY=0.5;entryX=0;entryY=0.5;noLabel=1;_ElementType=AssociationParticipant;fontSize=8;rounded=0;exitDx=0;exitDy=0;entryDx=0;entryDy=0;" edge="1" parent="1" source="t94pPOiG23g_uNMkArds-336" target="t94pPOiG23g_uNMkArds-338">
            <mxGeometry width="50" height="50" relative="1" as="geometry">
              <mxPoint x="50" y="1346.3571447164509" as="sourcePoint" />
              <mxPoint x="106" y="1346.642859002165" as="targetPoint" />
            </mxGeometry>
          </mxCell>
        </object>
        <mxCell id="t94pPOiG23g_uNMkArds-342" style="shape=stencil(xZFNTgQhEIVPw9IEIR3XY6srF8boAcqmnK7YAwTK6RlPL1A9sf2JcWdCQup78HhVKNvnESIqoz3sUNkrZcwdJKaBInh+wAMXUuRRtHOtpZ6/1JAjDixwD4ngaUJRMqfwgjM5XjzIj5io+dprpTflTF22fw4Jtym8evdJ+JA9Z3qrYdvWzEzXXrn58Qa3+DWBHFamu6z2kI63YS6VspsVe4xqsdMHudAt3R2ltKdmJ9p6QQN6xiR4v+I7cu40gYbPZNAyNeFxggHHMDlMeS38uZn7UJ/4NfLFf0S2fSHffrPRxbKCdw==);whiteSpace=wrap;html=1;noLabel=1;fontSize=9;" vertex="1" parent="t94pPOiG23g_uNMkArds-341">
          <mxGeometry width="40" height="30" relative="1" as="geometry">
            <mxPoint x="-19.5" y="-14" as="offset" />
          </mxGeometry>
        </mxCell>
        <mxCell id="t94pPOiG23g_uNMkArds-343" value="&lt;span style=&quot;font-size: 20px;&quot;&gt;&lt;b&gt;Lieferantenfirma&lt;/b&gt;&lt;/span&gt;" style="text;whiteSpace=wrap;html=1;align=center;" vertex="1" parent="1">
          <mxGeometry x="60" y="1510" width="220" height="30" as="geometry" />
        </mxCell>
        <mxCell id="t94pPOiG23g_uNMkArds-344" value="Eine Lieferantenfirma hat genau einen Namen" style="text;html=1;align=center;verticalAlign=middle;resizable=0;points=[];autosize=1;strokeColor=none;fillColor=none;" vertex="1" parent="1">
          <mxGeometry x="20" y="1555" width="270" height="30" as="geometry" />
        </mxCell>
        <object Name="Lieferant" placeholders="1" id="t94pPOiG23g_uNMkArds-345">
          <mxCell style="shape=stencil(pZZdb4MgFIZ/DZdbFGJ6vTh32V5sSa9RzyorgkHXj38/EJtqZ1uExMSc9yDPefEIIpK2FW0A4UjQGhB5Rxhv8h8ouq+zkbHOHK0cR5GNq5uYto0eb8UDVYzmvH+SZCh603lzkbSQQuhhTIp2khnl205RJjodn+xsA+A8iRpQrIYO1FCGVa/lr7e98uFOecWJF8iD5AdajFl5GsoWkmIvzFLKtA1iN8pncBu4gjxIfqDQNnA2FNYGrpiwNri+rmeg7fLv9IbkCgrErFw5izsu9ly6LHRHcF26UIzr0mWzXUdSrdw7oEia02K/U/JXlLP16eLkHo6s7Cot2HsPIw9MKXNkPj7onpy78/N+M85tQbMm71jRz0kFDzx2cDLl6pltEQgna7Ool0YafCRTI5eQcrYTVipAmLfTy4eRXrOy5DAa/mJ/TCY7CqcFVJKXoNpxYsbnPzu9OkxphD8=);whiteSpace=wrap;html=1;noLabel=1;_ElementType=ObjectType;" vertex="1" parent="1">
            <mxGeometry x="20" y="1600" width="80" height="30" as="geometry" />
          </mxCell>
        </object>
        <object Name="Name" placeholders="1" id="t94pPOiG23g_uNMkArds-346">
          <mxCell style="shape=stencil(pZZdb4MgFIZ/DZdbFGJ6vTh32V5sSa9RzyorgkHXj38/EJtqZ1uExMSc9yDPefEIIpK2FW0A4UjQGhB5Rxhv8h8ouq+zkbHOHK0cR5GNq5uYto0eb8UDVYzmvH+SZCh603lzkbSQQuhhTIp2khnl205RJjodn+xsA+A8iRpQrIYO1FCGVa/lr7e98uFOecWJF8iD5AdajFl5GsoWkmIvzFLKtA1iN8pncBu4gjxIfqDQNnA2FNYGrpiwNri+rmeg7fLv9IbkCgrErFw5izsu9ly6LHRHcF26UIzr0mWzXUdSrdw7oEia02K/U/JXlLP16eLkHo6s7Cot2HsPIw9MKXNkPj7onpy78/N+M85tQbMm71jRz0kFDzx2cDLl6pltEQgna7Ool0YafCRTI5eQcrYTVipAmLfTy4eRXrOy5DAa/mJ/TCY7CqcFVJKXoNpxYsbnPzu9OkxphD8=);whiteSpace=wrap;html=1;noLabel=1;_ElementType=ObjectType;" vertex="1" parent="1">
            <mxGeometry x="250" y="1600" width="70" height="30" as="geometry" />
          </mxCell>
        </object>
        <object id="t94pPOiG23g_uNMkArds-347">
          <mxCell style="rhombus;whiteSpace=wrap;html=1;rounded=0;strokeColor=#000000;strokeWidth=1;labelBackgroundColor=none;fontFamily=Helvetica;fontSize=7;fontColor=#000000;fillColor=#ffffff;align=center;glass=0;noLabel=1;_ElementType=NamingConvention;" vertex="1" parent="1">
            <mxGeometry x="155.00000000000023" y="1600" width="30" height="30" as="geometry" />
          </mxCell>
        </object>
        <object id="t94pPOiG23g_uNMkArds-348">
          <mxCell style="endArrow=none;html=1;strokeWidth=1;labelBackgroundColor=none;fontFamily=Helvetica;fontSize=6;fontColor=#000000;exitX=1;exitY=0.5;noLabel=1;_ElementType=IdentifyingParticipant;rounded=0;exitDx=0;exitDy=0;entryX=0;entryY=0.5;entryDx=0;entryDy=0;" edge="1" parent="1" source="t94pPOiG23g_uNMkArds-345" target="t94pPOiG23g_uNMkArds-347">
            <mxGeometry width="50" height="50" relative="1" as="geometry">
              <mxPoint x="125" y="1650" as="sourcePoint" />
              <mxPoint x="172" y="1650" as="targetPoint" />
            </mxGeometry>
          </mxCell>
        </object>
        <object id="t94pPOiG23g_uNMkArds-349">
          <mxCell style="endArrow=none;html=1;strokeWidth=1;labelBackgroundColor=none;fontFamily=Helvetica;fontSize=6;fontColor=#000000;exitX=1;exitY=0.5;noLabel=1;_ElementType=IdentifyingParticipant;rounded=0;exitDx=0;exitDy=0;entryX=0;entryY=0.5;entryDx=0;entryDy=0;" edge="1" parent="1" source="t94pPOiG23g_uNMkArds-347" target="t94pPOiG23g_uNMkArds-346">
            <mxGeometry width="50" height="50" relative="1" as="geometry">
              <mxPoint x="295" y="1650" as="sourcePoint" />
              <mxPoint x="342" y="1650" as="targetPoint" />
            </mxGeometry>
          </mxCell>
        </object>
        <mxCell id="t94pPOiG23g_uNMkArds-350" value="Eine Lieferantenfirma hat mehrere Adressen(Standorten)" style="text;html=1;align=center;verticalAlign=middle;resizable=0;points=[];autosize=1;strokeColor=none;fillColor=none;" vertex="1" parent="1">
          <mxGeometry x="14.5" y="1647.5" width="330" height="30" as="geometry" />
        </mxCell>
        <object Name="Lieferant" placeholders="1" id="t94pPOiG23g_uNMkArds-351">
          <mxCell style="shape=stencil(pZZdb4MgFIZ/DZdbFGJ6vTh32V5sSa9RzyorgkHXj38/EJtqZ1uExMSc9yDPefEIIpK2FW0A4UjQGhB5Rxhv8h8ouq+zkbHOHK0cR5GNq5uYto0eb8UDVYzmvH+SZCh603lzkbSQQuhhTIp2khnl205RJjodn+xsA+A8iRpQrIYO1FCGVa/lr7e98uFOecWJF8iD5AdajFl5GsoWkmIvzFLKtA1iN8pncBu4gjxIfqDQNnA2FNYGrpiwNri+rmeg7fLv9IbkCgrErFw5izsu9ly6LHRHcF26UIzr0mWzXUdSrdw7oEia02K/U/JXlLP16eLkHo6s7Cot2HsPIw9MKXNkPj7onpy78/N+M85tQbMm71jRz0kFDzx2cDLl6pltEQgna7Ool0YafCRTI5eQcrYTVipAmLfTy4eRXrOy5DAa/mJ/TCY7CqcFVJKXoNpxYsbnPzu9OkxphD8=);whiteSpace=wrap;html=1;noLabel=1;_ElementType=ObjectType;" vertex="1" parent="1">
            <mxGeometry x="14.5" y="1702.5" width="70" height="30" as="geometry" />
          </mxCell>
        </object>
        <object Name="Adresse" placeholders="1" id="t94pPOiG23g_uNMkArds-352">
          <mxCell style="shape=stencil(pZZdb4MgFIZ/DZdbFGJ6vTh32V5sSa9RzyorgkHXj38/EJtqZ1uExMSc9yDPefEIIpK2FW0A4UjQGhB5Rxhv8h8ouq+zkbHOHK0cR5GNq5uYto0eb8UDVYzmvH+SZCh603lzkbSQQuhhTIp2khnl205RJjodn+xsA+A8iRpQrIYO1FCGVa/lr7e98uFOecWJF8iD5AdajFl5GsoWkmIvzFLKtA1iN8pncBu4gjxIfqDQNnA2FNYGrpiwNri+rmeg7fLv9IbkCgrErFw5izsu9ly6LHRHcF26UIzr0mWzXUdSrdw7oEia02K/U/JXlLP16eLkHo6s7Cot2HsPIw9MKXNkPj7onpy78/N+M85tQbMm71jRz0kFDzx2cDLl6pltEQgna7Ool0YafCRTI5eQcrYTVipAmLfTy4eRXrOy5DAa/mJ/TCY7CqcFVJKXoNpxYsbnPzu9OkxphD8=);whiteSpace=wrap;html=1;noLabel=1;_ElementType=ObjectType;" vertex="1" parent="1">
            <mxGeometry x="240" y="1702.5" width="70" height="30" as="geometry" />
          </mxCell>
        </object>
        <object placeholders="1" Name="Standort" id="t94pPOiG23g_uNMkArds-353">
          <mxCell style="shape=stencil(nVTBcoMgEP0aju2gjB+Qsekxl3amZ4LbyATBAWri3xdEGjXYms542ffc93bZBURKU9MWUI4lbQCRF5TnO2MU49RyJd97z+WOrgOXYRziyyKmpgVmA9hRzelRjJnGanWGC6/sqMFlDZpbz5I9wjv3j/9IyZSUTsT5mhkz4Z0Y5dLl4msQw89FsOnHOEStc2jAgh7LDOitx8MAvG63mZtE079sPh60yf5ns3+0m8WhZdts3hI2pHTI2uBIeaTsfNLqS1bJ4lrql+KOiHSjOrhVXeDEpFNNx3TB5ST9Z1X7mdx2gYV/1Nsu8LA/E8rA2mAdvnJ8pPzkQoR7l5zXylRcntLwy7gsXG240aEFlBcHvx35uE7pg4ohFfwkA8RA+jUb4G6CN7yq4rsxwE/heZptqaAMaiUq0GZKJPq8a2dAR0kPfAM=);whiteSpace=wrap;html=1;noLabel=1;_ElementType=AssociationType;glass=0;strokeColor=#000000;strokeWidth=1;fillColor=#ffffff;fontSize=8;fontColor=none;align=left;" vertex="1" parent="1">
            <mxGeometry x="122" y="1700" width="75" height="35" as="geometry" />
          </mxCell>
        </object>
        <object placeholders="1" Role="Lieferant" BoundaryUp="*" BoundaryLow="1" id="t94pPOiG23g_uNMkArds-354">
          <mxCell style="endArrow=none;html=1;strokeWidth=1;labelBorderColor=none;labelBackgroundColor=none;fontColor=none;exitX=1;exitY=0.5;entryX=0;entryY=0.5;noLabel=1;_ElementType=AssociationParticipant;fontSize=8;rounded=0;exitDx=0;exitDy=0;entryDx=0;entryDy=0;" edge="1" parent="1" source="t94pPOiG23g_uNMkArds-351" target="t94pPOiG23g_uNMkArds-353">
            <mxGeometry width="50" height="50" relative="1" as="geometry">
              <mxPoint x="99.5" y="1756.3571447164509" as="sourcePoint" />
              <mxPoint x="155.5" y="1756.642859002165" as="targetPoint" />
            </mxGeometry>
          </mxCell>
        </object>
        <mxCell id="t94pPOiG23g_uNMkArds-355" style="shape=stencil(xZFNTgQhEIVPw9IEIR3XY6srF8boAcqmnK7YAwTK6RlPL1A9sf2JcWdCQup78HhVKNvnESIqoz3sUNkrZcwdJKaBInh+wAMXUuRRtHOtpZ6/1JAjDixwD4ngaUJRMqfwgjM5XjzIj5io+dprpTflTF22fw4Jtym8evdJ+JA9Z3qrYdvWzEzXXrn58Qa3+DWBHFamu6z2kI63YS6VspsVe4xqsdMHudAt3R2ltKdmJ9p6QQN6xiR4v+I7cu40gYbPZNAyNeFxggHHMDlMeS38uZn7UJ/4NfLFf0S2fSHffrPRxbKCdw==);whiteSpace=wrap;html=1;noLabel=1;fontSize=9;" vertex="1" parent="t94pPOiG23g_uNMkArds-354">
          <mxGeometry width="40" height="30" relative="1" as="geometry">
            <mxPoint x="-19.5" y="-14" as="offset" />
          </mxGeometry>
        </mxCell>
        <object placeholders="1" Role="Adresse" BoundaryUp="1" BoundaryLow="1" id="t94pPOiG23g_uNMkArds-356">
          <mxCell style="endArrow=none;html=1;strokeWidth=1;labelBorderColor=none;labelBackgroundColor=none;fontColor=none;exitX=1;exitY=0.5;entryX=0;entryY=0.5;noLabel=1;_ElementType=AssociationParticipant;fontSize=8;rounded=0;exitDx=0;exitDy=0;entryDx=0;entryDy=0;" edge="1" parent="1" source="t94pPOiG23g_uNMkArds-353" target="t94pPOiG23g_uNMkArds-352">
            <mxGeometry width="50" height="50" relative="1" as="geometry">
              <mxPoint x="249.5" y="1746.3571447164509" as="sourcePoint" />
              <mxPoint x="305.5" y="1746.642859002165" as="targetPoint" />
            </mxGeometry>
          </mxCell>
        </object>
        <mxCell id="t94pPOiG23g_uNMkArds-357" style="shape=stencil(xZFNTgQhEIVPw9IEIR3XY6srF8boAcqmnK7YAwTK6RlPL1A9sf2JcWdCQup78HhVKNvnESIqoz3sUNkrZcwdJKaBInh+wAMXUuRRtHOtpZ6/1JAjDixwD4ngaUJRMqfwgjM5XjzIj5io+dprpTflTF22fw4Jtym8evdJ+JA9Z3qrYdvWzEzXXrn58Qa3+DWBHFamu6z2kI63YS6VspsVe4xqsdMHudAt3R2ltKdmJ9p6QQN6xiR4v+I7cu40gYbPZNAyNeFxggHHMDlMeS38uZn7UJ/4NfLFf0S2fSHffrPRxbKCdw==);whiteSpace=wrap;html=1;noLabel=1;fontSize=9;" vertex="1" parent="t94pPOiG23g_uNMkArds-356">
          <mxGeometry width="40" height="30" relative="1" as="geometry">
            <mxPoint x="-19.5" y="-14" as="offset" />
          </mxGeometry>
        </mxCell>
        <mxCell id="t94pPOiG23g_uNMkArds-359" value="&lt;span style=&quot;font-size: 20px;&quot;&gt;&lt;b&gt;Filiale&lt;/b&gt;&lt;/span&gt;" style="text;whiteSpace=wrap;html=1;align=center;" vertex="1" parent="1">
          <mxGeometry x="60" y="1770" width="220" height="30" as="geometry" />
        </mxCell>
        <mxCell id="t94pPOiG23g_uNMkArds-360" value="Eine Filiale hat genau einen Filialadresse&lt;br&gt;Eine Filialadresse gehört genau zu einer Filiale" style="text;html=1;align=center;verticalAlign=middle;resizable=0;points=[];autosize=1;strokeColor=none;fillColor=none;" vertex="1" parent="1">
          <mxGeometry x="35" y="1812.5" width="270" height="40" as="geometry" />
        </mxCell>
        <object Name="Filiale" placeholders="1" id="t94pPOiG23g_uNMkArds-361">
          <mxCell style="shape=stencil(pZZdb4MgFIZ/DZdbFGJ6vTh32V5sSa9RzyorgkHXj38/EJtqZ1uExMSc9yDPefEIIpK2FW0A4UjQGhB5Rxhv8h8ouq+zkbHOHK0cR5GNq5uYto0eb8UDVYzmvH+SZCh603lzkbSQQuhhTIp2khnl205RJjodn+xsA+A8iRpQrIYO1FCGVa/lr7e98uFOecWJF8iD5AdajFl5GsoWkmIvzFLKtA1iN8pncBu4gjxIfqDQNnA2FNYGrpiwNri+rmeg7fLv9IbkCgrErFw5izsu9ly6LHRHcF26UIzr0mWzXUdSrdw7oEia02K/U/JXlLP16eLkHo6s7Cot2HsPIw9MKXNkPj7onpy78/N+M85tQbMm71jRz0kFDzx2cDLl6pltEQgna7Ool0YafCRTI5eQcrYTVipAmLfTy4eRXrOy5DAa/mJ/TCY7CqcFVJKXoNpxYsbnPzu9OkxphD8=);whiteSpace=wrap;html=1;noLabel=1;_ElementType=ObjectType;" vertex="1" parent="1">
            <mxGeometry x="20" y="1870" width="70" height="30" as="geometry" />
          </mxCell>
        </object>
        <object Name="Adresse" placeholders="1" id="t94pPOiG23g_uNMkArds-362">
          <mxCell style="shape=stencil(pZZdb4MgFIZ/DZdbFGJ6vTh32V5sSa9RzyorgkHXj38/EJtqZ1uExMSc9yDPefEIIpK2FW0A4UjQGhB5Rxhv8h8ouq+zkbHOHK0cR5GNq5uYto0eb8UDVYzmvH+SZCh603lzkbSQQuhhTIp2khnl205RJjodn+xsA+A8iRpQrIYO1FCGVa/lr7e98uFOecWJF8iD5AdajFl5GsoWkmIvzFLKtA1iN8pncBu4gjxIfqDQNnA2FNYGrpiwNri+rmeg7fLv9IbkCgrErFw5izsu9ly6LHRHcF26UIzr0mWzXUdSrdw7oEia02K/U/JXlLP16eLkHo6s7Cot2HsPIw9MKXNkPj7onpy78/N+M85tQbMm71jRz0kFDzx2cDLl6pltEQgna7Ool0YafCRTI5eQcrYTVipAmLfTy4eRXrOy5DAa/mJ/TCY7CqcFVJKXoNpxYsbnPzu9OkxphD8=);whiteSpace=wrap;html=1;noLabel=1;_ElementType=ObjectType;" vertex="1" parent="1">
            <mxGeometry x="250" y="1870" width="70" height="30" as="geometry" />
          </mxCell>
        </object>
        <object id="t94pPOiG23g_uNMkArds-363">
          <mxCell style="rhombus;whiteSpace=wrap;html=1;rounded=0;strokeColor=#000000;strokeWidth=1;labelBackgroundColor=none;fontFamily=Helvetica;fontSize=7;fontColor=#000000;fillColor=#ffffff;align=center;glass=0;noLabel=1;_ElementType=NamingConvention;" vertex="1" parent="1">
            <mxGeometry x="155.00000000000023" y="1870" width="30" height="30" as="geometry" />
          </mxCell>
        </object>
        <object id="t94pPOiG23g_uNMkArds-364">
          <mxCell style="endArrow=none;html=1;strokeWidth=1;labelBackgroundColor=none;fontFamily=Helvetica;fontSize=6;fontColor=#000000;exitX=1;exitY=0.5;noLabel=1;_ElementType=IdentifyingParticipant;rounded=0;exitDx=0;exitDy=0;entryX=0;entryY=0.5;entryDx=0;entryDy=0;" edge="1" parent="1" source="t94pPOiG23g_uNMkArds-361" target="t94pPOiG23g_uNMkArds-363">
            <mxGeometry width="50" height="50" relative="1" as="geometry">
              <mxPoint x="115" y="1890" as="sourcePoint" />
              <mxPoint x="162" y="1890" as="targetPoint" />
            </mxGeometry>
          </mxCell>
        </object>
        <object id="t94pPOiG23g_uNMkArds-365">
          <mxCell style="endArrow=none;html=1;strokeWidth=1;labelBackgroundColor=none;fontFamily=Helvetica;fontSize=6;fontColor=#000000;exitX=1;exitY=0.5;noLabel=1;_ElementType=IdentifyingParticipant;rounded=0;exitDx=0;exitDy=0;entryX=0;entryY=0.5;entryDx=0;entryDy=0;" edge="1" parent="1" source="t94pPOiG23g_uNMkArds-363" target="t94pPOiG23g_uNMkArds-362">
            <mxGeometry width="50" height="50" relative="1" as="geometry">
              <mxPoint x="245" y="1900" as="sourcePoint" />
              <mxPoint x="292" y="1900" as="targetPoint" />
            </mxGeometry>
          </mxCell>
        </object>
        <mxCell id="t94pPOiG23g_uNMkArds-366" value="Eine Filiale nimmt beliebig viele Bestellungen auf&lt;br&gt;Eine Bestellung gehört zu genau einer Filiale" style="text;html=1;align=center;verticalAlign=middle;resizable=0;points=[];autosize=1;strokeColor=none;fillColor=none;" vertex="1" parent="1">
          <mxGeometry x="30" y="1920" width="280" height="40" as="geometry" />
        </mxCell>
        <object Name="Filiale" placeholders="1" id="t94pPOiG23g_uNMkArds-367">
          <mxCell style="shape=stencil(pZZdb4MgFIZ/DZdbFGJ6vTh32V5sSa9RzyorgkHXj38/EJtqZ1uExMSc9yDPefEIIpK2FW0A4UjQGhB5Rxhv8h8ouq+zkbHOHK0cR5GNq5uYto0eb8UDVYzmvH+SZCh603lzkbSQQuhhTIp2khnl205RJjodn+xsA+A8iRpQrIYO1FCGVa/lr7e98uFOecWJF8iD5AdajFl5GsoWkmIvzFLKtA1iN8pncBu4gjxIfqDQNnA2FNYGrpiwNri+rmeg7fLv9IbkCgrErFw5izsu9ly6LHRHcF26UIzr0mWzXUdSrdw7oEia02K/U/JXlLP16eLkHo6s7Cot2HsPIw9MKXNkPj7onpy78/N+M85tQbMm71jRz0kFDzx2cDLl6pltEQgna7Ool0YafCRTI5eQcrYTVipAmLfTy4eRXrOy5DAa/mJ/TCY7CqcFVJKXoNpxYsbnPzu9OkxphD8=);whiteSpace=wrap;html=1;noLabel=1;_ElementType=ObjectType;" vertex="1" parent="1">
            <mxGeometry x="22.5" y="1992.5" width="70" height="30" as="geometry" />
          </mxCell>
        </object>
        <object Name="Bestellung " placeholders="1" id="t94pPOiG23g_uNMkArds-368">
          <mxCell style="shape=stencil(pZZdb4MgFIZ/DZdbFGJ6vTh32V5sSa9RzyorgkHXj38/EJtqZ1uExMSc9yDPefEIIpK2FW0A4UjQGhB5Rxhv8h8ouq+zkbHOHK0cR5GNq5uYto0eb8UDVYzmvH+SZCh603lzkbSQQuhhTIp2khnl205RJjodn+xsA+A8iRpQrIYO1FCGVa/lr7e98uFOecWJF8iD5AdajFl5GsoWkmIvzFLKtA1iN8pncBu4gjxIfqDQNnA2FNYGrpiwNri+rmeg7fLv9IbkCgrErFw5izsu9ly6LHRHcF26UIzr0mWzXUdSrdw7oEia02K/U/JXlLP16eLkHo6s7Cot2HsPIw9MKXNkPj7onpy78/N+M85tQbMm71jRz0kFDzx2cDLl6pltEQgna7Ool0YafCRTI5eQcrYTVipAmLfTy4eRXrOy5DAa/mJ/TCY7CqcFVJKXoNpxYsbnPzu9OkxphD8=);whiteSpace=wrap;html=1;noLabel=1;_ElementType=ObjectType;" vertex="1" parent="1">
            <mxGeometry x="247.5" y="1992.5" width="70" height="30" as="geometry" />
          </mxCell>
        </object>
        <object placeholders="1" Name="FBestellung" id="t94pPOiG23g_uNMkArds-369">
          <mxCell style="shape=stencil(nVTBcoMgEP0aju2gjB+Qsekxl3amZ4LbyATBAWri3xdEGjXYms542ffc93bZBURKU9MWUI4lbQCRF5TnO2MU49RyJd97z+WOrgOXYRziyyKmpgVmA9hRzelRjJnGanWGC6/sqMFlDZpbz5I9wjv3j/9IyZSUTsT5mhkz4Z0Y5dLl4msQw89FsOnHOEStc2jAgh7LDOitx8MAvG63mZtE079sPh60yf5ns3+0m8WhZdts3hI2pHTI2uBIeaTsfNLqS1bJ4lrql+KOiHSjOrhVXeDEpFNNx3TB5ST9Z1X7mdx2gYV/1Nsu8LA/E8rA2mAdvnJ8pPzkQoR7l5zXylRcntLwy7gsXG240aEFlBcHvx35uE7pg4ohFfwkA8RA+jUb4G6CN7yq4rsxwE/heZptqaAMaiUq0GZKJPq8a2dAR0kPfAM=);whiteSpace=wrap;html=1;noLabel=1;_ElementType=AssociationType;glass=0;strokeColor=#000000;strokeWidth=1;fillColor=#ffffff;fontSize=8;fontColor=none;align=left;" vertex="1" parent="1">
            <mxGeometry x="127.5" y="1990" width="75" height="35" as="geometry" />
          </mxCell>
        </object>
        <object placeholders="1" Role="Filiale" BoundaryUp="*" BoundaryLow="1" id="t94pPOiG23g_uNMkArds-370">
          <mxCell style="endArrow=none;html=1;strokeWidth=1;labelBorderColor=none;labelBackgroundColor=none;fontColor=none;exitX=1;exitY=0.5;entryX=0;entryY=0.5;noLabel=1;_ElementType=AssociationParticipant;fontSize=8;rounded=0;exitDx=0;exitDy=0;entryDx=0;entryDy=0;" edge="1" parent="1" source="t94pPOiG23g_uNMkArds-367" target="t94pPOiG23g_uNMkArds-369">
            <mxGeometry width="50" height="50" relative="1" as="geometry">
              <mxPoint x="112.5" y="2086.357144716451" as="sourcePoint" />
              <mxPoint x="168.5" y="2086.642859002165" as="targetPoint" />
            </mxGeometry>
          </mxCell>
        </object>
        <mxCell id="t94pPOiG23g_uNMkArds-371" style="shape=stencil(xZFNTgQhEIVPw9IEIR3XY6srF8boAcqmnK7YAwTK6RlPL1A9sf2JcWdCQup78HhVKNvnESIqoz3sUNkrZcwdJKaBInh+wAMXUuRRtHOtpZ6/1JAjDixwD4ngaUJRMqfwgjM5XjzIj5io+dprpTflTF22fw4Jtym8evdJ+JA9Z3qrYdvWzEzXXrn58Qa3+DWBHFamu6z2kI63YS6VspsVe4xqsdMHudAt3R2ltKdmJ9p6QQN6xiR4v+I7cu40gYbPZNAyNeFxggHHMDlMeS38uZn7UJ/4NfLFf0S2fSHffrPRxbKCdw==);whiteSpace=wrap;html=1;noLabel=1;fontSize=9;" vertex="1" parent="t94pPOiG23g_uNMkArds-370">
          <mxGeometry width="40" height="30" relative="1" as="geometry">
            <mxPoint x="-19.5" y="-14" as="offset" />
          </mxGeometry>
        </mxCell>
        <object placeholders="1" Role="Bestellung" BoundaryUp="1" BoundaryLow="1" id="t94pPOiG23g_uNMkArds-372">
          <mxCell style="endArrow=none;html=1;strokeWidth=1;labelBorderColor=none;labelBackgroundColor=none;fontColor=none;exitX=1;exitY=0.5;entryX=0;entryY=0.5;noLabel=1;_ElementType=AssociationParticipant;fontSize=8;rounded=0;exitDx=0;exitDy=0;entryDx=0;entryDy=0;" edge="1" parent="1" source="t94pPOiG23g_uNMkArds-369" target="t94pPOiG23g_uNMkArds-368">
            <mxGeometry width="50" height="50" relative="1" as="geometry">
              <mxPoint x="282.5" y="2046.3571447164509" as="sourcePoint" />
              <mxPoint x="338.5" y="2046.642859002165" as="targetPoint" />
            </mxGeometry>
          </mxCell>
        </object>
        <mxCell id="t94pPOiG23g_uNMkArds-373" style="shape=stencil(xZFNTgQhEIVPw9IEIR3XY6srF8boAcqmnK7YAwTK6RlPL1A9sf2JcWdCQup78HhVKNvnESIqoz3sUNkrZcwdJKaBInh+wAMXUuRRtHOtpZ6/1JAjDixwD4ngaUJRMqfwgjM5XjzIj5io+dprpTflTF22fw4Jtym8evdJ+JA9Z3qrYdvWzEzXXrn58Qa3+DWBHFamu6z2kI63YS6VspsVe4xqsdMHudAt3R2ltKdmJ9p6QQN6xiR4v+I7cu40gYbPZNAyNeFxggHHMDlMeS38uZn7UJ/4NfLFf0S2fSHffrPRxbKCdw==);whiteSpace=wrap;html=1;noLabel=1;fontSize=9;" vertex="1" parent="t94pPOiG23g_uNMkArds-372">
          <mxGeometry width="40" height="30" relative="1" as="geometry">
            <mxPoint x="-19.5" y="-14" as="offset" />
          </mxGeometry>
        </mxCell>
        <mxCell id="t94pPOiG23g_uNMkArds-374" value="Eine Mitarbeiter hat Mitarbeiter-ID" style="text;html=1;align=center;verticalAlign=middle;resizable=0;points=[];autosize=1;strokeColor=none;fillColor=none;" vertex="1" parent="1">
          <mxGeometry x="63" y="1335" width="200" height="30" as="geometry" />
        </mxCell>
        <object Name="Mitarbeiter" placeholders="1" id="t94pPOiG23g_uNMkArds-375">
          <mxCell style="shape=stencil(pZZdb4MgFIZ/DZdbFGJ6vTh32V5sSa9RzyorgkHXj38/EJtqZ1uExMSc9yDPefEIIpK2FW0A4UjQGhB5Rxhv8h8ouq+zkbHOHK0cR5GNq5uYto0eb8UDVYzmvH+SZCh603lzkbSQQuhhTIp2khnl205RJjodn+xsA+A8iRpQrIYO1FCGVa/lr7e98uFOecWJF8iD5AdajFl5GsoWkmIvzFLKtA1iN8pncBu4gjxIfqDQNnA2FNYGrpiwNri+rmeg7fLv9IbkCgrErFw5izsu9ly6LHRHcF26UIzr0mWzXUdSrdw7oEia02K/U/JXlLP16eLkHo6s7Cot2HsPIw9MKXNkPj7onpy78/N+M85tQbMm71jRz0kFDzx2cDLl6pltEQgna7Ool0YafCRTI5eQcrYTVipAmLfTy4eRXrOy5DAa/mJ/TCY7CqcFVJKXoNpxYsbnPzu9OkxphD8=);whiteSpace=wrap;html=1;noLabel=1;_ElementType=ObjectType;" vertex="1" parent="1">
            <mxGeometry x="2.5" y="1372.5" width="70" height="30" as="geometry" />
          </mxCell>
        </object>
        <object Name="MitarbeiterID" placeholders="1" id="t94pPOiG23g_uNMkArds-376">
          <mxCell style="shape=stencil(pZZdb4MgFIZ/DZdbFGJ6vTh32V5sSa9RzyorgkHXj38/EJtqZ1uExMSc9yDPefEIIpK2FW0A4UjQGhB5Rxhv8h8ouq+zkbHOHK0cR5GNq5uYto0eb8UDVYzmvH+SZCh603lzkbSQQuhhTIp2khnl205RJjodn+xsA+A8iRpQrIYO1FCGVa/lr7e98uFOecWJF8iD5AdajFl5GsoWkmIvzFLKtA1iN8pncBu4gjxIfqDQNnA2FNYGrpiwNri+rmeg7fLv9IbkCgrErFw5izsu9ly6LHRHcF26UIzr0mWzXUdSrdw7oEia02K/U/JXlLP16eLkHo6s7Cot2HsPIw9MKXNkPj7onpy78/N+M85tQbMm71jRz0kFDzx2cDLl6pltEQgna7Ool0YafCRTI5eQcrYTVipAmLfTy4eRXrOy5DAa/mJ/TCY7CqcFVJKXoNpxYsbnPzu9OkxphD8=);whiteSpace=wrap;html=1;noLabel=1;_ElementType=ObjectType;" vertex="1" parent="1">
            <mxGeometry x="293" y="1372.5" width="70" height="30" as="geometry" />
          </mxCell>
        </object>
        <object placeholders="1" Name="MID" id="t94pPOiG23g_uNMkArds-377">
          <mxCell style="shape=stencil(nVTBcoMgEP0aju2gjB+Qsekxl3amZ4LbyATBAWri3xdEGjXYms542ffc93bZBURKU9MWUI4lbQCRF5TnO2MU49RyJd97z+WOrgOXYRziyyKmpgVmA9hRzelRjJnGanWGC6/sqMFlDZpbz5I9wjv3j/9IyZSUTsT5mhkz4Z0Y5dLl4msQw89FsOnHOEStc2jAgh7LDOitx8MAvG63mZtE079sPh60yf5ns3+0m8WhZdts3hI2pHTI2uBIeaTsfNLqS1bJ4lrql+KOiHSjOrhVXeDEpFNNx3TB5ST9Z1X7mdx2gYV/1Nsu8LA/E8rA2mAdvnJ8pPzkQoR7l5zXylRcntLwy7gsXG240aEFlBcHvx35uE7pg4ohFfwkA8RA+jUb4G6CN7yq4rsxwE/heZptqaAMaiUq0GZKJPq8a2dAR0kPfAM=);whiteSpace=wrap;html=1;noLabel=1;_ElementType=AssociationType;glass=0;strokeColor=#000000;strokeWidth=1;fillColor=#ffffff;fontSize=8;fontColor=none;align=left;" vertex="1" parent="1">
            <mxGeometry x="114.5" y="1370" width="115" height="35" as="geometry" />
          </mxCell>
        </object>
        <object placeholders="1" Role="Filiale" BoundaryUp="*" BoundaryLow="1" id="t94pPOiG23g_uNMkArds-378">
          <mxCell style="endArrow=none;html=1;strokeWidth=1;labelBorderColor=none;labelBackgroundColor=none;fontColor=none;exitX=1;exitY=0.5;noLabel=1;_ElementType=AssociationParticipant;fontSize=8;rounded=0;exitDx=0;exitDy=0;entryX=0;entryY=0.5;entryDx=0;entryDy=0;" edge="1" parent="1" source="t94pPOiG23g_uNMkArds-377" target="t94pPOiG23g_uNMkArds-376">
            <mxGeometry width="50" height="50" relative="1" as="geometry">
              <mxPoint x="439.5" y="1386.3571447164509" as="sourcePoint" />
              <mxPoint x="259.5" y="1386.5" as="targetPoint" />
            </mxGeometry>
          </mxCell>
        </object>
        <object placeholders="1" Role="Mitarbeiter" BoundaryUp="1" BoundaryLow="1" id="t94pPOiG23g_uNMkArds-380">
          <mxCell style="endArrow=none;html=1;strokeWidth=1;labelBorderColor=none;labelBackgroundColor=none;fontColor=none;exitX=1;exitY=0.5;entryX=0;entryY=0.5;noLabel=1;_ElementType=AssociationParticipant;fontSize=8;rounded=0;exitDx=0;exitDy=0;entryDx=0;entryDy=0;" edge="1" parent="1" source="t94pPOiG23g_uNMkArds-375" target="t94pPOiG23g_uNMkArds-377">
            <mxGeometry width="50" height="50" relative="1" as="geometry">
              <mxPoint x="49.5" y="1426.3571447164509" as="sourcePoint" />
              <mxPoint x="105.5" y="1426.642859002165" as="targetPoint" />
            </mxGeometry>
          </mxCell>
        </object>
        <mxCell id="t94pPOiG23g_uNMkArds-381" style="shape=stencil(xZFNTgQhEIVPw9IEIR3XY6srF8boAcqmnK7YAwTK6RlPL1A9sf2JcWdCQup78HhVKNvnESIqoz3sUNkrZcwdJKaBInh+wAMXUuRRtHOtpZ6/1JAjDixwD4ngaUJRMqfwgjM5XjzIj5io+dprpTflTF22fw4Jtym8evdJ+JA9Z3qrYdvWzEzXXrn58Qa3+DWBHFamu6z2kI63YS6VspsVe4xqsdMHudAt3R2ltKdmJ9p6QQN6xiR4v+I7cu40gYbPZNAyNeFxggHHMDlMeS38uZn7UJ/4NfLFf0S2fSHffrPRxbKCdw==);whiteSpace=wrap;html=1;noLabel=1;fontSize=9;" vertex="1" parent="t94pPOiG23g_uNMkArds-380">
          <mxGeometry width="40" height="30" relative="1" as="geometry">
            <mxPoint x="-19.5" y="-14" as="offset" />
          </mxGeometry>
        </mxCell>
        <mxCell id="t94pPOiG23g_uNMkArds-383" value="&lt;span style=&quot;font-size: 10px;&quot;&gt;mitarbeiterID&lt;/span&gt;" style="text;whiteSpace=wrap;html=1;align=center;" vertex="1" parent="1">
          <mxGeometry x="230" y="1380" width="60" height="20" as="geometry" />
        </mxCell>
        <mxCell id="t94pPOiG23g_uNMkArds-384" value="&lt;span style=&quot;font-size: 10px;&quot;&gt;1:1&lt;/span&gt;" style="text;whiteSpace=wrap;html=1;align=center;" vertex="1" parent="1">
          <mxGeometry x="233" y="1367.5" width="60" height="20" as="geometry" />
        </mxCell>
        <mxCell id="t94pPOiG23g_uNMkArds-385" value="Eine Mitarbeiter hat Beschäftigungsart" style="text;html=1;align=center;verticalAlign=middle;resizable=0;points=[];autosize=1;strokeColor=none;fillColor=none;" vertex="1" parent="1">
          <mxGeometry x="48.5" y="1415" width="230" height="30" as="geometry" />
        </mxCell>
        <object Name="Mitarbeiter" placeholders="1" id="t94pPOiG23g_uNMkArds-386">
          <mxCell style="shape=stencil(pZZdb4MgFIZ/DZdbFGJ6vTh32V5sSa9RzyorgkHXj38/EJtqZ1uExMSc9yDPefEIIpK2FW0A4UjQGhB5Rxhv8h8ouq+zkbHOHK0cR5GNq5uYto0eb8UDVYzmvH+SZCh603lzkbSQQuhhTIp2khnl205RJjodn+xsA+A8iRpQrIYO1FCGVa/lr7e98uFOecWJF8iD5AdajFl5GsoWkmIvzFLKtA1iN8pncBu4gjxIfqDQNnA2FNYGrpiwNri+rmeg7fLv9IbkCgrErFw5izsu9ly6LHRHcF26UIzr0mWzXUdSrdw7oEia02K/U/JXlLP16eLkHo6s7Cot2HsPIw9MKXNkPj7onpy78/N+M85tQbMm71jRz0kFDzx2cDLl6pltEQgna7Ool0YafCRTI5eQcrYTVipAmLfTy4eRXrOy5DAa/mJ/TCY7CqcFVJKXoNpxYsbnPzu9OkxphD8=);whiteSpace=wrap;html=1;noLabel=1;_ElementType=ObjectType;" vertex="1" parent="1">
            <mxGeometry x="3" y="1452.5" width="70" height="30" as="geometry" />
          </mxCell>
        </object>
        <object Name="Beschäftigungsart" placeholders="1" id="t94pPOiG23g_uNMkArds-387">
          <mxCell style="shape=stencil(pZZdb4MgFIZ/DZdbFGJ6vTh32V5sSa9RzyorgkHXj38/EJtqZ1uExMSc9yDPefEIIpK2FW0A4UjQGhB5Rxhv8h8ouq+zkbHOHK0cR5GNq5uYto0eb8UDVYzmvH+SZCh603lzkbSQQuhhTIp2khnl205RJjodn+xsA+A8iRpQrIYO1FCGVa/lr7e98uFOecWJF8iD5AdajFl5GsoWkmIvzFLKtA1iN8pncBu4gjxIfqDQNnA2FNYGrpiwNri+rmeg7fLv9IbkCgrErFw5izsu9ly6LHRHcF26UIzr0mWzXUdSrdw7oEia02K/U/JXlLP16eLkHo6s7Cot2HsPIw9MKXNkPj7onpy78/N+M85tQbMm71jRz0kFDzx2cDLl6pltEQgna7Ool0YafCRTI5eQcrYTVipAmLfTy4eRXrOy5DAa/mJ/TCY7CqcFVJKXoNpxYsbnPzu9OkxphD8=);whiteSpace=wrap;html=1;noLabel=1;_ElementType=ObjectType;" vertex="1" parent="1">
            <mxGeometry x="317" y="1452.5" width="96.5" height="30" as="geometry" />
          </mxCell>
        </object>
        <object placeholders="1" Name="MBArt" id="t94pPOiG23g_uNMkArds-388">
          <mxCell style="shape=stencil(nVTBcoMgEP0aju2gjB+Qsekxl3amZ4LbyATBAWri3xdEGjXYms542ffc93bZBURKU9MWUI4lbQCRF5TnO2MU49RyJd97z+WOrgOXYRziyyKmpgVmA9hRzelRjJnGanWGC6/sqMFlDZpbz5I9wjv3j/9IyZSUTsT5mhkz4Z0Y5dLl4msQw89FsOnHOEStc2jAgh7LDOitx8MAvG63mZtE079sPh60yf5ns3+0m8WhZdts3hI2pHTI2uBIeaTsfNLqS1bJ4lrql+KOiHSjOrhVXeDEpFNNx3TB5ST9Z1X7mdx2gYV/1Nsu8LA/E8rA2mAdvnJ8pPzkQoR7l5zXylRcntLwy7gsXG240aEFlBcHvx35uE7pg4ohFfwkA8RA+jUb4G6CN7yq4rsxwE/heZptqaAMaiUq0GZKJPq8a2dAR0kPfAM=);whiteSpace=wrap;html=1;noLabel=1;_ElementType=AssociationType;glass=0;strokeColor=#000000;strokeWidth=1;fillColor=#ffffff;fontSize=8;fontColor=none;align=left;" vertex="1" parent="1">
            <mxGeometry x="115" y="1450" width="115" height="35" as="geometry" />
          </mxCell>
        </object>
        <object placeholders="1" Role="Filiale" BoundaryUp="*" BoundaryLow="1" id="t94pPOiG23g_uNMkArds-389">
          <mxCell style="endArrow=none;html=1;strokeWidth=1;labelBorderColor=none;labelBackgroundColor=none;fontColor=none;exitX=1;exitY=0.5;noLabel=1;_ElementType=AssociationParticipant;fontSize=8;rounded=0;exitDx=0;exitDy=0;entryX=0;entryY=0.5;entryDx=0;entryDy=0;" edge="1" parent="1" source="t94pPOiG23g_uNMkArds-388" target="t94pPOiG23g_uNMkArds-387">
            <mxGeometry width="50" height="50" relative="1" as="geometry">
              <mxPoint x="440" y="1466.3571447164509" as="sourcePoint" />
              <mxPoint x="260" y="1466.5" as="targetPoint" />
            </mxGeometry>
          </mxCell>
        </object>
        <object placeholders="1" Role="Mitarbeiter" BoundaryUp="1" BoundaryLow="1" id="t94pPOiG23g_uNMkArds-390">
          <mxCell style="endArrow=none;html=1;strokeWidth=1;labelBorderColor=none;labelBackgroundColor=none;fontColor=none;exitX=1;exitY=0.5;entryX=0;entryY=0.5;noLabel=1;_ElementType=AssociationParticipant;fontSize=8;rounded=0;exitDx=0;exitDy=0;entryDx=0;entryDy=0;" edge="1" parent="1" source="t94pPOiG23g_uNMkArds-386" target="t94pPOiG23g_uNMkArds-388">
            <mxGeometry width="50" height="50" relative="1" as="geometry">
              <mxPoint x="50" y="1506.3571447164509" as="sourcePoint" />
              <mxPoint x="106" y="1506.642859002165" as="targetPoint" />
            </mxGeometry>
          </mxCell>
        </object>
        <mxCell id="t94pPOiG23g_uNMkArds-391" style="shape=stencil(xZFNTgQhEIVPw9IEIR3XY6srF8boAcqmnK7YAwTK6RlPL1A9sf2JcWdCQup78HhVKNvnESIqoz3sUNkrZcwdJKaBInh+wAMXUuRRtHOtpZ6/1JAjDixwD4ngaUJRMqfwgjM5XjzIj5io+dprpTflTF22fw4Jtym8evdJ+JA9Z3qrYdvWzEzXXrn58Qa3+DWBHFamu6z2kI63YS6VspsVe4xqsdMHudAt3R2ltKdmJ9p6QQN6xiR4v+I7cu40gYbPZNAyNeFxggHHMDlMeS38uZn7UJ/4NfLFf0S2fSHffrPRxbKCdw==);whiteSpace=wrap;html=1;noLabel=1;fontSize=9;" vertex="1" parent="t94pPOiG23g_uNMkArds-390">
          <mxGeometry width="40" height="30" relative="1" as="geometry">
            <mxPoint x="-19.5" y="-14" as="offset" />
          </mxGeometry>
        </mxCell>
        <mxCell id="t94pPOiG23g_uNMkArds-392" value="&lt;span style=&quot;font-size: 10px;&quot;&gt;Beschäftigungsart&lt;/span&gt;" style="text;whiteSpace=wrap;html=1;align=center;" vertex="1" parent="1">
          <mxGeometry x="240" y="1460" width="60" height="20" as="geometry" />
        </mxCell>
        <mxCell id="t94pPOiG23g_uNMkArds-393" value="&lt;span style=&quot;font-size: 10px;&quot;&gt;1:*&lt;/span&gt;" style="text;whiteSpace=wrap;html=1;align=center;" vertex="1" parent="1">
          <mxGeometry x="245" y="1445" width="60" height="20" as="geometry" />
        </mxCell>
        <mxCell id="t94pPOiG23g_uNMkArds-394" value="Jede Kunde hat eine Kundennummer" style="text;whiteSpace=wrap;html=1;" vertex="1" parent="1">
          <mxGeometry x="532" y="1910" width="220" height="20" as="geometry" />
        </mxCell>
        <mxCell id="t94pPOiG23g_uNMkArds-395" value="Kunde" style="rounded=0;whiteSpace=wrap;html=1;" vertex="1" parent="1">
          <mxGeometry x="479" y="1950" width="60" height="30" as="geometry" />
        </mxCell>
        <mxCell id="t94pPOiG23g_uNMkArds-396" value="&lt;span style=&quot;text-align: left;&quot;&gt;Kundennummer&lt;/span&gt;" style="rounded=0;whiteSpace=wrap;html=1;" vertex="1" parent="1">
          <mxGeometry x="732" y="1950" width="85" height="30" as="geometry" />
        </mxCell>
        <mxCell id="t94pPOiG23g_uNMkArds-397" style="edgeStyle=orthogonalEdgeStyle;orthogonalLoop=1;jettySize=auto;html=1;entryX=0;entryY=0.5;entryDx=0;entryDy=0;rounded=0;endArrow=none;endFill=0;" edge="1" parent="1" source="t94pPOiG23g_uNMkArds-398" target="t94pPOiG23g_uNMkArds-396">
          <mxGeometry relative="1" as="geometry" />
        </mxCell>
        <mxCell id="t94pPOiG23g_uNMkArds-398" value="KID" style="rhombus;whiteSpace=wrap;html=1;" vertex="1" parent="1">
          <mxGeometry x="599" y="1950" width="80" height="30" as="geometry" />
        </mxCell>
        <object label="" id="t94pPOiG23g_uNMkArds-399">
          <mxCell style="edgeStyle=orthogonalEdgeStyle;orthogonalLoop=1;jettySize=auto;html=1;entryX=0;entryY=0.5;entryDx=0;entryDy=0;rounded=0;endArrow=none;endFill=0;exitX=1;exitY=0.5;exitDx=0;exitDy=0;" edge="1" parent="1" source="t94pPOiG23g_uNMkArds-395">
            <mxGeometry relative="1" as="geometry">
              <mxPoint x="559" y="1964.83" as="sourcePoint" />
              <mxPoint x="599" y="1964.83" as="targetPoint" />
            </mxGeometry>
          </mxCell>
        </object>
        <mxCell id="t94pPOiG23g_uNMkArds-400" value="&lt;font style=&quot;font-size: 10px;&quot;&gt;1:1&lt;/font&gt;" style="text;whiteSpace=wrap;html=1;" vertex="1" parent="1">
          <mxGeometry x="559" y="1940" width="20" height="20" as="geometry" />
        </mxCell>
        <mxCell id="t94pPOiG23g_uNMkArds-401" value="&lt;font style=&quot;font-size: 10px;&quot;&gt;1:1&lt;/font&gt;" style="text;whiteSpace=wrap;html=1;" vertex="1" parent="1">
          <mxGeometry x="699" y="1940" width="20" height="20" as="geometry" />
        </mxCell>
        <mxCell id="t94pPOiG23g_uNMkArds-402" value="&lt;span style=&quot;font-size: 10px;&quot;&gt;kunde&lt;/span&gt;" style="text;whiteSpace=wrap;html=1;" vertex="1" parent="1">
          <mxGeometry x="554" y="1960" width="50" height="20" as="geometry" />
        </mxCell>
        <mxCell id="t94pPOiG23g_uNMkArds-403" value="&lt;font style=&quot;font-size: 10px;&quot;&gt;kundenn&lt;/font&gt;" style="text;whiteSpace=wrap;html=1;align=center;" vertex="1" parent="1">
          <mxGeometry x="684.5" y="1960" width="50" height="20" as="geometry" />
        </mxCell>
        <mxCell id="t94pPOiG23g_uNMkArds-404" value="&lt;font style=&quot;font-size: 20px;&quot;&gt;&lt;b&gt;Kunde&lt;/b&gt;&lt;/font&gt;" style="text;whiteSpace=wrap;html=1;align=center;" vertex="1" parent="1">
          <mxGeometry x="532" y="1870" width="220" height="30" as="geometry" />
        </mxCell>
        <mxCell id="t94pPOiG23g_uNMkArds-406" value="Jede Kunde hat Zahlungsarten" style="text;whiteSpace=wrap;html=1;align=center;" vertex="1" parent="1">
          <mxGeometry x="526.25" y="1990" width="220" height="20" as="geometry" />
        </mxCell>
        <mxCell id="t94pPOiG23g_uNMkArds-407" value="Kunde" style="rounded=0;whiteSpace=wrap;html=1;" vertex="1" parent="1">
          <mxGeometry x="480" y="2030" width="60" height="30" as="geometry" />
        </mxCell>
        <mxCell id="t94pPOiG23g_uNMkArds-408" value="Zahlungsarten" style="rounded=0;whiteSpace=wrap;html=1;" vertex="1" parent="1">
          <mxGeometry x="747" y="2030" width="73" height="30" as="geometry" />
        </mxCell>
        <mxCell id="t94pPOiG23g_uNMkArds-409" style="edgeStyle=orthogonalEdgeStyle;orthogonalLoop=1;jettySize=auto;html=1;entryX=0;entryY=0.5;entryDx=0;entryDy=0;rounded=0;endArrow=none;endFill=0;" edge="1" parent="1" source="t94pPOiG23g_uNMkArds-410" target="t94pPOiG23g_uNMkArds-408">
          <mxGeometry relative="1" as="geometry" />
        </mxCell>
        <mxCell id="t94pPOiG23g_uNMkArds-410" value="KZArt" style="rhombus;whiteSpace=wrap;html=1;" vertex="1" parent="1">
          <mxGeometry x="600" y="2030" width="80" height="30" as="geometry" />
        </mxCell>
        <object label="" id="t94pPOiG23g_uNMkArds-411">
          <mxCell style="edgeStyle=orthogonalEdgeStyle;orthogonalLoop=1;jettySize=auto;html=1;entryX=0;entryY=0.5;entryDx=0;entryDy=0;rounded=0;endArrow=none;endFill=0;exitX=1;exitY=0.5;exitDx=0;exitDy=0;" edge="1" parent="1" source="t94pPOiG23g_uNMkArds-407">
            <mxGeometry relative="1" as="geometry">
              <mxPoint x="560" y="2044.83" as="sourcePoint" />
              <mxPoint x="600" y="2044.83" as="targetPoint" />
            </mxGeometry>
          </mxCell>
        </object>
        <mxCell id="t94pPOiG23g_uNMkArds-412" value="&lt;font style=&quot;font-size: 10px;&quot;&gt;1:*&lt;/font&gt;" style="text;whiteSpace=wrap;html=1;" vertex="1" parent="1">
          <mxGeometry x="560" y="2020" width="20" height="20" as="geometry" />
        </mxCell>
        <mxCell id="t94pPOiG23g_uNMkArds-413" value="&lt;font style=&quot;font-size: 10px;&quot;&gt;1:*&lt;/font&gt;" style="text;whiteSpace=wrap;html=1;" vertex="1" parent="1">
          <mxGeometry x="700" y="2020" width="20" height="20" as="geometry" />
        </mxCell>
        <mxCell id="t94pPOiG23g_uNMkArds-414" value="&lt;span style=&quot;font-size: 10px;&quot;&gt;kunde&lt;/span&gt;" style="text;whiteSpace=wrap;html=1;" vertex="1" parent="1">
          <mxGeometry x="555" y="2040" width="50" height="20" as="geometry" />
        </mxCell>
        <mxCell id="t94pPOiG23g_uNMkArds-415" value="&lt;span style=&quot;font-size: 10px;&quot;&gt;zahlungsarten&lt;/span&gt;" style="text;whiteSpace=wrap;html=1;align=center;" vertex="1" parent="1">
          <mxGeometry x="685.5" y="2040" width="50" height="20" as="geometry" />
        </mxCell>
        <mxCell id="t94pPOiG23g_uNMkArds-416" value="Jede Kunde hat Anscprechpartner" style="text;whiteSpace=wrap;html=1;align=center;" vertex="1" parent="1">
          <mxGeometry x="522" y="2070" width="220" height="20" as="geometry" />
        </mxCell>
        <mxCell id="t94pPOiG23g_uNMkArds-417" value="Kunde" style="rounded=0;whiteSpace=wrap;html=1;" vertex="1" parent="1">
          <mxGeometry x="450" y="2110" width="60" height="30" as="geometry" />
        </mxCell>
        <mxCell id="t94pPOiG23g_uNMkArds-418" value="Anscprechpartner" style="rounded=0;whiteSpace=wrap;html=1;" vertex="1" parent="1">
          <mxGeometry x="724" y="2110" width="103" height="30" as="geometry" />
        </mxCell>
        <mxCell id="t94pPOiG23g_uNMkArds-419" style="edgeStyle=orthogonalEdgeStyle;orthogonalLoop=1;jettySize=auto;html=1;entryX=0;entryY=0.5;entryDx=0;entryDy=0;rounded=0;endArrow=none;endFill=0;" edge="1" parent="1" source="t94pPOiG23g_uNMkArds-420" target="t94pPOiG23g_uNMkArds-418">
          <mxGeometry relative="1" as="geometry" />
        </mxCell>
        <mxCell id="t94pPOiG23g_uNMkArds-420" value="KAP" style="rhombus;whiteSpace=wrap;html=1;" vertex="1" parent="1">
          <mxGeometry x="570" y="2110" width="80" height="30" as="geometry" />
        </mxCell>
        <object label="" id="t94pPOiG23g_uNMkArds-421">
          <mxCell style="edgeStyle=orthogonalEdgeStyle;orthogonalLoop=1;jettySize=auto;html=1;entryX=0;entryY=0.5;entryDx=0;entryDy=0;rounded=0;endArrow=none;endFill=0;exitX=1;exitY=0.5;exitDx=0;exitDy=0;" edge="1" parent="1" source="t94pPOiG23g_uNMkArds-417">
            <mxGeometry relative="1" as="geometry">
              <mxPoint x="530" y="2124.83" as="sourcePoint" />
              <mxPoint x="570" y="2124.83" as="targetPoint" />
            </mxGeometry>
          </mxCell>
        </object>
        <mxCell id="t94pPOiG23g_uNMkArds-422" value="&lt;font style=&quot;font-size: 10px;&quot;&gt;1:1&lt;/font&gt;" style="text;whiteSpace=wrap;html=1;" vertex="1" parent="1">
          <mxGeometry x="530" y="2100" width="20" height="20" as="geometry" />
        </mxCell>
        <mxCell id="t94pPOiG23g_uNMkArds-423" value="&lt;font style=&quot;font-size: 10px;&quot;&gt;1:*&lt;/font&gt;" style="text;whiteSpace=wrap;html=1;" vertex="1" parent="1">
          <mxGeometry x="670" y="2100" width="20" height="20" as="geometry" />
        </mxCell>
        <mxCell id="t94pPOiG23g_uNMkArds-424" value="&lt;span style=&quot;font-size: 10px;&quot;&gt;kunde&lt;/span&gt;" style="text;whiteSpace=wrap;html=1;align=center;" vertex="1" parent="1">
          <mxGeometry x="515" y="2120" width="50" height="20" as="geometry" />
        </mxCell>
        <mxCell id="t94pPOiG23g_uNMkArds-425" value="&lt;span style=&quot;font-size: 10px;&quot;&gt;anscprechspartner&lt;/span&gt;" style="text;whiteSpace=wrap;html=1;align=center;" vertex="1" parent="1">
          <mxGeometry x="655.5" y="2120" width="50" height="20" as="geometry" />
        </mxCell>
      </root>
    </mxGraphModel>
  </diagram>
</mxfile>
